<ttFont>
    <TTGlyph name="A" xMin="35" yMin="0" xMax="793" yMax="732">
      <contour>
        <pt x="35" y="14" on="1"/>
        <pt x="109" y="14" on="1"/>
        <pt x="185" y="194" on="0"/>
        <pt x="338" y="551" on="0"/>
        <pt x="414" y="732" on="1"/>
        <pt x="490" y="551" on="0"/>
        <pt x="642" y="194" on="0"/>
        <pt x="718" y="14" on="1"/>
        <pt x="793" y="14" on="1"/>
        <pt x="793" y="0" on="1"/>
        <pt x="619" y="0" on="1"/>
        <pt x="619" y="14" on="1"/>
        <pt x="703" y="14" on="1"/>
        <pt x="671" y="89" on="0"/>
        <pt x="607" y="240" on="0"/>
        <pt x="575" y="316" on="1"/>
        <pt x="253" y="316" on="1"/>
        <pt x="221" y="240" on="0"/>
        <pt x="157" y="89" on="0"/>
        <pt x="125" y="14" on="1"/>
        <pt x="209" y="14" on="1"/>
        <pt x="209" y="0" on="1"/>
        <pt x="35" y="0" on="1"/>
      </contour>
      <contour>
        <pt x="423" y="675" on="1"/>
        <pt x="414" y="700" on="1"/>
        <pt x="413" y="698" on="0"/>
        <pt x="411" y="691" on="0"/>
        <pt x="409" y="686" on="1"/>
        <pt x="407" y="681" on="0"/>
        <pt x="405" y="675" on="1"/>
        <pt x="371" y="587" on="0"/>
        <pt x="296" y="417" on="0"/>
        <pt x="259" y="330" on="1"/>
        <pt x="569" y="330" on="1"/>
      </contour>
    </TTGlyph>
    <TTGlyph name="AE" xMin="35" yMin="0" xMax="740" yMax="700">
      <contour>
        <pt x="712" y="546" on="1"/>
        <pt x="712" y="686" on="1"/>
        <pt x="416" y="686" on="1"/>
        <pt x="416" y="360" on="1"/>
        <pt x="687" y="360" on="1"/>
        <pt x="687" y="346" on="1"/>
        <pt x="416" y="346" on="1"/>
        <pt x="416" y="14" on="1"/>
        <pt x="726" y="14" on="1"/>
        <pt x="726" y="154" on="1"/>
        <pt x="740" y="154" on="1"/>
        <pt x="740" y="0" on="1"/>
        <pt x="402" y="0" on="1"/>
        <pt x="402" y="316" on="1"/>
        <pt x="255" y="316" on="1"/>
        <pt x="223" y="240" on="0"/>
        <pt x="159" y="89" on="0"/>
        <pt x="127" y="14" on="1"/>
        <pt x="209" y="14" on="1"/>
        <pt x="209" y="0" on="1"/>
        <pt x="35" y="0" on="1"/>
        <pt x="35" y="14" on="1"/>
        <pt x="112" y="14" on="1"/>
        <pt x="185" y="186" on="0"/>
        <pt x="329" y="527" on="0"/>
        <pt x="402" y="700" on="1"/>
        <pt x="726" y="700" on="1"/>
        <pt x="726" y="546" on="1"/>
      </contour>
      <contour>
        <pt x="402" y="330" on="1"/>
        <pt x="402" y="666" on="1"/>
        <pt x="370" y="580" on="0"/>
        <pt x="296" y="415" on="0"/>
        <pt x="261" y="330" on="1"/>
      </contour>
    </TTGlyph>
    <TTGlyph name="Aacute" xMin="35" yMin="0" xMax="793" yMax="883">
      <component glyphName="acute" x="308" y="271" flags="0x4"/>
      <component glyphName="A" x="0" y="0" flags="0x4"/>
    </TTGlyph>
    <TTGlyph name="Acircumflex" xMin="35" yMin="0" xMax="793" yMax="931">
      <component glyphName="asciicircum" x="182" y="271" flags="0x4"/>
      <component glyphName="A" x="0" y="0" flags="0x4"/>
    </TTGlyph>
    <TTGlyph name="Adieresis" xMin="35" yMin="0" xMax="793" yMax="810">
      <component glyphName="dieresis" x="230" y="290" flags="0x4"/>
      <component glyphName="A" x="0" y="0" flags="0x4"/>
    </TTGlyph>
    <TTGlyph name="Agrave" xMin="35" yMin="0" xMax="793" yMax="883">
      <component glyphName="A" x="0" y="0" flags="0x204"/>
      <component glyphName="grave" x="327" y="271" flags="0x4"/>
    </TTGlyph>
    <TTGlyph name="Aring" xMin="35" yMin="0" xMax="793" yMax="897">
      <component glyphName="A" x="0" y="0" flags="0x204"/>
      <component glyphName="ring" x="215" y="294" flags="0x4"/>
    </TTGlyph>
    <TTGlyph name="Atilde" xMin="35" yMin="0" xMax="793" yMax="834">
      <component glyphName="asciitilde" x="140" y="293" flags="0x4"/>
      <component glyphName="A" x="0" y="0" flags="0x4"/>
    </TTGlyph>
    <TTGlyph name="B" xMin="35" yMin="0" xMax="481" yMax="700">
      <contour>
        <pt x="35" y="14" on="1"/>
        <pt x="106" y="14" on="1"/>
        <pt x="106" y="686" on="1"/>
        <pt x="35" y="686" on="1"/>
        <pt x="35" y="700" on="1"/>
        <pt x="251" y="700" on="1"/>
        <pt x="296" y="700" on="0"/>
        <pt x="371" y="680" on="0"/>
        <pt x="425" y="638" on="0"/>
        <pt x="454" y="571" on="0"/>
        <pt x="454" y="525" on="1"/>
        <pt x="454" y="463" on="0"/>
        <pt x="392" y="369" on="0"/>
        <pt x="327" y="352" on="1"/>
        <pt x="357" y="346" on="0"/>
        <pt x="413" y="318" on="0"/>
        <pt x="456" y="274" on="0"/>
        <pt x="481" y="216" on="0"/>
        <pt x="481" y="180" on="1"/>
        <pt x="481" y="135" on="0"/>
        <pt x="445" y="68" on="0"/>
        <pt x="386" y="23" on="0"/>
        <pt x="310" y="0" on="0"/>
        <pt x="269" y="0" on="1"/>
        <pt x="35" y="0" on="1"/>
      </contour>
      <contour>
        <pt x="120" y="344" on="1"/>
        <pt x="120" y="14" on="1"/>
        <pt x="268" y="14" on="1"/>
        <pt x="308" y="14" on="0"/>
        <pt x="381" y="34" on="0"/>
        <pt x="435" y="75" on="0"/>
        <pt x="467" y="136" on="0"/>
        <pt x="467" y="177" on="1"/>
        <pt x="467" y="220" on="0"/>
        <pt x="430" y="284" on="0"/>
        <pt x="369" y="324" on="0"/>
        <pt x="291" y="344" on="0"/>
        <pt x="249" y="344" on="1"/>
      </contour>
      <contour>
        <pt x="120" y="686" on="1"/>
        <pt x="120" y="358" on="1"/>
        <pt x="267" y="358" on="1"/>
        <pt x="347" y="358" on="0"/>
        <pt x="440" y="452" on="0"/>
        <pt x="440" y="528" on="1"/>
        <pt x="440" y="570" on="0"/>
        <pt x="414" y="630" on="0"/>
        <pt x="367" y="668" on="0"/>
        <pt x="302" y="686" on="0"/>
        <pt x="263" y="686" on="1"/>
      </contour>
    </TTGlyph>
    <TTGlyph name="C" xMin="35" yMin="-8" xMax="575" yMax="708">
      <contour>
        <pt x="561" y="546" on="1"/>
        <pt x="561" y="649" on="1"/>
        <pt x="523" y="671" on="0"/>
        <pt x="437" y="694" on="0"/>
        <pt x="392" y="694" on="1"/>
        <pt x="321" y="694" on="0"/>
        <pt x="196" y="639" on="0"/>
        <pt x="103" y="545" on="0"/>
        <pt x="49" y="419" on="0"/>
        <pt x="49" y="348" on="1"/>
        <pt x="49" y="277" on="0"/>
        <pt x="103" y="153" on="0"/>
        <pt x="195" y="60" on="0"/>
        <pt x="319" y="6" on="0"/>
        <pt x="389" y="6" on="1"/>
        <pt x="437" y="6" on="0"/>
        <pt x="526" y="31" on="0"/>
        <pt x="565" y="54" on="1"/>
        <pt x="574" y="42" on="1"/>
        <pt x="534" y="19" on="0"/>
        <pt x="443" y="-8" on="0"/>
        <pt x="392" y="-8" on="1"/>
        <pt x="318" y="-8" on="0"/>
        <pt x="188" y="48" on="0"/>
        <pt x="91" y="145" on="0"/>
        <pt x="35" y="275" on="0"/>
        <pt x="35" y="349" on="1"/>
        <pt x="35" y="423" on="0"/>
        <pt x="91" y="554" on="0"/>
        <pt x="188" y="651" on="0"/>
        <pt x="318" y="708" on="0"/>
        <pt x="392" y="708" on="1"/>
        <pt x="443" y="708" on="0"/>
        <pt x="534" y="682" on="0"/>
        <pt x="575" y="658" on="1"/>
        <pt x="575" y="546" on="1"/>
      </contour>
    </TTGlyph>
    <TTGlyph name="Ccedilla" xMin="35" yMin="-223" xMax="575" yMax="708">
      <contour>
        <pt x="561" y="484" on="1"/>
        <pt x="561" y="649" on="1"/>
        <pt x="523" y="671" on="0"/>
        <pt x="437" y="694" on="0"/>
        <pt x="392" y="694" on="1"/>
        <pt x="321" y="694" on="0"/>
        <pt x="196" y="639" on="0"/>
        <pt x="103" y="545" on="0"/>
        <pt x="49" y="419" on="0"/>
        <pt x="49" y="348" on="1"/>
        <pt x="49" y="277" on="0"/>
        <pt x="103" y="153" on="0"/>
        <pt x="195" y="60" on="0"/>
        <pt x="319" y="6" on="0"/>
        <pt x="389" y="6" on="1"/>
        <pt x="437" y="6" on="0"/>
        <pt x="526" y="31" on="0"/>
        <pt x="565" y="54" on="1"/>
        <pt x="574" y="42" on="1"/>
        <pt x="534" y="19" on="0"/>
        <pt x="443" y="-8" on="0"/>
        <pt x="392" y="-8" on="1"/>
        <pt x="392" y="-17" on="0"/>
        <pt x="394" y="-21" on="1"/>
        <pt x="399" y="-38" on="0"/>
        <pt x="422" y="-54" on="0"/>
        <pt x="433" y="-61" on="1"/>
        <pt x="456" y="-76" on="0"/>
        <pt x="475" y="-113" on="0"/>
        <pt x="475" y="-127" on="1"/>
        <pt x="475" y="-178" on="0"/>
        <pt x="424" y="-223" on="0"/>
        <pt x="391" y="-223" on="1"/>
        <pt x="365" y="-223" on="0"/>
        <pt x="320" y="-194" on="0"/>
        <pt x="310" y="-165" on="1"/>
        <pt x="325" y="-161" on="1"/>
        <pt x="331" y="-182" on="0"/>
        <pt x="366" y="-209" on="0"/>
        <pt x="391" y="-209" on="1"/>
        <pt x="422" y="-209" on="0"/>
        <pt x="461" y="-168" on="0"/>
        <pt x="461" y="-137" on="1"/>
        <pt x="461" y="-109" on="0"/>
        <pt x="435" y="-79" on="0"/>
        <pt x="404" y="-58" on="0"/>
        <pt x="378" y="-36" on="0"/>
        <pt x="378" y="-16" on="1"/>
        <pt x="378" y="-7" on="1"/>
        <pt x="306" y="-4" on="0"/>
        <pt x="181" y="53" on="0"/>
        <pt x="88" y="149" on="0"/>
        <pt x="35" y="277" on="0"/>
        <pt x="35" y="349" on="1"/>
        <pt x="35" y="423" on="0"/>
        <pt x="91" y="554" on="0"/>
        <pt x="188" y="651" on="0"/>
        <pt x="318" y="708" on="0"/>
        <pt x="392" y="708" on="1"/>
        <pt x="443" y="708" on="0"/>
        <pt x="534" y="682" on="0"/>
        <pt x="575" y="658" on="1"/>
        <pt x="575" y="484" on="1"/>
      </contour>
    </TTGlyph>
    <TTGlyph name="D" xMin="35" yMin="0" xMax="597" yMax="700">
      <contour>
        <pt x="35" y="14" on="1"/>
        <pt x="108" y="14" on="1"/>
        <pt x="108" y="686" on="1"/>
        <pt x="35" y="686" on="1"/>
        <pt x="35" y="700" on="1"/>
        <pt x="245" y="700" on="1"/>
        <pt x="317" y="700" on="0"/>
        <pt x="445" y="651" on="0"/>
        <pt x="541" y="560" on="0"/>
        <pt x="597" y="430" on="0"/>
        <pt x="597" y="350" on="1"/>
        <pt x="597" y="291" on="0"/>
        <pt x="556" y="167" on="0"/>
        <pt x="464" y="65" on="0"/>
        <pt x="317" y="0" on="0"/>
        <pt x="211" y="0" on="1"/>
        <pt x="35" y="0" on="1"/>
      </contour>
      <contour>
        <pt x="122" y="686" on="1"/>
        <pt x="122" y="14" on="1"/>
        <pt x="220" y="14" on="1"/>
        <pt x="319" y="14" on="0"/>
        <pt x="458" y="77" on="0"/>
        <pt x="545" y="174" on="0"/>
        <pt x="584" y="293" on="0"/>
        <pt x="584" y="350" on="1"/>
        <pt x="584" y="427" on="0"/>
        <pt x="531" y="552" on="0"/>
        <pt x="439" y="639" on="0"/>
        <pt x="318" y="686" on="0"/>
        <pt x="251" y="686" on="1"/>
      </contour>
    </TTGlyph>
    <TTGlyph name="E" xMin="35" yMin="0" xMax="536" yMax="700">
      <contour>
        <pt x="35" y="14" on="1"/>
        <pt x="117" y="14" on="1"/>
        <pt x="117" y="686" on="1"/>
        <pt x="35" y="686" on="1"/>
        <pt x="35" y="700" on="1"/>
        <pt x="522" y="700" on="1"/>
        <pt x="522" y="546" on="1"/>
        <pt x="508" y="546" on="1"/>
        <pt x="508" y="686" on="1"/>
        <pt x="131" y="686" on="1"/>
        <pt x="131" y="360" on="1"/>
        <pt x="483" y="360" on="1"/>
        <pt x="483" y="346" on="1"/>
        <pt x="131" y="346" on="1"/>
        <pt x="131" y="14" on="1"/>
        <pt x="522" y="14" on="1"/>
        <pt x="522" y="154" on="1"/>
        <pt x="536" y="154" on="1"/>
        <pt x="536" y="0" on="1"/>
        <pt x="35" y="0" on="1"/>
      </contour>
    </TTGlyph>
    <TTGlyph name="Eacute" xMin="35" yMin="0" xMax="536" yMax="883">
      <component glyphName="E" x="0" y="0" flags="0x204"/>
      <component glyphName="acute" x="177" y="271" flags="0x4"/>
    </TTGlyph>
    <TTGlyph name="Ecircumflex" xMin="35" yMin="0" xMax="536" yMax="931">
      <component glyphName="E" x="0" y="0" flags="0x204"/>
      <component glyphName="asciicircum" x="68" y="271" flags="0x4"/>
    </TTGlyph>
    <TTGlyph name="Edieresis" xMin="35" yMin="0" xMax="536" yMax="810">
      <component glyphName="E" x="0" y="0" flags="0x204"/>
      <component glyphName="dieresis" x="112" y="290" flags="0x4"/>
    </TTGlyph>
    <TTGlyph name="Egrave" xMin="35" yMin="0" xMax="536" yMax="883">
      <component glyphName="E" x="0" y="0" flags="0x204"/>
      <component glyphName="grave" x="213" y="271" flags="0x4"/>
    </TTGlyph>
    <TTGlyph name="Eth" xMin="35" yMin="0" xMax="597" yMax="700">
      <contour>
        <pt x="44" y="360" on="1"/>
        <pt x="108" y="360" on="1"/>
        <pt x="108" y="686" on="1"/>
        <pt x="35" y="686" on="1"/>
        <pt x="35" y="700" on="1"/>
        <pt x="245" y="700" on="1"/>
        <pt x="317" y="700" on="0"/>
        <pt x="445" y="651" on="0"/>
        <pt x="541" y="560" on="0"/>
        <pt x="597" y="430" on="0"/>
        <pt x="597" y="350" on="1"/>
        <pt x="597" y="291" on="0"/>
        <pt x="556" y="167" on="0"/>
        <pt x="464" y="65" on="0"/>
        <pt x="317" y="0" on="0"/>
        <pt x="211" y="0" on="1"/>
        <pt x="35" y="0" on="1"/>
        <pt x="35" y="14" on="1"/>
        <pt x="108" y="14" on="1"/>
        <pt x="108" y="346" on="1"/>
        <pt x="44" y="346" on="1"/>
      </contour>
      <contour>
        <pt x="122" y="686" on="1"/>
        <pt x="122" y="360" on="1"/>
        <pt x="346" y="360" on="1"/>
        <pt x="346" y="346" on="1"/>
        <pt x="122" y="346" on="1"/>
        <pt x="122" y="15" on="1"/>
        <pt x="220" y="15" on="1"/>
        <pt x="319" y="15" on="0"/>
        <pt x="458" y="77" on="0"/>
        <pt x="545" y="175" on="0"/>
        <pt x="584" y="293" on="0"/>
        <pt x="584" y="350" on="1"/>
        <pt x="584" y="427" on="0"/>
        <pt x="531" y="552" on="0"/>
        <pt x="439" y="639" on="0"/>
        <pt x="318" y="686" on="0"/>
        <pt x="251" y="686" on="1"/>
      </contour>
    </TTGlyph>
    <TTGlyph name="F" xMin="35" yMin="0" xMax="522" yMax="700">
      <contour>
        <pt x="35" y="14" on="1"/>
        <pt x="117" y="14" on="1"/>
        <pt x="117" y="686" on="1"/>
        <pt x="35" y="686" on="1"/>
        <pt x="35" y="700" on="1"/>
        <pt x="522" y="700" on="1"/>
        <pt x="522" y="546" on="1"/>
        <pt x="508" y="546" on="1"/>
        <pt x="508" y="686" on="1"/>
        <pt x="131" y="686" on="1"/>
        <pt x="131" y="360" on="1"/>
        <pt x="483" y="360" on="1"/>
        <pt x="483" y="346" on="1"/>
        <pt x="131" y="346" on="1"/>
        <pt x="131" y="14" on="1"/>
        <pt x="209" y="14" on="1"/>
        <pt x="209" y="0" on="1"/>
        <pt x="35" y="0" on="1"/>
      </contour>
    </TTGlyph>
    <TTGlyph name="G" xMin="35" yMin="-10" xMax="575" yMax="706">
      <contour>
        <pt x="574" y="298" on="1"/>
        <pt x="574" y="40" on="1"/>
        <pt x="534" y="17" on="0"/>
        <pt x="443" y="-10" on="0"/>
        <pt x="392" y="-10" on="1"/>
        <pt x="318" y="-10" on="0"/>
        <pt x="188" y="46" on="0"/>
        <pt x="91" y="143" on="0"/>
        <pt x="35" y="273" on="0"/>
        <pt x="35" y="347" on="1"/>
        <pt x="35" y="421" on="0"/>
        <pt x="91" y="552" on="0"/>
        <pt x="188" y="649" on="0"/>
        <pt x="318" y="706" on="0"/>
        <pt x="392" y="706" on="1"/>
        <pt x="443" y="706" on="0"/>
        <pt x="534" y="680" on="0"/>
        <pt x="575" y="656" on="1"/>
        <pt x="567" y="644" on="1"/>
        <pt x="529" y="667" on="0"/>
        <pt x="440" y="692" on="0"/>
        <pt x="392" y="692" on="1"/>
        <pt x="321" y="692" on="0"/>
        <pt x="196" y="637" on="0"/>
        <pt x="103" y="543" on="0"/>
        <pt x="49" y="417" on="0"/>
        <pt x="49" y="346" on="1"/>
        <pt x="49" y="275" on="0"/>
        <pt x="103" y="151" on="0"/>
        <pt x="195" y="58" on="0"/>
        <pt x="319" y="4" on="0"/>
        <pt x="389" y="4" on="1"/>
        <pt x="436" y="4" on="0"/>
        <pt x="522" y="27" on="0"/>
        <pt x="560" y="49" on="1"/>
        <pt x="560" y="284" on="1"/>
        <pt x="388" y="284" on="1"/>
        <pt x="388" y="298" on="1"/>
      </contour>
    </TTGlyph>
    <TTGlyph name="H" xMin="35" yMin="0" xMax="681" yMax="700">
      <contour>
        <pt x="507" y="700" on="1"/>
        <pt x="681" y="700" on="1"/>
        <pt x="681" y="686" on="1"/>
        <pt x="604" y="686" on="1"/>
        <pt x="604" y="14" on="1"/>
        <pt x="681" y="14" on="1"/>
        <pt x="681" y="0" on="1"/>
        <pt x="507" y="0" on="1"/>
        <pt x="507" y="14" on="1"/>
        <pt x="590" y="14" on="1"/>
        <pt x="590" y="346" on="1"/>
        <pt x="126" y="346" on="1"/>
        <pt x="126" y="14" on="1"/>
        <pt x="209" y="14" on="1"/>
        <pt x="209" y="0" on="1"/>
        <pt x="35" y="0" on="1"/>
        <pt x="35" y="14" on="1"/>
        <pt x="112" y="14" on="1"/>
        <pt x="112" y="686" on="1"/>
        <pt x="35" y="686" on="1"/>
        <pt x="35" y="700" on="1"/>
        <pt x="209" y="700" on="1"/>
        <pt x="209" y="686" on="1"/>
        <pt x="126" y="686" on="1"/>
        <pt x="126" y="360" on="1"/>
        <pt x="590" y="360" on="1"/>
        <pt x="590" y="686" on="1"/>
        <pt x="507" y="686" on="1"/>
      </contour>
    </TTGlyph>
    <TTGlyph name="I" xMin="35" yMin="0" xMax="209" yMax="700">
      <contour>
        <pt x="35" y="14" on="1"/>
        <pt x="112" y="14" on="1"/>
        <pt x="112" y="686" on="1"/>
        <pt x="35" y="686" on="1"/>
        <pt x="35" y="700" on="1"/>
        <pt x="209" y="700" on="1"/>
        <pt x="209" y="686" on="1"/>
        <pt x="126" y="686" on="1"/>
        <pt x="126" y="14" on="1"/>
        <pt x="209" y="14" on="1"/>
        <pt x="209" y="0" on="1"/>
        <pt x="35" y="0" on="1"/>
      </contour>
    </TTGlyph>
    <TTGlyph name="Iacute" xMin="35" yMin="0" xMax="225" yMax="883">
      <component glyphName="I" x="0" y="0" flags="0x204"/>
      <component glyphName="acute" x="19" y="271" flags="0x4"/>
    </TTGlyph>
    <TTGlyph name="Icircumflex" xMin="1" yMin="0" xMax="241" yMax="931">
      <component glyphName="I" x="0" y="0" flags="0x204"/>
      <component glyphName="asciicircum" x="-111" y="271" flags="0x4"/>
    </TTGlyph>
    <TTGlyph name="Idieresis" xMin="19" yMin="0" xMax="224" yMax="810">
      <component glyphName="I" x="0" y="0" flags="0x4"/>
      <component glyphName="dieresis" x="-63" y="290" flags="0x4"/>
    </TTGlyph>
    <TTGlyph name="Igrave" xMin="15" yMin="0" xMax="209" yMax="883">
      <component glyphName="I" x="0" y="0" flags="0x204"/>
      <component glyphName="grave" x="29" y="271" flags="0x4"/>
    </TTGlyph>
    <TTGlyph name="J" xMin="35" yMin="-142" xMax="220" yMax="700">
      <contour>
        <pt x="35" y="700" on="1"/>
        <pt x="220" y="700" on="1"/>
        <pt x="220" y="90" on="1"/>
        <pt x="220" y="34" on="0"/>
        <pt x="191" y="-51" on="0"/>
        <pt x="140" y="-109" on="0"/>
        <pt x="73" y="-141" on="0"/>
        <pt x="35" y="-142" on="1"/>
        <pt x="35" y="-128" on="1"/>
        <pt x="72" y="-126" on="0"/>
        <pt x="134" y="-95" on="0"/>
        <pt x="180" y="-38" on="0"/>
        <pt x="206" y="42" on="0"/>
        <pt x="206" y="93" on="1"/>
        <pt x="206" y="686" on="1"/>
        <pt x="35" y="686" on="1"/>
      </contour>
    </TTGlyph>
    <TTGlyph name="K" xMin="35" yMin="0" xMax="651" yMax="700">
      <contour>
        <pt x="477" y="14" on="1"/>
        <pt x="543" y="14" on="1"/>
        <pt x="465" y="114" on="0"/>
        <pt x="308" y="314" on="0"/>
        <pt x="229" y="414" on="1"/>
        <pt x="125" y="316" on="1"/>
        <pt x="125" y="240" on="0"/>
        <pt x="126" y="89" on="0"/>
        <pt x="126" y="14" on="1"/>
        <pt x="209" y="14" on="1"/>
        <pt x="209" y="0" on="1"/>
        <pt x="35" y="0" on="1"/>
        <pt x="35" y="14" on="1"/>
        <pt x="112" y="14" on="1"/>
        <pt x="112" y="686" on="1"/>
        <pt x="35" y="686" on="1"/>
        <pt x="35" y="700" on="1"/>
        <pt x="209" y="700" on="1"/>
        <pt x="209" y="686" on="1"/>
        <pt x="126" y="686" on="1"/>
        <pt x="126" y="360" on="1"/>
        <pt x="126" y="352" on="0"/>
        <pt x="125" y="339" on="0"/>
        <pt x="125" y="331" on="1"/>
        <pt x="142" y="351" on="1"/>
        <pt x="493" y="686" on="1"/>
        <pt x="429" y="686" on="1"/>
        <pt x="429" y="700" on="1"/>
        <pt x="603" y="700" on="1"/>
        <pt x="603" y="686" on="1"/>
        <pt x="515" y="686" on="1"/>
        <pt x="240" y="424" on="1"/>
        <pt x="321" y="321" on="0"/>
        <pt x="482" y="117" on="0"/>
        <pt x="563" y="14" on="1"/>
        <pt x="651" y="14" on="1"/>
        <pt x="651" y="0" on="1"/>
        <pt x="477" y="0" on="1"/>
      </contour>
    </TTGlyph>
    <TTGlyph name="L" xMin="35" yMin="0" xMax="531" yMax="700">
      <contour>
        <pt x="35" y="14" on="1"/>
        <pt x="112" y="14" on="1"/>
        <pt x="112" y="686" on="1"/>
        <pt x="35" y="686" on="1"/>
        <pt x="35" y="700" on="1"/>
        <pt x="209" y="700" on="1"/>
        <pt x="209" y="686" on="1"/>
        <pt x="126" y="686" on="1"/>
        <pt x="126" y="14" on="1"/>
        <pt x="517" y="14" on="1"/>
        <pt x="517" y="154" on="1"/>
        <pt x="531" y="154" on="1"/>
        <pt x="531" y="0" on="1"/>
        <pt x="35" y="0" on="1"/>
      </contour>
    </TTGlyph>
    <TTGlyph name="M" xMin="35" yMin="0" xMax="926" yMax="700">
      <contour>
        <pt x="821" y="700" on="1"/>
        <pt x="921" y="700" on="1"/>
        <pt x="921" y="686" on="1"/>
        <pt x="844" y="686" on="1"/>
        <pt x="844" y="14" on="1"/>
        <pt x="926" y="14" on="1"/>
        <pt x="926" y="0" on="1"/>
        <pt x="752" y="0" on="1"/>
        <pt x="752" y="14" on="1"/>
        <pt x="830" y="14" on="1"/>
        <pt x="830" y="645" on="1"/>
        <pt x="831" y="690" on="1"/>
        <pt x="822" y="678" on="1"/>
        <pt x="811" y="663" on="0"/>
        <pt x="765" y="604" on="0"/>
        <pt x="706" y="527" on="0"/>
        <pt x="638" y="437" on="0"/>
        <pt x="569" y="347" on="0"/>
        <pt x="504" y="262" on="0"/>
        <pt x="478" y="228" on="1"/>
        <pt x="383" y="352" on="0"/>
        <pt x="216" y="570" on="0"/>
        <pt x="134" y="677" on="1"/>
        <pt x="125" y="690" on="1"/>
        <pt x="125" y="679" on="0"/>
        <pt x="126" y="656" on="0"/>
        <pt x="126" y="645" on="1"/>
        <pt x="126" y="14" on="1"/>
        <pt x="209" y="14" on="1"/>
        <pt x="209" y="0" on="1"/>
        <pt x="35" y="0" on="1"/>
        <pt x="35" y="14" on="1"/>
        <pt x="112" y="14" on="1"/>
        <pt x="112" y="686" on="1"/>
        <pt x="35" y="686" on="1"/>
        <pt x="35" y="700" on="1"/>
        <pt x="135" y="700" on="1"/>
        <pt x="201" y="614" on="0"/>
        <pt x="264" y="532" on="1"/>
        <pt x="291" y="497" on="0"/>
        <pt x="348" y="422" on="0"/>
        <pt x="404" y="348" on="0"/>
        <pt x="457" y="280" on="0"/>
        <pt x="478" y="253" on="1"/>
        <pt x="564" y="364" on="0"/>
        <pt x="735" y="589" on="0"/>
      </contour>
    </TTGlyph>
    <TTGlyph name="N" xMin="35" yMin="-32" xMax="805" yMax="700">
      <contour>
        <pt x="35" y="14" on="1"/>
        <pt x="112" y="14" on="1"/>
        <pt x="112" y="686" on="1"/>
        <pt x="35" y="686" on="1"/>
        <pt x="35" y="700" on="1"/>
        <pt x="138" y="700" on="1"/>
        <pt x="693" y="28" on="1"/>
        <pt x="712" y="2" on="1"/>
        <pt x="709" y="34" on="1"/>
        <pt x="709" y="686" on="1"/>
        <pt x="631" y="686" on="1"/>
        <pt x="631" y="700" on="1"/>
        <pt x="805" y="700" on="1"/>
        <pt x="805" y="686" on="1"/>
        <pt x="723" y="686" on="1"/>
        <pt x="723" y="-32" on="1"/>
        <pt x="142" y="670" on="1"/>
        <pt x="124" y="690" on="1"/>
        <pt x="126" y="664" on="1"/>
        <pt x="126" y="14" on="1"/>
        <pt x="209" y="14" on="1"/>
        <pt x="209" y="0" on="1"/>
        <pt x="35" y="0" on="1"/>
      </contour>
    </TTGlyph>
    <TTGlyph name="Ntilde" xMin="35" yMin="-32" xMax="805" yMax="834">
      <component glyphName="N" x="0" y="0" flags="0x4"/>
      <component glyphName="asciitilde" x="138" y="293" flags="0x4"/>
    </TTGlyph>
    <TTGlyph name="O" xMin="35" yMin="-8" xMax="751" yMax="708">
      <contour>
        <pt x="35" y="349" on="1"/>
        <pt x="35" y="423" on="0"/>
        <pt x="91" y="554" on="0"/>
        <pt x="188" y="651" on="0"/>
        <pt x="318" y="708" on="0"/>
        <pt x="392" y="708" on="1"/>
        <pt x="466" y="708" on="0"/>
        <pt x="597" y="651" on="0"/>
        <pt x="694" y="554" on="0"/>
        <pt x="751" y="423" on="0"/>
        <pt x="751" y="349" on="1"/>
        <pt x="751" y="275" on="0"/>
        <pt x="694" y="145" on="0"/>
        <pt x="597" y="48" on="0"/>
        <pt x="466" y="-8" on="0"/>
        <pt x="392" y="-8" on="1"/>
        <pt x="318" y="-8" on="0"/>
        <pt x="188" y="48" on="0"/>
        <pt x="91" y="145" on="0"/>
        <pt x="35" y="275" on="0"/>
      </contour>
      <contour>
        <pt x="49" y="348" on="1"/>
        <pt x="49" y="277" on="0"/>
        <pt x="103" y="153" on="0"/>
        <pt x="195" y="60" on="0"/>
        <pt x="319" y="6" on="0"/>
        <pt x="389" y="6" on="1"/>
        <pt x="460" y="6" on="0"/>
        <pt x="587" y="60" on="0"/>
        <pt x="682" y="153" on="0"/>
        <pt x="737" y="278" on="0"/>
        <pt x="737" y="349" on="1"/>
        <pt x="737" y="420" on="0"/>
        <pt x="682" y="545" on="0"/>
        <pt x="588" y="639" on="0"/>
        <pt x="463" y="694" on="0"/>
        <pt x="392" y="694" on="1"/>
        <pt x="321" y="694" on="0"/>
        <pt x="196" y="639" on="0"/>
        <pt x="103" y="545" on="0"/>
        <pt x="49" y="419" on="0"/>
      </contour>
    </TTGlyph>
    <TTGlyph name="Oacute" xMin="35" yMin="-8" xMax="751" yMax="883">
      <component glyphName="O" x="0" y="0" flags="0x204"/>
      <component glyphName="acute" x="310" y="271" flags="0x4"/>
    </TTGlyph>
    <TTGlyph name="Ocircumflex" xMin="35" yMin="-8" xMax="751" yMax="931">
      <component glyphName="O" x="0" y="0" flags="0x204"/>
      <component glyphName="asciicircum" x="165" y="271" flags="0x4"/>
    </TTGlyph>
    <TTGlyph name="Odieresis" xMin="35" yMin="-8" xMax="751" yMax="810">
      <component glyphName="O" x="0" y="0" flags="0x204"/>
      <component glyphName="dieresis" x="212" y="290" flags="0x4"/>
    </TTGlyph>
    <TTGlyph name="Ograve" xMin="35" yMin="-8" xMax="751" yMax="883">
      <component glyphName="O" x="0" y="0" flags="0x204"/>
      <component glyphName="grave" x="298" y="271" flags="0x4"/>
    </TTGlyph>
    <TTGlyph name="Oslash" xMin="35" yMin="-8" xMax="751" yMax="708">
      <contour>
        <pt x="49" y="348" on="1"/>
        <pt x="49" y="272" on="0"/>
        <pt x="109" y="142" on="0"/>
        <pt x="160" y="95" on="1"/>
        <pt x="271" y="228" on="0"/>
        <pt x="490" y="489" on="0"/>
        <pt x="601" y="622" on="1"/>
        <pt x="557" y="656" on="0"/>
        <pt x="451" y="694" on="0"/>
        <pt x="392" y="694" on="1"/>
        <pt x="321" y="694" on="0"/>
        <pt x="196" y="639" on="0"/>
        <pt x="103" y="545" on="0"/>
        <pt x="49" y="419" on="0"/>
      </contour>
      <contour>
        <pt x="389" y="6" on="1"/>
        <pt x="460" y="6" on="0"/>
        <pt x="587" y="60" on="0"/>
        <pt x="682" y="153" on="0"/>
        <pt x="737" y="278" on="0"/>
        <pt x="737" y="349" on="1"/>
        <pt x="737" y="429" on="0"/>
        <pt x="668" y="567" on="0"/>
        <pt x="610" y="615" on="1"/>
        <pt x="169" y="87" on="1"/>
        <pt x="214" y="49" on="0"/>
        <pt x="326" y="6" on="0"/>
      </contour>
      <contour>
        <pt x="35" y="349" on="1"/>
        <pt x="35" y="423" on="0"/>
        <pt x="91" y="554" on="0"/>
        <pt x="188" y="651" on="0"/>
        <pt x="318" y="708" on="0"/>
        <pt x="392" y="708" on="1"/>
        <pt x="454" y="708" on="0"/>
        <pt x="565" y="668" on="0"/>
        <pt x="611" y="633" on="1"/>
        <pt x="627" y="652" on="0"/>
        <pt x="657" y="689" on="0"/>
        <pt x="673" y="708" on="1"/>
        <pt x="675" y="706" on="0"/>
        <pt x="680" y="702" on="0"/>
        <pt x="682" y="700" on="1"/>
        <pt x="666" y="681" on="0"/>
        <pt x="636" y="645" on="0"/>
        <pt x="620" y="626" on="1"/>
        <pt x="680" y="576" on="0"/>
        <pt x="751" y="433" on="0"/>
        <pt x="751" y="349" on="1"/>
        <pt x="751" y="275" on="0"/>
        <pt x="694" y="145" on="0"/>
        <pt x="597" y="48" on="0"/>
        <pt x="466" y="-8" on="0"/>
        <pt x="392" y="-8" on="1"/>
        <pt x="326" y="-8" on="0"/>
        <pt x="208" y="37" on="0"/>
        <pt x="161" y="77" on="1"/>
        <pt x="143" y="56" on="0"/>
        <pt x="108" y="13" on="0"/>
        <pt x="90" y="-8" on="1"/>
        <pt x="88" y="-6" on="0"/>
        <pt x="83" y="-2" on="0"/>
        <pt x="81" y="0" on="1"/>
        <pt x="99" y="21" on="0"/>
        <pt x="134" y="64" on="0"/>
        <pt x="152" y="85" on="1"/>
        <pt x="98" y="134" on="0"/>
        <pt x="35" y="270" on="0"/>
      </contour>
    </TTGlyph>
    <TTGlyph name="Otilde" xMin="35" yMin="-8" xMax="751" yMax="834">
      <component glyphName="O" x="0" y="0" flags="0x204"/>
      <component glyphName="asciitilde" x="125" y="293" flags="0x4"/>
    </TTGlyph>
    <TTGlyph name="P" xMin="35" yMin="0" xMax="446" yMax="700">
      <contour>
        <pt x="35" y="14" on="1"/>
        <pt x="106" y="14" on="1"/>
        <pt x="106" y="686" on="1"/>
        <pt x="35" y="686" on="1"/>
        <pt x="35" y="700" on="1"/>
        <pt x="246" y="700" on="1"/>
        <pt x="275" y="700" on="0"/>
        <pt x="345" y="680" on="0"/>
        <pt x="405" y="638" on="0"/>
        <pt x="446" y="570" on="0"/>
        <pt x="446" y="522" on="1"/>
        <pt x="446" y="439" on="0"/>
        <pt x="335" y="341" on="0"/>
        <pt x="232" y="341" on="1"/>
        <pt x="120" y="341" on="1"/>
        <pt x="120" y="14" on="1"/>
        <pt x="209" y="14" on="1"/>
        <pt x="209" y="0" on="1"/>
        <pt x="35" y="0" on="1"/>
      </contour>
      <contour>
        <pt x="120" y="355" on="1"/>
        <pt x="235" y="355" on="1"/>
        <pt x="293" y="355" on="0"/>
        <pt x="369" y="387" on="0"/>
        <pt x="414" y="436" on="0"/>
        <pt x="432" y="495" on="0"/>
        <pt x="432" y="522" on="1"/>
        <pt x="432" y="555" on="0"/>
        <pt x="402" y="614" on="0"/>
        <pt x="349" y="659" on="0"/>
        <pt x="278" y="686" on="0"/>
        <pt x="236" y="686" on="1"/>
        <pt x="120" y="686" on="1"/>
      </contour>
    </TTGlyph>
    <TTGlyph name="Q" xMin="35" yMin="-8" xMax="773" yMax="708">
      <contour>
        <pt x="49" y="348" on="1"/>
        <pt x="49" y="277" on="0"/>
        <pt x="103" y="153" on="0"/>
        <pt x="195" y="60" on="0"/>
        <pt x="319" y="6" on="0"/>
        <pt x="389" y="6" on="1"/>
        <pt x="460" y="6" on="0"/>
        <pt x="587" y="60" on="0"/>
        <pt x="682" y="153" on="0"/>
        <pt x="737" y="278" on="0"/>
        <pt x="737" y="349" on="1"/>
        <pt x="737" y="420" on="0"/>
        <pt x="682" y="545" on="0"/>
        <pt x="588" y="639" on="0"/>
        <pt x="463" y="694" on="0"/>
        <pt x="392" y="694" on="1"/>
        <pt x="321" y="694" on="0"/>
        <pt x="196" y="639" on="0"/>
        <pt x="103" y="545" on="0"/>
        <pt x="49" y="419" on="0"/>
      </contour>
      <contour>
        <pt x="35" y="349" on="1"/>
        <pt x="35" y="423" on="0"/>
        <pt x="91" y="554" on="0"/>
        <pt x="188" y="651" on="0"/>
        <pt x="318" y="708" on="0"/>
        <pt x="392" y="708" on="1"/>
        <pt x="466" y="708" on="0"/>
        <pt x="597" y="651" on="0"/>
        <pt x="694" y="554" on="0"/>
        <pt x="751" y="423" on="0"/>
        <pt x="751" y="349" on="1"/>
        <pt x="751" y="291" on="0"/>
        <pt x="716" y="186" on="0"/>
        <pt x="654" y="99" on="0"/>
        <pt x="567" y="33" on="0"/>
        <pt x="516" y="14" on="1"/>
        <pt x="773" y="14" on="1"/>
        <pt x="773" y="0" on="1"/>
        <pt x="466" y="0" on="1"/>
        <pt x="428" y="-8" on="0"/>
        <pt x="392" y="-8" on="1"/>
        <pt x="318" y="-8" on="0"/>
        <pt x="188" y="48" on="0"/>
        <pt x="91" y="145" on="0"/>
        <pt x="35" y="275" on="0"/>
      </contour>
    </TTGlyph>
    <TTGlyph name="R" xMin="35" yMin="0" xMax="534" yMax="700">
      <contour>
        <pt x="35" y="14" on="1"/>
        <pt x="106" y="14" on="1"/>
        <pt x="106" y="686" on="1"/>
        <pt x="35" y="686" on="1"/>
        <pt x="35" y="700" on="1"/>
        <pt x="246" y="700" on="1"/>
        <pt x="275" y="700" on="0"/>
        <pt x="345" y="680" on="0"/>
        <pt x="405" y="638" on="0"/>
        <pt x="446" y="570" on="0"/>
        <pt x="446" y="522" on="1"/>
        <pt x="446" y="453" on="0"/>
        <pt x="368" y="360" on="0"/>
        <pt x="294" y="346" on="1"/>
        <pt x="450" y="14" on="1"/>
        <pt x="534" y="14" on="1"/>
        <pt x="534" y="0" on="1"/>
        <pt x="442" y="0" on="1"/>
        <pt x="279" y="344" on="1"/>
        <pt x="256" y="341" on="0"/>
        <pt x="232" y="341" on="1"/>
        <pt x="120" y="341" on="1"/>
        <pt x="120" y="14" on="1"/>
        <pt x="209" y="14" on="1"/>
        <pt x="209" y="0" on="1"/>
        <pt x="35" y="0" on="1"/>
      </contour>
      <contour>
        <pt x="120" y="355" on="1"/>
        <pt x="235" y="355" on="1"/>
        <pt x="293" y="355" on="0"/>
        <pt x="369" y="387" on="0"/>
        <pt x="414" y="436" on="0"/>
        <pt x="432" y="495" on="0"/>
        <pt x="432" y="522" on="1"/>
        <pt x="432" y="555" on="0"/>
        <pt x="402" y="614" on="0"/>
        <pt x="349" y="659" on="0"/>
        <pt x="278" y="686" on="0"/>
        <pt x="236" y="686" on="1"/>
        <pt x="120" y="686" on="1"/>
      </contour>
    </TTGlyph>
    <TTGlyph name="S" xMin="46" yMin="-8" xMax="451" yMax="704">
      <contour>
        <pt x="46" y="64" on="1"/>
        <pt x="46" y="164" on="1"/>
        <pt x="60" y="164" on="1"/>
        <pt x="60" y="74" on="1"/>
        <pt x="89" y="45" on="0"/>
        <pt x="174" y="6" on="0"/>
        <pt x="236" y="6" on="1"/>
        <pt x="275" y="6" on="0"/>
        <pt x="347" y="31" on="0"/>
        <pt x="402" y="77" on="0"/>
        <pt x="436" y="142" on="0"/>
        <pt x="436" y="182" on="1"/>
        <pt x="436" y="228" on="0"/>
        <pt x="405" y="289" on="0"/>
        <pt x="355" y="328" on="0"/>
        <pt x="290" y="351" on="0"/>
        <pt x="222" y="370" on="0"/>
        <pt x="156" y="391" on="0"/>
        <pt x="103" y="424" on="0"/>
        <pt x="68" y="476" on="0"/>
        <pt x="66" y="517" on="1"/>
        <pt x="64" y="550" on="0"/>
        <pt x="83" y="617" on="0"/>
        <pt x="125" y="671" on="0"/>
        <pt x="191" y="704" on="0"/>
        <pt x="238" y="704" on="1"/>
        <pt x="254" y="704" on="0"/>
        <pt x="293" y="700" on="0"/>
        <pt x="332" y="691" on="0"/>
        <pt x="370" y="673" on="0"/>
        <pt x="386" y="660" on="1"/>
        <pt x="386" y="546" on="1"/>
        <pt x="372" y="546" on="1"/>
        <pt x="372" y="653" on="1"/>
        <pt x="352" y="668" on="0"/>
        <pt x="284" y="690" on="0"/>
        <pt x="236" y="690" on="1"/>
        <pt x="197" y="690" on="0"/>
        <pt x="138" y="663" on="0"/>
        <pt x="99" y="618" on="0"/>
        <pt x="80" y="561" on="0"/>
        <pt x="80" y="530" on="1"/>
        <pt x="80" y="476" on="0"/>
        <pt x="134" y="419" on="0"/>
        <pt x="215" y="386" on="0"/>
        <pt x="310" y="364" on="0"/>
        <pt x="393" y="323" on="0"/>
        <pt x="449" y="251" on="0"/>
        <pt x="450" y="186" on="1"/>
        <pt x="451" y="142" on="0"/>
        <pt x="418" y="70" on="0"/>
        <pt x="360" y="19" on="0"/>
        <pt x="282" y="-8" on="0"/>
        <pt x="238" y="-8" on="1"/>
        <pt x="198" y="-8" on="0"/>
        <pt x="135" y="8" on="0"/>
        <pt x="88" y="31" on="0"/>
        <pt x="55" y="55" on="0"/>
      </contour>
    </TTGlyph>
    <TTGlyph name="T" xMin="35" yMin="0" xMax="588" yMax="700">
      <contour>
        <pt x="225" y="14" on="1"/>
        <pt x="304" y="14" on="1"/>
        <pt x="304" y="686" on="1"/>
        <pt x="49" y="686" on="1"/>
        <pt x="49" y="546" on="1"/>
        <pt x="35" y="546" on="1"/>
        <pt x="35" y="700" on="1"/>
        <pt x="588" y="700" on="1"/>
        <pt x="588" y="546" on="1"/>
        <pt x="574" y="546" on="1"/>
        <pt x="574" y="686" on="1"/>
        <pt x="318" y="686" on="1"/>
        <pt x="318" y="14" on="1"/>
        <pt x="399" y="14" on="1"/>
        <pt x="399" y="0" on="1"/>
        <pt x="225" y="0" on="1"/>
      </contour>
    </TTGlyph>
    <TTGlyph name="Thorn" xMin="35" yMin="0" xMax="446" yMax="700">
      <contour>
        <pt x="35" y="14" on="1"/>
        <pt x="106" y="14" on="1"/>
        <pt x="106" y="686" on="1"/>
        <pt x="35" y="686" on="1"/>
        <pt x="35" y="700" on="1"/>
        <pt x="209" y="700" on="1"/>
        <pt x="209" y="686" on="1"/>
        <pt x="120" y="686" on="1"/>
        <pt x="120" y="535" on="1"/>
        <pt x="246" y="535" on="1"/>
        <pt x="275" y="535" on="0"/>
        <pt x="345" y="515" on="0"/>
        <pt x="405" y="473" on="0"/>
        <pt x="446" y="405" on="0"/>
        <pt x="446" y="357" on="1"/>
        <pt x="446" y="274" on="0"/>
        <pt x="335" y="176" on="0"/>
        <pt x="232" y="176" on="1"/>
        <pt x="120" y="176" on="1"/>
        <pt x="120" y="14" on="1"/>
        <pt x="209" y="14" on="1"/>
        <pt x="209" y="0" on="1"/>
        <pt x="35" y="0" on="1"/>
      </contour>
      <contour>
        <pt x="120" y="190" on="1"/>
        <pt x="235" y="190" on="1"/>
        <pt x="293" y="190" on="0"/>
        <pt x="369" y="222" on="0"/>
        <pt x="414" y="271" on="0"/>
        <pt x="432" y="330" on="0"/>
        <pt x="432" y="357" on="1"/>
        <pt x="432" y="390" on="0"/>
        <pt x="402" y="449" on="0"/>
        <pt x="349" y="494" on="0"/>
        <pt x="278" y="521" on="0"/>
        <pt x="236" y="521" on="1"/>
        <pt x="120" y="521" on="1"/>
      </contour>
    </TTGlyph>
    <TTGlyph name="U" xMin="35" yMin="-8" xMax="639" yMax="700">
      <contour>
        <pt x="35" y="700" on="1"/>
        <pt x="209" y="700" on="1"/>
        <pt x="209" y="686" on="1"/>
        <pt x="126" y="686" on="1"/>
        <pt x="126" y="229" on="1"/>
        <pt x="126" y="175" on="0"/>
        <pt x="157" y="92" on="0"/>
        <pt x="213" y="35" on="0"/>
        <pt x="291" y="6" on="0"/>
        <pt x="337" y="6" on="1"/>
        <pt x="382" y="6" on="0"/>
        <pt x="460" y="35" on="0"/>
        <pt x="516" y="92" on="0"/>
        <pt x="548" y="175" on="0"/>
        <pt x="548" y="229" on="1"/>
        <pt x="548" y="686" on="1"/>
        <pt x="465" y="686" on="1"/>
        <pt x="465" y="700" on="1"/>
        <pt x="639" y="700" on="1"/>
        <pt x="639" y="686" on="1"/>
        <pt x="562" y="686" on="1"/>
        <pt x="562" y="226" on="1"/>
        <pt x="562" y="169" on="0"/>
        <pt x="527" y="81" on="0"/>
        <pt x="467" y="22" on="0"/>
        <pt x="385" y="-8" on="0"/>
        <pt x="337" y="-8" on="1"/>
        <pt x="289" y="-8" on="0"/>
        <pt x="206" y="22" on="0"/>
        <pt x="146" y="81" on="0"/>
        <pt x="112" y="169" on="0"/>
        <pt x="112" y="226" on="1"/>
        <pt x="112" y="686" on="1"/>
        <pt x="35" y="686" on="1"/>
      </contour>
    </TTGlyph>
    <TTGlyph name="Uacute" xMin="35" yMin="-8" xMax="639" yMax="883">
      <component glyphName="U" x="0" y="0" flags="0x204"/>
      <component glyphName="acute" x="239" y="271" flags="0x4"/>
    </TTGlyph>
    <TTGlyph name="Ucircumflex" xMin="35" yMin="-8" xMax="639" yMax="931">
      <component glyphName="U" x="0" y="0" flags="0x204"/>
      <component glyphName="asciicircum" x="108" y="271" flags="0x4"/>
    </TTGlyph>
    <TTGlyph name="Udieresis" xMin="35" yMin="-8" xMax="639" yMax="811">
      <component glyphName="U" x="0" y="0" flags="0x204"/>
      <component glyphName="dieresis" x="151" y="291" flags="0x4"/>
    </TTGlyph>
    <TTGlyph name="Ugrave" xMin="35" yMin="-8" xMax="639" yMax="883">
      <component glyphName="U" x="0" y="0" flags="0x204"/>
      <component glyphName="grave" x="252" y="271" flags="0x4"/>
    </TTGlyph>
    <TTGlyph name="V" xMin="35" yMin="-32" xMax="809" yMax="700">
      <contour>
        <pt x="35" y="700" on="1"/>
        <pt x="209" y="700" on="1"/>
        <pt x="209" y="686" on="1"/>
        <pt x="133" y="686" on="1"/>
        <pt x="203" y="519" on="0"/>
        <pt x="343" y="191" on="0"/>
        <pt x="413" y="25" on="1"/>
        <pt x="422" y="0" on="1"/>
        <pt x="431" y="25" on="1"/>
        <pt x="501" y="191" on="0"/>
        <pt x="641" y="519" on="0"/>
        <pt x="711" y="686" on="1"/>
        <pt x="635" y="686" on="1"/>
        <pt x="635" y="700" on="1"/>
        <pt x="809" y="700" on="1"/>
        <pt x="809" y="686" on="1"/>
        <pt x="726" y="686" on="1"/>
        <pt x="650" y="505" on="0"/>
        <pt x="498" y="148" on="0"/>
        <pt x="422" y="-32" on="1"/>
        <pt x="346" y="148" on="0"/>
        <pt x="193" y="505" on="0"/>
        <pt x="117" y="686" on="1"/>
        <pt x="35" y="686" on="1"/>
      </contour>
    </TTGlyph>
    <TTGlyph name="W" xMin="35" yMin="-32" xMax="1185" yMax="700">
      <contour>
        <pt x="35" y="700" on="1"/>
        <pt x="209" y="700" on="1"/>
        <pt x="209" y="686" on="1"/>
        <pt x="133" y="686" on="1"/>
        <pt x="202" y="519" on="0"/>
        <pt x="341" y="190" on="0"/>
        <pt x="413" y="25" on="1"/>
        <pt x="422" y="0" on="1"/>
        <pt x="462" y="108" on="0"/>
        <pt x="555" y="319" on="0"/>
        <pt x="600" y="425" on="1"/>
        <pt x="573" y="490" on="0"/>
        <pt x="518" y="620" on="0"/>
        <pt x="490" y="686" on="1"/>
        <pt x="411" y="686" on="1"/>
        <pt x="411" y="700" on="1"/>
        <pt x="585" y="700" on="1"/>
        <pt x="585" y="686" on="1"/>
        <pt x="505" y="686" on="1"/>
        <pt x="574" y="519" on="0"/>
        <pt x="713" y="190" on="0"/>
        <pt x="785" y="25" on="1"/>
        <pt x="794" y="0" on="1"/>
        <pt x="803" y="25" on="1"/>
        <pt x="873" y="191" on="0"/>
        <pt x="1013" y="519" on="0"/>
        <pt x="1083" y="686" on="1"/>
        <pt x="1011" y="686" on="1"/>
        <pt x="1011" y="700" on="1"/>
        <pt x="1185" y="700" on="1"/>
        <pt x="1185" y="686" on="1"/>
        <pt x="1098" y="686" on="1"/>
        <pt x="1022" y="505" on="0"/>
        <pt x="870" y="148" on="0"/>
        <pt x="794" y="-32" on="1"/>
        <pt x="617" y="385" on="1"/>
        <pt x="608" y="407" on="1"/>
        <pt x="560" y="297" on="0"/>
        <pt x="469" y="78" on="0"/>
        <pt x="422" y="-32" on="1"/>
        <pt x="346" y="148" on="0"/>
        <pt x="193" y="505" on="0"/>
        <pt x="117" y="686" on="1"/>
        <pt x="35" y="686" on="1"/>
      </contour>
    </TTGlyph>
    <TTGlyph name="X" xMin="35" yMin="0" xMax="675" yMax="700">
      <contour>
        <pt x="35" y="700" on="1"/>
        <pt x="209" y="700" on="1"/>
        <pt x="209" y="686" on="1"/>
        <pt x="150" y="686" on="1"/>
        <pt x="201" y="609" on="0"/>
        <pt x="299" y="457" on="0"/>
        <pt x="349" y="381" on="1"/>
        <pt x="357" y="368" on="1"/>
        <pt x="365" y="381" on="1"/>
        <pt x="560" y="686" on="1"/>
        <pt x="501" y="686" on="1"/>
        <pt x="501" y="700" on="1"/>
        <pt x="675" y="700" on="1"/>
        <pt x="675" y="686" on="1"/>
        <pt x="576" y="686" on="1"/>
        <pt x="523" y="602" on="0"/>
        <pt x="418" y="439" on="0"/>
        <pt x="365" y="356" on="1"/>
        <pt x="421" y="269" on="0"/>
        <pt x="532" y="100" on="0"/>
        <pt x="588" y="14" on="1"/>
        <pt x="675" y="14" on="1"/>
        <pt x="675" y="0" on="1"/>
        <pt x="501" y="0" on="1"/>
        <pt x="501" y="14" on="1"/>
        <pt x="571" y="14" on="1"/>
        <pt x="397" y="279" on="1"/>
        <pt x="386" y="296" on="0"/>
        <pt x="365" y="332" on="0"/>
        <pt x="353" y="348" on="1"/>
        <pt x="345" y="335" on="1"/>
        <pt x="294" y="254" on="0"/>
        <pt x="190" y="95" on="0"/>
        <pt x="139" y="14" on="1"/>
        <pt x="209" y="14" on="1"/>
        <pt x="209" y="0" on="1"/>
        <pt x="35" y="0" on="1"/>
        <pt x="35" y="14" on="1"/>
        <pt x="124" y="14" on="1"/>
        <pt x="345" y="360" on="1"/>
        <pt x="134" y="686" on="1"/>
        <pt x="35" y="686" on="1"/>
      </contour>
    </TTGlyph>
    <TTGlyph name="Y" xMin="35" yMin="0" xMax="683" yMax="700">
      <contour>
        <pt x="273" y="14" on="1"/>
        <pt x="352" y="14" on="1"/>
        <pt x="352" y="262" on="1"/>
        <pt x="288" y="368" on="0"/>
        <pt x="161" y="580" on="0"/>
        <pt x="97" y="686" on="1"/>
        <pt x="35" y="686" on="1"/>
        <pt x="35" y="700" on="1"/>
        <pt x="209" y="700" on="1"/>
        <pt x="209" y="686" on="1"/>
        <pt x="114" y="686" on="1"/>
        <pt x="173" y="588" on="0"/>
        <pt x="290" y="396" on="0"/>
        <pt x="347" y="298" on="1"/>
        <pt x="359" y="272" on="1"/>
        <pt x="360" y="272" on="1"/>
        <pt x="371" y="298" on="1"/>
        <pt x="602" y="686" on="1"/>
        <pt x="509" y="686" on="1"/>
        <pt x="509" y="700" on="1"/>
        <pt x="683" y="700" on="1"/>
        <pt x="683" y="686" on="1"/>
        <pt x="619" y="686" on="1"/>
        <pt x="556" y="579" on="0"/>
        <pt x="429" y="368" on="0"/>
        <pt x="366" y="262" on="1"/>
        <pt x="366" y="14" on="1"/>
        <pt x="447" y="14" on="1"/>
        <pt x="447" y="0" on="1"/>
        <pt x="273" y="0" on="1"/>
      </contour>
    </TTGlyph>
    <TTGlyph name="Yacute" xMin="35" yMin="0" xMax="683" yMax="883">
      <component glyphName="Y" x="0" y="0" flags="0x204"/>
      <component glyphName="acute" x="272" y="271" flags="0x4"/>
    </TTGlyph>
    <TTGlyph name="Z" xMin="35" yMin="0" xMax="594" yMax="735">
      <contour>
        <pt x="594" y="174" on="1"/>
        <pt x="594" y="0" on="1"/>
        <pt x="35" y="0" on="1"/>
        <pt x="35" y="14" on="1"/>
        <pt x="545" y="686" on="1"/>
        <pt x="52" y="686" on="1"/>
        <pt x="52" y="735" on="1"/>
        <pt x="68" y="735" on="1"/>
        <pt x="68" y="700" on="1"/>
        <pt x="565" y="700" on="1"/>
        <pt x="565" y="686" on="1"/>
        <pt x="55" y="14" on="1"/>
        <pt x="580" y="14" on="1"/>
        <pt x="580" y="174" on="1"/>
      </contour>
    </TTGlyph>
    <TTGlyph name="a" xMin="35" yMin="-6" xMax="497" yMax="383">
      <contour>
        <pt x="35" y="188" on="1"/>
        <pt x="35" y="228" on="0"/>
        <pt x="65" y="300" on="0"/>
        <pt x="118" y="352" on="0"/>
        <pt x="188" y="383" on="0"/>
        <pt x="229" y="383" on="1"/>
        <pt x="291" y="383" on="0"/>
        <pt x="388" y="314" on="0"/>
        <pt x="410" y="260" on="1"/>
        <pt x="410" y="289" on="0"/>
        <pt x="412" y="346" on="0"/>
        <pt x="414" y="375" on="1"/>
        <pt x="424" y="375" on="1"/>
        <pt x="424" y="14" on="1"/>
        <pt x="497" y="14" on="1"/>
        <pt x="497" y="0" on="1"/>
        <pt x="410" y="0" on="1"/>
        <pt x="410" y="54" on="1"/>
        <pt x="410" y="70" on="0"/>
        <pt x="411" y="101" on="0"/>
        <pt x="411" y="117" on="1"/>
        <pt x="400" y="90" on="0"/>
        <pt x="364" y="45" on="0"/>
        <pt x="317" y="12" on="0"/>
        <pt x="260" y="-6" on="0"/>
        <pt x="229" y="-6" on="1"/>
        <pt x="188" y="-6" on="0"/>
        <pt x="118" y="24" on="0"/>
        <pt x="65" y="77" on="0"/>
        <pt x="35" y="147" on="0"/>
      </contour>
      <contour>
        <pt x="49" y="188" on="1"/>
        <pt x="49" y="150" on="0"/>
        <pt x="77" y="85" on="0"/>
        <pt x="126" y="36" on="0"/>
        <pt x="191" y="8" on="0"/>
        <pt x="229" y="8" on="1"/>
        <pt x="266" y="8" on="0"/>
        <pt x="332" y="36" on="0"/>
        <pt x="382" y="85" on="0"/>
        <pt x="410" y="150" on="0"/>
        <pt x="410" y="188" on="1"/>
        <pt x="410" y="225" on="0"/>
        <pt x="382" y="291" on="0"/>
        <pt x="332" y="341" on="0"/>
        <pt x="266" y="369" on="0"/>
        <pt x="229" y="369" on="1"/>
        <pt x="191" y="369" on="0"/>
        <pt x="126" y="341" on="0"/>
        <pt x="77" y="291" on="0"/>
        <pt x="49" y="225" on="0"/>
      </contour>
    </TTGlyph>
    <TTGlyph name="aacute" xMin="35" yMin="-6" xMax="497" yMax="612">
      <component glyphName="a" x="0" y="0" flags="0x204"/>
      <component glyphName="acute" x="132" y="0" flags="0x4"/>
    </TTGlyph>
    <TTGlyph name="acircumflex" xMin="35" yMin="-6" xMax="497" yMax="660">
      <component glyphName="a" x="0" y="0" flags="0x204"/>
      <component glyphName="asciicircum" x="29" y="0" flags="0x4"/>
    </TTGlyph>
    <TTGlyph name="acute" xMin="100" yMin="479" xMax="206" yMax="612">
      <contour>
        <pt x="100" y="479" on="1"/>
        <pt x="123" y="512" on="0"/>
        <pt x="167" y="579" on="0"/>
        <pt x="190" y="612" on="1"/>
        <pt x="206" y="612" on="1"/>
        <pt x="183" y="579" on="0"/>
        <pt x="139" y="512" on="0"/>
        <pt x="116" y="479" on="1"/>
      </contour>
    </TTGlyph>
    <TTGlyph name="adieresis" xMin="35" yMin="-6" xMax="497" yMax="520">
      <component glyphName="a" x="0" y="0" flags="0x204"/>
      <component glyphName="dieresis" x="57" y="0" flags="0x4"/>
    </TTGlyph>
    <TTGlyph name="ae" xMin="35" yMin="-10" xMax="545" yMax="381">
      <contour>
        <pt x="346" y="241" on="1"/>
        <pt x="346" y="191" on="1"/>
        <pt x="391" y="209" on="0"/>
        <pt x="482" y="246" on="0"/>
        <pt x="527" y="264" on="1"/>
        <pt x="507" y="310" on="0"/>
        <pt x="426" y="367" on="0"/>
        <pt x="376" y="367" on="1"/>
        <pt x="342" y="367" on="0"/>
        <pt x="310" y="354" on="1"/>
        <pt x="330" y="338" on="0"/>
        <pt x="346" y="283" on="0"/>
      </contour>
      <contour>
        <pt x="332" y="177" on="1"/>
        <pt x="238" y="177" on="1"/>
        <pt x="222" y="177" on="0"/>
        <pt x="159" y="178" on="0"/>
        <pt x="96" y="165" on="0"/>
        <pt x="49" y="131" on="0"/>
        <pt x="49" y="97" on="1"/>
        <pt x="49" y="68" on="0"/>
        <pt x="77" y="31" on="0"/>
        <pt x="120" y="11" on="0"/>
        <pt x="171" y="4" on="0"/>
        <pt x="194" y="4" on="1"/>
        <pt x="219" y="4" on="0"/>
        <pt x="269" y="13" on="0"/>
        <pt x="308" y="36" on="0"/>
        <pt x="332" y="75" on="0"/>
        <pt x="332" y="105" on="1"/>
      </contour>
      <contour>
        <pt x="80" y="332" on="1"/>
        <pt x="77" y="335" on="0"/>
        <pt x="70" y="341" on="0"/>
        <pt x="67" y="344" on="1"/>
        <pt x="76" y="352" on="0"/>
        <pt x="105" y="365" on="0"/>
        <pt x="139" y="375" on="0"/>
        <pt x="175" y="381" on="0"/>
        <pt x="191" y="381" on="1"/>
        <pt x="262" y="381" on="0"/>
        <pt x="296" y="364" on="1"/>
        <pt x="333" y="381" on="0"/>
        <pt x="376" y="381" on="1"/>
        <pt x="434" y="381" on="0"/>
        <pt x="525" y="312" on="0"/>
        <pt x="545" y="257" on="1"/>
        <pt x="495" y="237" on="0"/>
        <pt x="396" y="196" on="0"/>
        <pt x="346" y="176" on="1"/>
        <pt x="346" y="128" on="1"/>
        <pt x="346" y="89" on="0"/>
        <pt x="328" y="38" on="0"/>
        <pt x="305" y="20" on="1"/>
        <pt x="339" y="6" on="0"/>
        <pt x="376" y="6" on="1"/>
        <pt x="412" y="6" on="0"/>
        <pt x="476" y="32" on="0"/>
        <pt x="500" y="55" on="1"/>
        <pt x="502" y="52" on="0"/>
        <pt x="507" y="47" on="0"/>
        <pt x="509" y="44" on="1"/>
        <pt x="483" y="20" on="0"/>
        <pt x="415" y="-8" on="0"/>
        <pt x="376" y="-8" on="1"/>
        <pt x="329" y="-8" on="0"/>
        <pt x="292" y="10" on="1"/>
        <pt x="255" y="-10" on="0"/>
        <pt x="192" y="-10" on="1"/>
        <pt x="157" y="-10" on="0"/>
        <pt x="99" y="0" on="0"/>
        <pt x="58" y="24" on="0"/>
        <pt x="35" y="65" on="0"/>
        <pt x="35" y="96" on="1"/>
        <pt x="35" y="123" on="0"/>
        <pt x="61" y="159" on="0"/>
        <pt x="103" y="182" on="0"/>
        <pt x="157" y="191" on="0"/>
        <pt x="186" y="191" on="1"/>
        <pt x="332" y="191" on="1"/>
        <pt x="332" y="243" on="1"/>
        <pt x="332" y="274" on="0"/>
        <pt x="322" y="321" on="0"/>
        <pt x="292" y="352" on="0"/>
        <pt x="236" y="367" on="0"/>
        <pt x="190" y="367" on="1"/>
        <pt x="176" y="367" on="0"/>
        <pt x="144" y="361" on="0"/>
        <pt x="114" y="351" on="0"/>
        <pt x="88" y="338" on="0"/>
      </contour>
    </TTGlyph>
    <TTGlyph name="agrave" xMin="35" yMin="-6" xMax="497" yMax="612">
      <component glyphName="a" x="0" y="0" flags="0x204"/>
      <component glyphName="grave" x="157" y="0" flags="0x4"/>
    </TTGlyph>
    <TTGlyph name="ampersand" xMin="106" yMin="-19" xMax="601" yMax="750">
      <contour>
        <pt x="481" y="375" on="1"/>
        <pt x="601" y="375" on="1"/>
        <pt x="601" y="361" on="1"/>
        <pt x="495" y="361" on="1"/>
        <pt x="495" y="274" on="1"/>
        <pt x="495" y="249" on="0"/>
        <pt x="496" y="200" on="0"/>
        <pt x="491" y="152" on="0"/>
        <pt x="479" y="106" on="0"/>
        <pt x="466" y="84" on="1"/>
        <pt x="525" y="-11" on="1"/>
        <pt x="514" y="-19" on="1"/>
        <pt x="457" y="72" on="1"/>
        <pt x="431" y="36" on="0"/>
        <pt x="349" y="-7" on="0"/>
        <pt x="300" y="-7" on="1"/>
        <pt x="259" y="-7" on="0"/>
        <pt x="189" y="23" on="0"/>
        <pt x="136" y="76" on="0"/>
        <pt x="106" y="146" on="0"/>
        <pt x="106" y="187" on="1"/>
        <pt x="106" y="223" on="0"/>
        <pt x="131" y="288" on="0"/>
        <pt x="174" y="339" on="0"/>
        <pt x="234" y="373" on="0"/>
        <pt x="269" y="379" on="1"/>
        <pt x="197" y="496" on="1"/>
        <pt x="179" y="526" on="0"/>
        <pt x="164" y="590" on="0"/>
        <pt x="174" y="652" on="0"/>
        <pt x="210" y="706" on="0"/>
        <pt x="243" y="726" on="1"/>
        <pt x="271" y="743" on="0"/>
        <pt x="330" y="750" on="0"/>
        <pt x="386" y="740" on="0"/>
        <pt x="435" y="718" on="0"/>
        <pt x="454" y="706" on="1"/>
        <pt x="448" y="693" on="1"/>
        <pt x="425" y="706" on="0"/>
        <pt x="377" y="728" on="0"/>
        <pt x="327" y="738" on="0"/>
        <pt x="276" y="731" on="0"/>
        <pt x="251" y="715" on="1"/>
        <pt x="220" y="695" on="0"/>
        <pt x="186" y="645" on="0"/>
        <pt x="177" y="590" on="0"/>
        <pt x="191" y="531" on="0"/>
        <pt x="208" y="504" on="1"/>
        <pt x="457" y="98" on="1"/>
        <pt x="468" y="118" on="0"/>
        <pt x="481" y="162" on="0"/>
        <pt x="481" y="187" on="1"/>
      </contour>
      <contour>
        <pt x="120" y="187" on="1"/>
        <pt x="120" y="149" on="0"/>
        <pt x="148" y="84" on="0"/>
        <pt x="197" y="35" on="0"/>
        <pt x="262" y="7" on="0"/>
        <pt x="300" y="7" on="1"/>
        <pt x="347" y="7" on="0"/>
        <pt x="425" y="50" on="0"/>
        <pt x="449" y="85" on="1"/>
        <pt x="277" y="366" on="1"/>
        <pt x="244" y="362" on="0"/>
        <pt x="186" y="331" on="0"/>
        <pt x="144" y="283" on="0"/>
        <pt x="120" y="221" on="0"/>
      </contour>
    </TTGlyph>
    <TTGlyph name="aring" xMin="35" yMin="-6" xMax="497" yMax="603">
      <component glyphName="a" x="0" y="0" flags="0x204"/>
      <component glyphName="ring" x="45" y="0" flags="0x4"/>
    </TTGlyph>
    <TTGlyph name="asciicircum" xMin="112" yMin="479" xMax="352" yMax="660">
      <contour>
        <pt x="232" y="660" on="1"/>
        <pt x="262" y="615" on="0"/>
        <pt x="322" y="524" on="0"/>
        <pt x="352" y="479" on="1"/>
        <pt x="336" y="479" on="1"/>
        <pt x="310" y="517" on="0"/>
        <pt x="258" y="595" on="0"/>
        <pt x="232" y="633" on="1"/>
        <pt x="206" y="595" on="0"/>
        <pt x="154" y="517" on="0"/>
        <pt x="128" y="479" on="1"/>
        <pt x="112" y="479" on="1"/>
        <pt x="142" y="524" on="0"/>
        <pt x="202" y="615" on="0"/>
      </contour>
    </TTGlyph>
    <TTGlyph name="asciitilde" xMin="132" yMin="459" xMax="416" yMax="541">
      <contour>
        <pt x="265" y="497" on="1"/>
        <pt x="249" y="515" on="0"/>
        <pt x="225" y="527" on="0"/>
        <pt x="211" y="527" on="1"/>
        <pt x="203" y="527" on="0"/>
        <pt x="182" y="522" on="0"/>
        <pt x="162" y="510" on="0"/>
        <pt x="147" y="489" on="0"/>
        <pt x="145" y="472" on="1"/>
        <pt x="142" y="473" on="0"/>
        <pt x="135" y="473" on="0"/>
        <pt x="132" y="474" on="1"/>
        <pt x="133" y="492" on="0"/>
        <pt x="149" y="518" on="0"/>
        <pt x="172" y="534" on="0"/>
        <pt x="200" y="541" on="0"/>
        <pt x="214" y="541" on="1"/>
        <pt x="234" y="541" on="0"/>
        <pt x="267" y="520" on="0"/>
        <pt x="283" y="503" on="1"/>
        <pt x="299" y="485" on="0"/>
        <pt x="323" y="473" on="0"/>
        <pt x="337" y="473" on="1"/>
        <pt x="345" y="473" on="0"/>
        <pt x="366" y="478" on="0"/>
        <pt x="386" y="490" on="0"/>
        <pt x="401" y="511" on="0"/>
        <pt x="403" y="528" on="1"/>
        <pt x="406" y="527" on="0"/>
        <pt x="413" y="527" on="0"/>
        <pt x="416" y="526" on="1"/>
        <pt x="415" y="508" on="0"/>
        <pt x="399" y="482" on="0"/>
        <pt x="376" y="466" on="0"/>
        <pt x="348" y="459" on="0"/>
        <pt x="334" y="459" on="1"/>
        <pt x="314" y="459" on="0"/>
        <pt x="281" y="480" on="0"/>
      </contour>
    </TTGlyph>
    <TTGlyph name="asterisk" xMin="39" yMin="434" xMax="295" yMax="720">
      <contour>
        <pt x="182" y="575" on="1"/>
        <pt x="210" y="559" on="0"/>
        <pt x="266" y="527" on="0"/>
        <pt x="294" y="511" on="1"/>
        <pt x="285" y="496" on="1"/>
        <pt x="174" y="562" on="1"/>
        <pt x="173" y="530" on="0"/>
        <pt x="173" y="466" on="0"/>
        <pt x="172" y="434" on="1"/>
        <pt x="158" y="434" on="1"/>
        <pt x="158" y="561" on="1"/>
        <pt x="130" y="545" on="0"/>
        <pt x="76" y="514" on="0"/>
        <pt x="48" y="498" on="1"/>
        <pt x="39" y="513" on="1"/>
        <pt x="150" y="576" on="1"/>
        <pt x="39" y="642" on="1"/>
        <pt x="41" y="645" on="0"/>
        <pt x="44" y="651" on="0"/>
        <pt x="46" y="654" on="1"/>
        <pt x="74" y="637" on="0"/>
        <pt x="130" y="606" on="0"/>
        <pt x="158" y="589" on="1"/>
        <pt x="158" y="720" on="1"/>
        <pt x="176" y="720" on="1"/>
        <pt x="175" y="687" on="0"/>
        <pt x="175" y="622" on="0"/>
        <pt x="174" y="589" on="1"/>
        <pt x="203" y="605" on="0"/>
        <pt x="259" y="637" on="0"/>
        <pt x="288" y="653" on="1"/>
        <pt x="290" y="650" on="0"/>
        <pt x="293" y="644" on="0"/>
        <pt x="295" y="641" on="1"/>
        <pt x="266" y="624" on="0"/>
        <pt x="211" y="592" on="0"/>
      </contour>
    </TTGlyph>
    <TTGlyph name="at" xMin="94" yMin="-207" xMax="885" yMax="585">
      <contour>
        <pt x="310" y="188" on="1"/>
        <pt x="310" y="150" on="0"/>
        <pt x="338" y="85" on="0"/>
        <pt x="387" y="36" on="0"/>
        <pt x="452" y="8" on="0"/>
        <pt x="490" y="8" on="1"/>
        <pt x="527" y="8" on="0"/>
        <pt x="593" y="36" on="0"/>
        <pt x="643" y="85" on="0"/>
        <pt x="671" y="150" on="0"/>
        <pt x="671" y="188" on="1"/>
        <pt x="671" y="225" on="0"/>
        <pt x="643" y="291" on="0"/>
        <pt x="593" y="341" on="0"/>
        <pt x="527" y="369" on="0"/>
        <pt x="490" y="369" on="1"/>
        <pt x="452" y="369" on="0"/>
        <pt x="387" y="341" on="0"/>
        <pt x="338" y="291" on="0"/>
        <pt x="310" y="225" on="0"/>
      </contour>
      <contour>
        <pt x="885" y="188" on="1"/>
        <pt x="883" y="129" on="0"/>
        <pt x="859" y="55" on="0"/>
        <pt x="821" y="14" on="0"/>
        <pt x="774" y="0" on="0"/>
        <pt x="749" y="0" on="1"/>
        <pt x="671" y="0" on="1"/>
        <pt x="671" y="54" on="1"/>
        <pt x="671" y="70" on="0"/>
        <pt x="672" y="101" on="0"/>
        <pt x="672" y="117" on="1"/>
        <pt x="661" y="90" on="0"/>
        <pt x="625" y="45" on="0"/>
        <pt x="578" y="12" on="0"/>
        <pt x="521" y="-6" on="0"/>
        <pt x="490" y="-6" on="1"/>
        <pt x="449" y="-6" on="0"/>
        <pt x="379" y="24" on="0"/>
        <pt x="326" y="77" on="0"/>
        <pt x="296" y="147" on="0"/>
        <pt x="296" y="188" on="1"/>
        <pt x="296" y="228" on="0"/>
        <pt x="326" y="300" on="0"/>
        <pt x="379" y="352" on="0"/>
        <pt x="449" y="383" on="0"/>
        <pt x="490" y="383" on="1"/>
        <pt x="552" y="383" on="0"/>
        <pt x="649" y="314" on="0"/>
        <pt x="671" y="260" on="1"/>
        <pt x="671" y="289" on="0"/>
        <pt x="673" y="346" on="0"/>
        <pt x="675" y="375" on="1"/>
        <pt x="685" y="375" on="1"/>
        <pt x="685" y="13" on="1"/>
        <pt x="756" y="13" on="1"/>
        <pt x="810" y="13" on="0"/>
        <pt x="869" y="97" on="0"/>
        <pt x="871" y="188" on="1"/>
        <pt x="871" y="267" on="0"/>
        <pt x="811" y="407" on="0"/>
        <pt x="707" y="511" on="0"/>
        <pt x="568" y="571" on="0"/>
        <pt x="489" y="571" on="1"/>
        <pt x="410" y="571" on="0"/>
        <pt x="271" y="511" on="0"/>
        <pt x="168" y="407" on="0"/>
        <pt x="108" y="267" on="0"/>
        <pt x="108" y="188" on="1"/>
        <pt x="108" y="109" on="0"/>
        <pt x="168" y="-30" on="0"/>
        <pt x="271" y="-133" on="0"/>
        <pt x="410" y="-193" on="0"/>
        <pt x="489" y="-193" on="1"/>
        <pt x="551" y="-193" on="0"/>
        <pt x="661" y="-155" on="0"/>
        <pt x="708" y="-123" on="1"/>
        <pt x="710" y="-126" on="0"/>
        <pt x="715" y="-131" on="0"/>
        <pt x="717" y="-134" on="1"/>
        <pt x="667" y="-168" on="0"/>
        <pt x="555" y="-207" on="0"/>
        <pt x="489" y="-207" on="1"/>
        <pt x="407" y="-207" on="0"/>
        <pt x="263" y="-145" on="0"/>
        <pt x="156" y="-37" on="0"/>
        <pt x="94" y="107" on="0"/>
        <pt x="94" y="189" on="1"/>
        <pt x="94" y="271" on="0"/>
        <pt x="156" y="415" on="0"/>
        <pt x="263" y="523" on="0"/>
        <pt x="407" y="585" on="0"/>
        <pt x="489" y="585" on="1"/>
        <pt x="571" y="585" on="0"/>
        <pt x="715" y="523" on="0"/>
        <pt x="823" y="415" on="0"/>
        <pt x="885" y="270" on="0"/>
      </contour>
    </TTGlyph>
    <TTGlyph name="atilde" xMin="35" yMin="-6" xMax="497" yMax="541">
      <component glyphName="a" x="0" y="0" flags="0x204"/>
      <component glyphName="asciitilde" x="-40" y="0" flags="0x4"/>
    </TTGlyph>
    <TTGlyph name="b" xMin="35" yMin="-6" xMax="497" yMax="750">
      <contour>
        <pt x="35" y="14" on="1"/>
        <pt x="108" y="14" on="1"/>
        <pt x="108" y="736" on="1"/>
        <pt x="35" y="736" on="1"/>
        <pt x="35" y="750" on="1"/>
        <pt x="122" y="750" on="1"/>
        <pt x="122" y="321" on="1"/>
        <pt x="122" y="260" on="1"/>
        <pt x="132" y="287" on="0"/>
        <pt x="168" y="332" on="0"/>
        <pt x="215" y="365" on="0"/>
        <pt x="272" y="383" on="0"/>
        <pt x="303" y="383" on="1"/>
        <pt x="343" y="383" on="0"/>
        <pt x="414" y="352" on="0"/>
        <pt x="467" y="300" on="0"/>
        <pt x="497" y="228" on="0"/>
        <pt x="497" y="188" on="1"/>
        <pt x="497" y="147" on="0"/>
        <pt x="467" y="77" on="0"/>
        <pt x="414" y="24" on="0"/>
        <pt x="343" y="-6" on="0"/>
        <pt x="303" y="-6" on="1"/>
        <pt x="272" y="-6" on="0"/>
        <pt x="215" y="12" on="0"/>
        <pt x="168" y="45" on="0"/>
        <pt x="131" y="90" on="0"/>
        <pt x="121" y="117" on="1"/>
        <pt x="121" y="101" on="0"/>
        <pt x="122" y="70" on="0"/>
        <pt x="122" y="54" on="1"/>
        <pt x="122" y="0" on="1"/>
        <pt x="35" y="0" on="1"/>
      </contour>
      <contour>
        <pt x="483" y="188" on="1"/>
        <pt x="483" y="225" on="0"/>
        <pt x="455" y="291" on="0"/>
        <pt x="406" y="341" on="0"/>
        <pt x="340" y="369" on="0"/>
        <pt x="303" y="369" on="1"/>
        <pt x="265" y="369" on="0"/>
        <pt x="200" y="341" on="0"/>
        <pt x="150" y="291" on="0"/>
        <pt x="122" y="225" on="0"/>
        <pt x="122" y="188" on="1"/>
        <pt x="122" y="150" on="0"/>
        <pt x="150" y="85" on="0"/>
        <pt x="200" y="36" on="0"/>
        <pt x="265" y="8" on="0"/>
        <pt x="303" y="8" on="1"/>
        <pt x="340" y="8" on="0"/>
        <pt x="406" y="36" on="0"/>
        <pt x="455" y="85" on="0"/>
        <pt x="483" y="150" on="0"/>
      </contour>
    </TTGlyph>
    <TTGlyph name="backslash" xMin="17" yMin="-19" xMax="309" yMax="736">
      <contour>
        <pt x="31" y="736" on="1"/>
        <pt x="101" y="546" on="0"/>
        <pt x="239" y="171" on="0"/>
        <pt x="309" y="-19" on="1"/>
        <pt x="295" y="-19" on="1"/>
        <pt x="225" y="171" on="0"/>
        <pt x="87" y="546" on="0"/>
        <pt x="17" y="736" on="1"/>
      </contour>
    </TTGlyph>
    <TTGlyph name="bar" xMin="99" yMin="-232" xMax="113" yMax="700">
      <contour>
        <pt x="99" y="-232" on="1"/>
        <pt x="99" y="700" on="1"/>
        <pt x="113" y="700" on="1"/>
        <pt x="113" y="-232" on="1"/>
      </contour>
    </TTGlyph>
    <TTGlyph name="braceleft" xMin="30" yMin="-148" xMax="232" yMax="746">
      <contour>
        <pt x="30" y="287" on="1"/>
        <pt x="30" y="311" on="1"/>
        <pt x="54" y="312" on="0"/>
        <pt x="85" y="339" on="0"/>
        <pt x="103" y="379" on="0"/>
        <pt x="109" y="426" on="0"/>
        <pt x="109" y="446" on="1"/>
        <pt x="109" y="628" on="1"/>
        <pt x="109" y="673" on="0"/>
        <pt x="124" y="722" on="0"/>
        <pt x="148" y="743" on="0"/>
        <pt x="179" y="746" on="0"/>
        <pt x="195" y="746" on="1"/>
        <pt x="232" y="746" on="1"/>
        <pt x="232" y="732" on="1"/>
        <pt x="175" y="732" on="1"/>
        <pt x="144" y="732" on="0"/>
        <pt x="123" y="680" on="0"/>
        <pt x="123" y="620" on="1"/>
        <pt x="123" y="470" on="1"/>
        <pt x="123" y="423" on="0"/>
        <pt x="112" y="363" on="0"/>
        <pt x="94" y="326" on="0"/>
        <pt x="70" y="306" on="0"/>
        <pt x="57" y="299" on="1"/>
        <pt x="70" y="291" on="0"/>
        <pt x="94" y="271" on="0"/>
        <pt x="112" y="233" on="0"/>
        <pt x="123" y="174" on="0"/>
        <pt x="123" y="128" on="1"/>
        <pt x="123" y="-22" on="1"/>
        <pt x="123" y="-82" on="0"/>
        <pt x="144" y="-134" on="0"/>
        <pt x="175" y="-134" on="1"/>
        <pt x="232" y="-134" on="1"/>
        <pt x="232" y="-148" on="1"/>
        <pt x="195" y="-148" on="1"/>
        <pt x="175" y="-148" on="0"/>
        <pt x="143" y="-144" on="0"/>
        <pt x="121" y="-116" on="0"/>
        <pt x="109" y="-53" on="0"/>
        <pt x="109" y="6" on="1"/>
        <pt x="109" y="152" on="1"/>
        <pt x="109" y="172" on="0"/>
        <pt x="103" y="219" on="0"/>
        <pt x="85" y="259" on="0"/>
        <pt x="54" y="286" on="0"/>
      </contour>
    </TTGlyph>
    <TTGlyph name="braceright" xMin="88" yMin="-148" xMax="290" yMax="746">
      <contour>
        <pt x="290" y="311" on="1"/>
        <pt x="290" y="287" on="1"/>
        <pt x="258" y="285" on="0"/>
        <pt x="226" y="244" on="0"/>
        <pt x="212" y="189" on="0"/>
        <pt x="211" y="133" on="0"/>
        <pt x="211" y="116" on="1"/>
        <pt x="211" y="-30" on="1"/>
        <pt x="211" y="-76" on="0"/>
        <pt x="196" y="-125" on="0"/>
        <pt x="172" y="-146" on="0"/>
        <pt x="141" y="-148" on="0"/>
        <pt x="125" y="-148" on="1"/>
        <pt x="88" y="-148" on="1"/>
        <pt x="88" y="-134" on="1"/>
        <pt x="145" y="-134" on="1"/>
        <pt x="176" y="-134" on="0"/>
        <pt x="197" y="-82" on="0"/>
        <pt x="197" y="-22" on="1"/>
        <pt x="197" y="165" on="1"/>
        <pt x="197" y="199" on="0"/>
        <pt x="211" y="245" on="0"/>
        <pt x="231" y="276" on="0"/>
        <pt x="254" y="294" on="0"/>
        <pt x="263" y="299" on="1"/>
        <pt x="250" y="306" on="0"/>
        <pt x="226" y="326" on="0"/>
        <pt x="208" y="363" on="0"/>
        <pt x="197" y="423" on="0"/>
        <pt x="197" y="470" on="1"/>
        <pt x="197" y="620" on="1"/>
        <pt x="197" y="680" on="0"/>
        <pt x="176" y="732" on="0"/>
        <pt x="145" y="732" on="1"/>
        <pt x="88" y="732" on="1"/>
        <pt x="88" y="746" on="1"/>
        <pt x="125" y="746" on="1"/>
        <pt x="141" y="746" on="0"/>
        <pt x="172" y="743" on="0"/>
        <pt x="196" y="722" on="0"/>
        <pt x="211" y="674" on="0"/>
        <pt x="211" y="628" on="1"/>
        <pt x="211" y="482" on="1"/>
        <pt x="211" y="470" on="0"/>
        <pt x="211" y="437" on="0"/>
        <pt x="215" y="399" on="0"/>
        <pt x="223" y="362" on="0"/>
        <pt x="241" y="332" on="0"/>
        <pt x="269" y="312" on="0"/>
      </contour>
    </TTGlyph>
    <TTGlyph name="bracketleft" xMin="83" yMin="-149" xMax="246" yMax="746">
      <contour>
        <pt x="83" y="-149" on="1"/>
        <pt x="83" y="746" on="1"/>
        <pt x="246" y="746" on="1"/>
        <pt x="246" y="732" on="1"/>
        <pt x="99" y="732" on="1"/>
        <pt x="99" y="-135" on="1"/>
        <pt x="246" y="-135" on="1"/>
        <pt x="246" y="-149" on="1"/>
      </contour>
    </TTGlyph>
    <TTGlyph name="bracketright" xMin="88" yMin="-149" xMax="251" yMax="746">
      <contour>
        <pt x="251" y="746" on="1"/>
        <pt x="251" y="-149" on="1"/>
        <pt x="88" y="-149" on="1"/>
        <pt x="88" y="-135" on="1"/>
        <pt x="235" y="-135" on="1"/>
        <pt x="235" y="732" on="1"/>
        <pt x="88" y="732" on="1"/>
        <pt x="88" y="746" on="1"/>
      </contour>
    </TTGlyph>
    <TTGlyph name="brokenbar" xMin="102" yMin="-233" xMax="116" yMax="700">
      <contour>
        <pt x="116" y="-233" on="1"/>
        <pt x="102" y="-233" on="1"/>
        <pt x="102" y="117" on="1"/>
        <pt x="116" y="117" on="1"/>
      </contour>
      <contour>
        <pt x="116" y="350" on="1"/>
        <pt x="102" y="350" on="1"/>
        <pt x="102" y="700" on="1"/>
        <pt x="116" y="700" on="1"/>
      </contour>
    </TTGlyph>
    <TTGlyph name="bullet" xMin="174" yMin="235" xMax="305" yMax="366">
      <contour>
        <pt x="174" y="300" on="1"/>
        <pt x="174" y="328" on="0"/>
        <pt x="212" y="366" on="0"/>
        <pt x="239" y="366" on="1"/>
        <pt x="267" y="366" on="0"/>
        <pt x="305" y="328" on="0"/>
        <pt x="305" y="300" on="1"/>
        <pt x="305" y="273" on="0"/>
        <pt x="267" y="235" on="0"/>
        <pt x="239" y="235" on="1"/>
        <pt x="212" y="235" on="0"/>
        <pt x="174" y="273" on="0"/>
      </contour>
    </TTGlyph>
    <TTGlyph name="c" xMin="35" yMin="-6" xMax="352" yMax="383">
      <contour>
        <pt x="352" y="37" on="1"/>
        <pt x="326" y="17" on="0"/>
        <pt x="264" y="-6" on="0"/>
        <pt x="229" y="-6" on="1"/>
        <pt x="188" y="-6" on="0"/>
        <pt x="118" y="24" on="0"/>
        <pt x="65" y="77" on="0"/>
        <pt x="35" y="147" on="0"/>
        <pt x="35" y="188" on="1"/>
        <pt x="35" y="228" on="0"/>
        <pt x="65" y="300" on="0"/>
        <pt x="118" y="352" on="0"/>
        <pt x="188" y="383" on="0"/>
        <pt x="229" y="383" on="1"/>
        <pt x="264" y="383" on="0"/>
        <pt x="327" y="360" on="0"/>
        <pt x="352" y="340" on="1"/>
        <pt x="352" y="253" on="1"/>
        <pt x="338" y="253" on="1"/>
        <pt x="338" y="332" on="1"/>
        <pt x="315" y="349" on="0"/>
        <pt x="260" y="369" on="0"/>
        <pt x="229" y="369" on="1"/>
        <pt x="191" y="369" on="0"/>
        <pt x="126" y="341" on="0"/>
        <pt x="77" y="291" on="0"/>
        <pt x="49" y="225" on="0"/>
        <pt x="49" y="188" on="1"/>
        <pt x="49" y="150" on="0"/>
        <pt x="77" y="85" on="0"/>
        <pt x="126" y="36" on="0"/>
        <pt x="191" y="8" on="0"/>
        <pt x="229" y="8" on="1"/>
        <pt x="261" y="8" on="0"/>
        <pt x="319" y="29" on="0"/>
        <pt x="342" y="47" on="1"/>
      </contour>
    </TTGlyph>
    <TTGlyph name="ccedilla" xMin="35" yMin="-223" xMax="352" yMax="383">
      <contour>
        <pt x="342" y="47" on="1"/>
        <pt x="352" y="37" on="1"/>
        <pt x="350" y="36" on="0"/>
        <pt x="315" y="18" on="0"/>
        <pt x="273" y="0" on="0"/>
        <pt x="239" y="-13" on="0"/>
        <pt x="239" y="-10" on="1"/>
        <pt x="240" y="-32" on="0"/>
        <pt x="268" y="-53" on="0"/>
        <pt x="280" y="-61" on="1"/>
        <pt x="303" y="-76" on="0"/>
        <pt x="322" y="-113" on="0"/>
        <pt x="322" y="-127" on="1"/>
        <pt x="322" y="-178" on="0"/>
        <pt x="271" y="-223" on="0"/>
        <pt x="238" y="-223" on="1"/>
        <pt x="220" y="-223" on="0"/>
        <pt x="204" y="-217" on="1"/>
        <pt x="188" y="-210" on="0"/>
        <pt x="164" y="-185" on="0"/>
        <pt x="157" y="-165" on="1"/>
        <pt x="172" y="-161" on="1"/>
        <pt x="178" y="-183" on="0"/>
        <pt x="214" y="-209" on="0"/>
        <pt x="238" y="-209" on="1"/>
        <pt x="269" y="-209" on="0"/>
        <pt x="308" y="-168" on="0"/>
        <pt x="308" y="-137" on="1"/>
        <pt x="308" y="-109" on="0"/>
        <pt x="282" y="-79" on="0"/>
        <pt x="251" y="-58" on="0"/>
        <pt x="225" y="-36" on="0"/>
        <pt x="225" y="-16" on="1"/>
        <pt x="225" y="-6" on="1"/>
        <pt x="185" y="-5" on="0"/>
        <pt x="116" y="25" on="0"/>
        <pt x="65" y="78" on="0"/>
        <pt x="35" y="148" on="0"/>
        <pt x="35" y="188" on="1"/>
        <pt x="35" y="228" on="0"/>
        <pt x="65" y="300" on="0"/>
        <pt x="118" y="352" on="0"/>
        <pt x="188" y="383" on="0"/>
        <pt x="229" y="383" on="1"/>
        <pt x="264" y="383" on="0"/>
        <pt x="327" y="360" on="0"/>
        <pt x="352" y="340" on="1"/>
        <pt x="352" y="252" on="1"/>
        <pt x="338" y="252" on="1"/>
        <pt x="338" y="332" on="1"/>
        <pt x="315" y="349" on="0"/>
        <pt x="260" y="369" on="0"/>
        <pt x="229" y="369" on="1"/>
        <pt x="191" y="369" on="0"/>
        <pt x="126" y="341" on="0"/>
        <pt x="77" y="291" on="0"/>
        <pt x="49" y="225" on="0"/>
        <pt x="49" y="188" on="1"/>
        <pt x="49" y="150" on="0"/>
        <pt x="77" y="85" on="0"/>
        <pt x="126" y="36" on="0"/>
        <pt x="191" y="8" on="0"/>
        <pt x="229" y="8" on="1"/>
        <pt x="261" y="8" on="0"/>
        <pt x="319" y="29" on="0"/>
      </contour>
    </TTGlyph>
    <TTGlyph name="cedilla" xMin="125" yMin="-223" xMax="290" yMax="0">
      <contour>
        <pt x="193" y="0" on="1"/>
        <pt x="207" y="0" on="1"/>
        <pt x="207" y="-6" on="1"/>
        <pt x="207" y="-32" on="0"/>
        <pt x="235" y="-53" on="0"/>
        <pt x="248" y="-61" on="1"/>
        <pt x="271" y="-76" on="0"/>
        <pt x="290" y="-113" on="0"/>
        <pt x="290" y="-127" on="1"/>
        <pt x="290" y="-178" on="0"/>
        <pt x="239" y="-223" on="0"/>
        <pt x="206" y="-223" on="1"/>
        <pt x="180" y="-223" on="0"/>
        <pt x="135" y="-194" on="0"/>
        <pt x="125" y="-165" on="1"/>
        <pt x="129" y="-164" on="0"/>
        <pt x="136" y="-162" on="0"/>
        <pt x="140" y="-161" on="1"/>
        <pt x="146" y="-182" on="0"/>
        <pt x="181" y="-209" on="0"/>
        <pt x="206" y="-209" on="1"/>
        <pt x="237" y="-209" on="0"/>
        <pt x="276" y="-168" on="0"/>
        <pt x="276" y="-137" on="1"/>
        <pt x="276" y="-109" on="0"/>
        <pt x="250" y="-79" on="0"/>
        <pt x="219" y="-58" on="0"/>
        <pt x="193" y="-36" on="0"/>
        <pt x="193" y="-16" on="1"/>
      </contour>
    </TTGlyph>
    <TTGlyph name="cent" xMin="36" yMin="-68" xMax="353" yMax="438">
      <contour>
        <pt x="343" y="47" on="1"/>
        <pt x="353" y="37" on="1"/>
        <pt x="327" y="17" on="0"/>
        <pt x="264" y="-6" on="0"/>
        <pt x="229" y="-6" on="1"/>
        <pt x="229" y="-68" on="1"/>
        <pt x="215" y="-68" on="1"/>
        <pt x="215" y="-5" on="1"/>
        <pt x="177" y="-2" on="0"/>
        <pt x="112" y="30" on="0"/>
        <pt x="64" y="81" on="0"/>
        <pt x="36" y="149" on="0"/>
        <pt x="36" y="188" on="1"/>
        <pt x="36" y="227" on="0"/>
        <pt x="64" y="295" on="0"/>
        <pt x="112" y="347" on="0"/>
        <pt x="177" y="379" on="0"/>
        <pt x="215" y="382" on="1"/>
        <pt x="215" y="438" on="1"/>
        <pt x="229" y="438" on="1"/>
        <pt x="229" y="383" on="1"/>
        <pt x="264" y="383" on="0"/>
        <pt x="328" y="360" on="0"/>
        <pt x="353" y="340" on="1"/>
        <pt x="352" y="339" on="0"/>
        <pt x="352" y="339" on="1"/>
        <pt x="353" y="339" on="1"/>
        <pt x="353" y="252" on="1"/>
        <pt x="339" y="252" on="1"/>
        <pt x="339" y="332" on="1"/>
        <pt x="316" y="349" on="0"/>
        <pt x="260" y="369" on="0"/>
        <pt x="229" y="369" on="1"/>
        <pt x="229" y="8" on="1"/>
        <pt x="261" y="8" on="0"/>
        <pt x="320" y="29" on="0"/>
      </contour>
      <contour>
        <pt x="50" y="188" on="1"/>
        <pt x="50" y="152" on="0"/>
        <pt x="75" y="89" on="0"/>
        <pt x="120" y="41" on="0"/>
        <pt x="180" y="11" on="0"/>
        <pt x="215" y="8" on="1"/>
        <pt x="215" y="368" on="1"/>
        <pt x="180" y="365" on="0"/>
        <pt x="120" y="335" on="0"/>
        <pt x="75" y="287" on="0"/>
        <pt x="50" y="224" on="0"/>
      </contour>
    </TTGlyph>
    <TTGlyph name="colon" xMin="65" yMin="0" xMax="105" yMax="290">
      <contour>
        <pt x="65" y="270" on="1"/>
        <pt x="65" y="278" on="0"/>
        <pt x="77" y="290" on="0"/>
        <pt x="85" y="290" on="1"/>
        <pt x="93" y="290" on="0"/>
        <pt x="105" y="278" on="0"/>
        <pt x="105" y="270" on="1"/>
        <pt x="105" y="262" on="0"/>
        <pt x="93" y="250" on="0"/>
        <pt x="85" y="250" on="1"/>
        <pt x="77" y="250" on="0"/>
        <pt x="65" y="262" on="0"/>
      </contour>
      <contour>
        <pt x="65" y="20" on="1"/>
        <pt x="65" y="28" on="0"/>
        <pt x="77" y="40" on="0"/>
        <pt x="85" y="40" on="1"/>
        <pt x="93" y="40" on="0"/>
        <pt x="105" y="28" on="0"/>
        <pt x="105" y="20" on="1"/>
        <pt x="105" y="12" on="0"/>
        <pt x="93" y="0" on="0"/>
        <pt x="85" y="0" on="1"/>
        <pt x="77" y="0" on="0"/>
        <pt x="65" y="12" on="0"/>
      </contour>
    </TTGlyph>
    <TTGlyph name="comma" xMin="27" yMin="-120" xMax="127" yMax="86">
      <contour>
        <pt x="127" y="86" on="1"/>
        <pt x="105" y="34" on="0"/>
        <pt x="63" y="-68" on="0"/>
        <pt x="41" y="-120" on="1"/>
        <pt x="27" y="-120" on="1"/>
        <pt x="47" y="-68" on="0"/>
        <pt x="84" y="34" on="0"/>
        <pt x="104" y="86" on="1"/>
      </contour>
    </TTGlyph>
    <TTGlyph name="copyright" xMin="145" yMin="118" xMax="655" yMax="627">
      <contour>
        <pt x="399" y="132" on="1"/>
        <pt x="449" y="132" on="0"/>
        <pt x="537" y="168" on="0"/>
        <pt x="603" y="233" on="0"/>
        <pt x="641" y="320" on="0"/>
        <pt x="641" y="371" on="1"/>
        <pt x="641" y="423" on="0"/>
        <pt x="603" y="512" on="0"/>
        <pt x="537" y="577" on="0"/>
        <pt x="449" y="613" on="0"/>
        <pt x="399" y="613" on="1"/>
        <pt x="350" y="613" on="0"/>
        <pt x="263" y="577" on="0"/>
        <pt x="197" y="512" on="0"/>
        <pt x="159" y="423" on="0"/>
        <pt x="159" y="371" on="1"/>
        <pt x="159" y="320" on="0"/>
        <pt x="197" y="233" on="0"/>
        <pt x="263" y="168" on="0"/>
        <pt x="350" y="132" on="0"/>
      </contour>
      <contour>
        <pt x="400" y="118" on="1"/>
        <pt x="346" y="118" on="0"/>
        <pt x="253" y="156" on="0"/>
        <pt x="184" y="224" on="0"/>
        <pt x="145" y="317" on="0"/>
        <pt x="145" y="372" on="1"/>
        <pt x="145" y="427" on="0"/>
        <pt x="184" y="521" on="0"/>
        <pt x="253" y="589" on="0"/>
        <pt x="346" y="627" on="0"/>
        <pt x="400" y="627" on="1"/>
        <pt x="454" y="627" on="0"/>
        <pt x="547" y="589" on="0"/>
        <pt x="616" y="521" on="0"/>
        <pt x="655" y="427" on="0"/>
        <pt x="655" y="372" on="1"/>
        <pt x="655" y="317" on="0"/>
        <pt x="616" y="224" on="0"/>
        <pt x="547" y="156" on="0"/>
        <pt x="454" y="118" on="0"/>
      </contour>
      <contour>
        <pt x="495" y="464" on="1"/>
        <pt x="495" y="511" on="1"/>
        <pt x="461" y="531" on="0"/>
        <pt x="419" y="531" on="1"/>
        <pt x="387" y="531" on="0"/>
        <pt x="331" y="506" on="0"/>
        <pt x="289" y="463" on="0"/>
        <pt x="264" y="406" on="0"/>
        <pt x="264" y="374" on="1"/>
        <pt x="264" y="342" on="0"/>
        <pt x="288" y="286" on="0"/>
        <pt x="330" y="244" on="0"/>
        <pt x="386" y="220" on="0"/>
        <pt x="418" y="220" on="1"/>
        <pt x="440" y="220" on="0"/>
        <pt x="480" y="231" on="0"/>
        <pt x="497" y="241" on="1"/>
        <pt x="501" y="236" on="1"/>
        <pt x="483" y="225" on="0"/>
        <pt x="442" y="213" on="0"/>
        <pt x="419" y="213" on="1"/>
        <pt x="386" y="213" on="0"/>
        <pt x="327" y="239" on="0"/>
        <pt x="283" y="283" on="0"/>
        <pt x="258" y="342" on="0"/>
        <pt x="258" y="375" on="1"/>
        <pt x="258" y="409" on="0"/>
        <pt x="283" y="468" on="0"/>
        <pt x="327" y="512" on="0"/>
        <pt x="386" y="537" on="0"/>
        <pt x="419" y="537" on="1"/>
        <pt x="463" y="537" on="0"/>
        <pt x="502" y="515" on="1"/>
        <pt x="502" y="464" on="1"/>
      </contour>
    </TTGlyph>
    <TTGlyph name="currency" xMin="109" yMin="219" xMax="385" yMax="496">
      <contour>
        <pt x="129" y="361" on="1"/>
        <pt x="129" y="336" on="0"/>
        <pt x="148" y="293" on="0"/>
        <pt x="180" y="261" on="0"/>
        <pt x="223" y="242" on="0"/>
        <pt x="247" y="242" on="1"/>
        <pt x="271" y="242" on="0"/>
        <pt x="314" y="261" on="0"/>
        <pt x="346" y="293" on="0"/>
        <pt x="365" y="336" on="0"/>
        <pt x="365" y="361" on="1"/>
        <pt x="365" y="386" on="0"/>
        <pt x="346" y="429" on="0"/>
        <pt x="314" y="461" on="0"/>
        <pt x="271" y="480" on="0"/>
        <pt x="247" y="480" on="1"/>
        <pt x="223" y="480" on="0"/>
        <pt x="180" y="461" on="0"/>
        <pt x="148" y="429" on="0"/>
        <pt x="129" y="386" on="0"/>
      </contour>
      <contour>
        <pt x="115" y="361" on="1"/>
        <pt x="115" y="386" on="0"/>
        <pt x="132" y="430" on="0"/>
        <pt x="147" y="448" on="1"/>
        <pt x="109" y="486" on="1"/>
        <pt x="119" y="496" on="1"/>
        <pt x="157" y="458" on="1"/>
        <pt x="174" y="475" on="0"/>
        <pt x="221" y="494" on="0"/>
        <pt x="247" y="494" on="1"/>
        <pt x="273" y="494" on="0"/>
        <pt x="320" y="474" on="0"/>
        <pt x="337" y="457" on="1"/>
        <pt x="375" y="495" on="1"/>
        <pt x="385" y="485" on="1"/>
        <pt x="347" y="447" on="1"/>
        <pt x="362" y="430" on="0"/>
        <pt x="379" y="386" on="0"/>
        <pt x="379" y="361" on="1"/>
        <pt x="379" y="335" on="0"/>
        <pt x="360" y="289" on="0"/>
        <pt x="344" y="271" on="1"/>
        <pt x="385" y="230" on="1"/>
        <pt x="375" y="220" on="1"/>
        <pt x="334" y="261" on="1"/>
        <pt x="298" y="228" on="0"/>
        <pt x="247" y="228" on="1"/>
        <pt x="222" y="228" on="0"/>
        <pt x="177" y="245" on="0"/>
        <pt x="160" y="260" on="1"/>
        <pt x="119" y="219" on="1"/>
        <pt x="109" y="229" on="1"/>
        <pt x="150" y="270" on="1"/>
        <pt x="115" y="308" on="0"/>
      </contour>
    </TTGlyph>
    <TTGlyph name="d" xMin="35" yMin="-6" xMax="497" yMax="750">
      <contour>
        <pt x="410" y="54" on="1"/>
        <pt x="410" y="70" on="0"/>
        <pt x="411" y="101" on="0"/>
        <pt x="411" y="117" on="1"/>
        <pt x="400" y="90" on="0"/>
        <pt x="364" y="45" on="0"/>
        <pt x="317" y="12" on="0"/>
        <pt x="260" y="-6" on="0"/>
        <pt x="229" y="-6" on="1"/>
        <pt x="188" y="-6" on="0"/>
        <pt x="118" y="24" on="0"/>
        <pt x="65" y="77" on="0"/>
        <pt x="35" y="147" on="0"/>
        <pt x="35" y="188" on="1"/>
        <pt x="35" y="228" on="0"/>
        <pt x="65" y="300" on="0"/>
        <pt x="118" y="352" on="0"/>
        <pt x="188" y="383" on="0"/>
        <pt x="229" y="383" on="1"/>
        <pt x="260" y="383" on="0"/>
        <pt x="317" y="365" on="0"/>
        <pt x="364" y="332" on="0"/>
        <pt x="399" y="287" on="0"/>
        <pt x="410" y="260" on="1"/>
        <pt x="410" y="379" on="1"/>
        <pt x="410" y="736" on="1"/>
        <pt x="337" y="736" on="1"/>
        <pt x="337" y="750" on="1"/>
        <pt x="424" y="750" on="1"/>
        <pt x="424" y="14" on="1"/>
        <pt x="497" y="14" on="1"/>
        <pt x="497" y="0" on="1"/>
        <pt x="410" y="0" on="1"/>
      </contour>
      <contour>
        <pt x="49" y="188" on="1"/>
        <pt x="49" y="150" on="0"/>
        <pt x="77" y="85" on="0"/>
        <pt x="126" y="36" on="0"/>
        <pt x="191" y="8" on="0"/>
        <pt x="229" y="8" on="1"/>
        <pt x="266" y="8" on="0"/>
        <pt x="332" y="36" on="0"/>
        <pt x="382" y="85" on="0"/>
        <pt x="410" y="150" on="0"/>
        <pt x="410" y="188" on="1"/>
        <pt x="410" y="225" on="0"/>
        <pt x="382" y="291" on="0"/>
        <pt x="332" y="341" on="0"/>
        <pt x="266" y="369" on="0"/>
        <pt x="229" y="369" on="1"/>
        <pt x="191" y="369" on="0"/>
        <pt x="126" y="341" on="0"/>
        <pt x="77" y="291" on="0"/>
        <pt x="49" y="225" on="0"/>
      </contour>
    </TTGlyph>
    <TTGlyph name="degree" xMin="61" yMin="484" xMax="214" yMax="636">
      <contour>
        <pt x="138" y="498" on="1"/>
        <pt x="164" y="498" on="0"/>
        <pt x="200" y="534" on="0"/>
        <pt x="200" y="560" on="1"/>
        <pt x="200" y="586" on="0"/>
        <pt x="164" y="622" on="0"/>
        <pt x="138" y="622" on="1"/>
        <pt x="112" y="622" on="0"/>
        <pt x="75" y="586" on="0"/>
        <pt x="75" y="560" on="1"/>
        <pt x="75" y="534" on="0"/>
        <pt x="112" y="498" on="0"/>
      </contour>
      <contour>
        <pt x="61" y="559" on="1"/>
        <pt x="61" y="592" on="0"/>
        <pt x="105" y="636" on="0"/>
        <pt x="138" y="636" on="1"/>
        <pt x="170" y="636" on="0"/>
        <pt x="214" y="592" on="0"/>
        <pt x="214" y="559" on="1"/>
        <pt x="214" y="527" on="0"/>
        <pt x="170" y="484" on="0"/>
        <pt x="138" y="484" on="1"/>
        <pt x="105" y="484" on="0"/>
        <pt x="61" y="527" on="0"/>
      </contour>
    </TTGlyph>
    <TTGlyph name="dieresis" xMin="82" yMin="480" xMax="287" yMax="520">
      <contour>
        <pt x="247" y="500" on="1"/>
        <pt x="247" y="508" on="0"/>
        <pt x="259" y="520" on="0"/>
        <pt x="267" y="520" on="1"/>
        <pt x="275" y="520" on="0"/>
        <pt x="287" y="508" on="0"/>
        <pt x="287" y="500" on="1"/>
        <pt x="287" y="492" on="0"/>
        <pt x="275" y="480" on="0"/>
        <pt x="267" y="480" on="1"/>
        <pt x="259" y="480" on="0"/>
        <pt x="247" y="492" on="0"/>
      </contour>
      <contour>
        <pt x="82" y="500" on="1"/>
        <pt x="82" y="508" on="0"/>
        <pt x="94" y="520" on="0"/>
        <pt x="102" y="520" on="1"/>
        <pt x="110" y="520" on="0"/>
        <pt x="122" y="508" on="0"/>
        <pt x="122" y="500" on="1"/>
        <pt x="122" y="492" on="0"/>
        <pt x="110" y="480" on="0"/>
        <pt x="102" y="480" on="1"/>
        <pt x="94" y="480" on="0"/>
        <pt x="82" y="492" on="0"/>
      </contour>
    </TTGlyph>
    <TTGlyph name="divide" xMin="68" yMin="71" xMax="428" yMax="361">
      <contour>
        <pt x="428" y="210" on="1"/>
        <pt x="68" y="210" on="1"/>
        <pt x="68" y="224" on="1"/>
        <pt x="428" y="224" on="1"/>
      </contour>
      <contour>
        <pt x="231" y="341" on="1"/>
        <pt x="231" y="349" on="0"/>
        <pt x="243" y="361" on="0"/>
        <pt x="251" y="361" on="1"/>
        <pt x="259" y="361" on="0"/>
        <pt x="271" y="349" on="0"/>
        <pt x="271" y="341" on="1"/>
        <pt x="271" y="333" on="0"/>
        <pt x="259" y="321" on="0"/>
        <pt x="251" y="321" on="1"/>
        <pt x="243" y="321" on="0"/>
        <pt x="231" y="333" on="0"/>
      </contour>
      <contour>
        <pt x="231" y="91" on="1"/>
        <pt x="231" y="99" on="0"/>
        <pt x="243" y="111" on="0"/>
        <pt x="251" y="111" on="1"/>
        <pt x="259" y="111" on="0"/>
        <pt x="271" y="99" on="0"/>
        <pt x="271" y="91" on="1"/>
        <pt x="271" y="83" on="0"/>
        <pt x="259" y="71" on="0"/>
        <pt x="251" y="71" on="1"/>
        <pt x="243" y="71" on="0"/>
        <pt x="231" y="83" on="0"/>
      </contour>
    </TTGlyph>
    <TTGlyph name="dollar" xMin="46" yMin="-68" xMax="451" yMax="764">
      <contour>
        <pt x="372" y="546" on="1"/>
        <pt x="372" y="653" on="1"/>
        <pt x="353" y="667" on="0"/>
        <pt x="290" y="688" on="0"/>
        <pt x="245" y="690" on="1"/>
        <pt x="245" y="380" on="1"/>
        <pt x="281" y="369" on="0"/>
        <pt x="354" y="345" on="0"/>
        <pt x="412" y="304" on="0"/>
        <pt x="449" y="238" on="0"/>
        <pt x="450" y="186" on="1"/>
        <pt x="451" y="142" on="0"/>
        <pt x="419" y="72" on="0"/>
        <pt x="363" y="21" on="0"/>
        <pt x="288" y="-7" on="0"/>
        <pt x="245" y="-8" on="1"/>
        <pt x="245" y="-68" on="1"/>
        <pt x="232" y="-68" on="1"/>
        <pt x="232" y="-8" on="1"/>
        <pt x="193" y="-7" on="0"/>
        <pt x="132" y="9" on="0"/>
        <pt x="86" y="31" on="0"/>
        <pt x="55" y="55" on="0"/>
        <pt x="46" y="64" on="1"/>
        <pt x="46" y="164" on="1"/>
        <pt x="60" y="164" on="1"/>
        <pt x="60" y="74" on="1"/>
        <pt x="88" y="45" on="0"/>
        <pt x="172" y="7" on="0"/>
        <pt x="232" y="6" on="1"/>
        <pt x="232" y="367" on="1"/>
        <pt x="201" y="376" on="0"/>
        <pt x="143" y="397" on="0"/>
        <pt x="97" y="430" on="0"/>
        <pt x="68" y="479" on="0"/>
        <pt x="66" y="517" on="1"/>
        <pt x="64" y="550" on="0"/>
        <pt x="82" y="615" on="0"/>
        <pt x="122" y="669" on="0"/>
        <pt x="187" y="703" on="0"/>
        <pt x="232" y="704" on="1"/>
        <pt x="232" y="764" on="1"/>
        <pt x="245" y="764" on="1"/>
        <pt x="245" y="704" on="1"/>
        <pt x="277" y="703" on="0"/>
        <pt x="356" y="686" on="0"/>
        <pt x="386" y="660" on="1"/>
        <pt x="386" y="546" on="1"/>
      </contour>
      <contour>
        <pt x="436" y="182" on="1"/>
        <pt x="436" y="230" on="0"/>
        <pt x="403" y="292" on="0"/>
        <pt x="349" y="331" on="0"/>
        <pt x="280" y="353" on="0"/>
        <pt x="245" y="363" on="1"/>
        <pt x="245" y="6" on="1"/>
        <pt x="282" y="7" on="0"/>
        <pt x="351" y="34" on="0"/>
        <pt x="404" y="79" on="0"/>
        <pt x="436" y="143" on="0"/>
      </contour>
      <contour>
        <pt x="80" y="530" on="1"/>
        <pt x="80" y="494" on="0"/>
        <pt x="105" y="446" on="0"/>
        <pt x="147" y="413" on="0"/>
        <pt x="202" y="392" on="0"/>
        <pt x="232" y="383" on="1"/>
        <pt x="232" y="690" on="1"/>
        <pt x="194" y="689" on="0"/>
        <pt x="137" y="662" on="0"/>
        <pt x="99" y="617" on="0"/>
        <pt x="80" y="560" on="0"/>
      </contour>
    </TTGlyph>
    <TTGlyph name="dotlessi" xMin="35" yMin="0" xMax="209" yMax="375">
      <contour>
        <pt x="35" y="14" on="1"/>
        <pt x="117" y="14" on="1"/>
        <pt x="117" y="361" on="1"/>
        <pt x="35" y="361" on="1"/>
        <pt x="35" y="375" on="1"/>
        <pt x="131" y="375" on="1"/>
        <pt x="131" y="14" on="1"/>
        <pt x="209" y="14" on="1"/>
        <pt x="209" y="0" on="1"/>
        <pt x="35" y="0" on="1"/>
      </contour>
    </TTGlyph>
    <TTGlyph name="e" xMin="35" yMin="-6" xMax="398" yMax="383">
      <contour>
        <pt x="229" y="369" on="1"/>
        <pt x="184" y="369" on="0"/>
        <pt x="109" y="328" on="0"/>
        <pt x="60" y="262" on="0"/>
        <pt x="43" y="178" on="0"/>
        <pt x="56" y="135" on="1"/>
        <pt x="137" y="168" on="0"/>
        <pt x="299" y="233" on="0"/>
        <pt x="380" y="266" on="1"/>
        <pt x="360" y="312" on="0"/>
        <pt x="279" y="369" on="0"/>
      </contour>
      <contour>
        <pt x="398" y="259" on="1"/>
        <pt x="313" y="224" on="0"/>
        <pt x="146" y="157" on="0"/>
        <pt x="61" y="122" on="1"/>
        <pt x="81" y="71" on="0"/>
        <pt x="171" y="8" on="0"/>
        <pt x="229" y="8" on="1"/>
        <pt x="265" y="8" on="0"/>
        <pt x="329" y="34" on="0"/>
        <pt x="353" y="57" on="1"/>
        <pt x="355" y="54" on="0"/>
        <pt x="360" y="49" on="0"/>
        <pt x="362" y="46" on="1"/>
        <pt x="336" y="22" on="0"/>
        <pt x="268" y="-6" on="0"/>
        <pt x="229" y="-6" on="1"/>
        <pt x="188" y="-6" on="0"/>
        <pt x="118" y="24" on="0"/>
        <pt x="65" y="77" on="0"/>
        <pt x="35" y="147" on="0"/>
        <pt x="35" y="188" on="1"/>
        <pt x="35" y="228" on="0"/>
        <pt x="65" y="300" on="0"/>
        <pt x="118" y="352" on="0"/>
        <pt x="188" y="383" on="0"/>
        <pt x="229" y="383" on="1"/>
        <pt x="287" y="383" on="0"/>
        <pt x="378" y="314" on="0"/>
      </contour>
    </TTGlyph>
    <TTGlyph name="eacute" xMin="35" yMin="-6" xMax="398" yMax="612">
      <component glyphName="e" x="0" y="0" flags="0x204"/>
      <component glyphName="acute" x="133" y="0" flags="0x4"/>
    </TTGlyph>
    <TTGlyph name="ecircumflex" xMin="35" yMin="-6" xMax="398" yMax="660">
      <component glyphName="e" x="0" y="0" flags="0x204"/>
      <component glyphName="asciicircum" x="-2" y="0" flags="0x4"/>
    </TTGlyph>
    <TTGlyph name="edieresis" xMin="35" yMin="-6" xMax="398" yMax="520">
      <component glyphName="e" x="0" y="0" flags="0x204"/>
      <component glyphName="dieresis" x="50" y="0" flags="0x4"/>
    </TTGlyph>
    <TTGlyph name="egrave" xMin="35" yMin="-6" xMax="398" yMax="612">
      <component glyphName="e" x="0" y="0" flags="0x204"/>
      <component glyphName="grave" x="140" y="0" flags="0x4"/>
    </TTGlyph>
    <TTGlyph name="eight" xMin="53" yMin="-8" xMax="460" yMax="658">
      <contour>
        <pt x="122" y="511" on="1"/>
        <pt x="122" y="486" on="0"/>
        <pt x="142" y="444" on="0"/>
        <pt x="178" y="413" on="0"/>
        <pt x="226" y="396" on="0"/>
        <pt x="254" y="396" on="1"/>
        <pt x="281" y="396" on="0"/>
        <pt x="328" y="413" on="0"/>
        <pt x="363" y="444" on="0"/>
        <pt x="382" y="486" on="0"/>
        <pt x="382" y="511" on="1"/>
        <pt x="382" y="538" on="0"/>
        <pt x="363" y="586" on="0"/>
        <pt x="328" y="622" on="0"/>
        <pt x="281" y="644" on="0"/>
        <pt x="254" y="644" on="1"/>
        <pt x="226" y="644" on="0"/>
        <pt x="178" y="622" on="0"/>
        <pt x="142" y="586" on="0"/>
        <pt x="122" y="538" on="0"/>
      </contour>
      <contour>
        <pt x="67" y="195" on="1"/>
        <pt x="67" y="157" on="0"/>
        <pt x="96" y="88" on="0"/>
        <pt x="146" y="36" on="0"/>
        <pt x="214" y="5" on="0"/>
        <pt x="253" y="5" on="1"/>
        <pt x="293" y="5" on="0"/>
        <pt x="363" y="36" on="0"/>
        <pt x="415" y="88" on="0"/>
        <pt x="446" y="157" on="0"/>
        <pt x="446" y="195" on="1"/>
        <pt x="446" y="234" on="0"/>
        <pt x="415" y="301" on="0"/>
        <pt x="363" y="352" on="0"/>
        <pt x="293" y="381" on="0"/>
        <pt x="253" y="381" on="1"/>
        <pt x="214" y="381" on="0"/>
        <pt x="146" y="352" on="0"/>
        <pt x="96" y="301" on="0"/>
        <pt x="67" y="234" on="0"/>
      </contour>
      <contour>
        <pt x="53" y="195" on="1"/>
        <pt x="53" y="230" on="0"/>
        <pt x="76" y="293" on="0"/>
        <pt x="116" y="344" on="0"/>
        <pt x="171" y="381" on="0"/>
        <pt x="204" y="389" on="1"/>
        <pt x="162" y="403" on="0"/>
        <pt x="108" y="472" on="0"/>
        <pt x="108" y="518" on="1"/>
        <pt x="108" y="547" on="0"/>
        <pt x="131" y="598" on="0"/>
        <pt x="170" y="636" on="0"/>
        <pt x="222" y="658" on="0"/>
        <pt x="252" y="658" on="1"/>
        <pt x="282" y="658" on="0"/>
        <pt x="334" y="635" on="0"/>
        <pt x="373" y="596" on="0"/>
        <pt x="396" y="544" on="0"/>
        <pt x="396" y="514" on="1"/>
        <pt x="396" y="470" on="0"/>
        <pt x="345" y="403" on="0"/>
        <pt x="304" y="389" on="1"/>
        <pt x="337" y="381" on="0"/>
        <pt x="394" y="345" on="0"/>
        <pt x="436" y="294" on="0"/>
        <pt x="460" y="231" on="0"/>
        <pt x="460" y="195" on="1"/>
        <pt x="460" y="153" on="0"/>
        <pt x="427" y="79" on="0"/>
        <pt x="372" y="24" on="0"/>
        <pt x="297" y="-8" on="0"/>
        <pt x="255" y="-8" on="1"/>
        <pt x="213" y="-8" on="0"/>
        <pt x="140" y="24" on="0"/>
        <pt x="85" y="79" on="0"/>
        <pt x="53" y="153" on="0"/>
      </contour>
    </TTGlyph>
    <TTGlyph name="emdash" xMin="99" yMin="179" xMax="601" yMax="193">
      <contour>
        <pt x="99" y="179" on="1"/>
        <pt x="99" y="193" on="1"/>
        <pt x="601" y="193" on="1"/>
        <pt x="601" y="179" on="1"/>
      </contour>
    </TTGlyph>
    <TTGlyph name="endash" xMin="100" yMin="179" xMax="401" yMax="193">
      <contour>
        <pt x="100" y="179" on="1"/>
        <pt x="100" y="193" on="1"/>
        <pt x="401" y="193" on="1"/>
        <pt x="401" y="179" on="1"/>
      </contour>
    </TTGlyph>
    <TTGlyph name="equal" xMin="100" yMin="150" xMax="606" yMax="358">
      <contour>
        <pt x="606" y="164" on="1"/>
        <pt x="606" y="150" on="1"/>
        <pt x="100" y="150" on="1"/>
        <pt x="100" y="164" on="1"/>
      </contour>
      <contour>
        <pt x="606" y="358" on="1"/>
        <pt x="606" y="344" on="1"/>
        <pt x="100" y="344" on="1"/>
        <pt x="100" y="358" on="1"/>
      </contour>
    </TTGlyph>
    <TTGlyph name="eth" xMin="35" yMin="-6" xMax="424" yMax="726">
      <contour>
        <pt x="49" y="188" on="1"/>
        <pt x="49" y="150" on="0"/>
        <pt x="77" y="85" on="0"/>
        <pt x="126" y="36" on="0"/>
        <pt x="191" y="8" on="0"/>
        <pt x="229" y="8" on="1"/>
        <pt x="266" y="8" on="0"/>
        <pt x="332" y="36" on="0"/>
        <pt x="382" y="85" on="0"/>
        <pt x="410" y="150" on="0"/>
        <pt x="410" y="188" on="1"/>
        <pt x="410" y="225" on="0"/>
        <pt x="382" y="291" on="0"/>
        <pt x="332" y="341" on="0"/>
        <pt x="266" y="369" on="0"/>
        <pt x="229" y="369" on="1"/>
        <pt x="191" y="369" on="0"/>
        <pt x="126" y="341" on="0"/>
        <pt x="77" y="291" on="0"/>
        <pt x="49" y="225" on="0"/>
      </contour>
      <contour>
        <pt x="129" y="547" on="1"/>
        <pt x="148" y="567" on="0"/>
        <pt x="186" y="609" on="0"/>
        <pt x="205" y="629" on="1"/>
        <pt x="183" y="652" on="0"/>
        <pt x="137" y="697" on="0"/>
        <pt x="111" y="717" on="1"/>
        <pt x="117" y="726" on="1"/>
        <pt x="165" y="690" on="0"/>
        <pt x="213" y="637" on="1"/>
        <pt x="230" y="657" on="0"/>
        <pt x="266" y="694" on="0"/>
        <pt x="283" y="714" on="1"/>
        <pt x="285" y="712" on="0"/>
        <pt x="289" y="709" on="0"/>
        <pt x="291" y="707" on="1"/>
        <pt x="273" y="687" on="0"/>
        <pt x="238" y="649" on="0"/>
        <pt x="220" y="629" on="1"/>
        <pt x="261" y="581" on="0"/>
        <pt x="335" y="471" on="0"/>
        <pt x="391" y="357" on="0"/>
        <pt x="424" y="242" on="0"/>
        <pt x="424" y="188" on="1"/>
        <pt x="424" y="147" on="0"/>
        <pt x="393" y="77" on="0"/>
        <pt x="341" y="24" on="0"/>
        <pt x="269" y="-6" on="0"/>
        <pt x="229" y="-6" on="1"/>
        <pt x="188" y="-6" on="0"/>
        <pt x="118" y="24" on="0"/>
        <pt x="65" y="77" on="0"/>
        <pt x="35" y="147" on="0"/>
        <pt x="35" y="188" on="1"/>
        <pt x="35" y="228" on="0"/>
        <pt x="65" y="300" on="0"/>
        <pt x="118" y="352" on="0"/>
        <pt x="188" y="383" on="0"/>
        <pt x="229" y="383" on="1"/>
        <pt x="280" y="383" on="0"/>
        <pt x="366" y="335" on="0"/>
        <pt x="392" y="295" on="1"/>
        <pt x="386" y="323" on="0"/>
        <pt x="359" y="396" on="0"/>
        <pt x="315" y="480" on="0"/>
        <pt x="254" y="572" on="0"/>
        <pt x="212" y="620" on="1"/>
        <pt x="137" y="539" on="1"/>
      </contour>
    </TTGlyph>
    <TTGlyph name="exclam" xMin="81" yMin="36" xMax="120" yMax="750">
      <contour>
        <pt x="100" y="36" on="1"/>
        <pt x="93" y="36" on="0"/>
        <pt x="81" y="48" on="0"/>
        <pt x="81" y="56" on="1"/>
        <pt x="81" y="65" on="0"/>
        <pt x="93" y="76" on="0"/>
        <pt x="100" y="76" on="1"/>
        <pt x="108" y="76" on="0"/>
        <pt x="120" y="65" on="0"/>
        <pt x="120" y="56" on="1"/>
        <pt x="120" y="48" on="0"/>
        <pt x="108" y="36" on="0"/>
      </contour>
      <contour>
        <pt x="93" y="750" on="1"/>
        <pt x="107" y="750" on="1"/>
        <pt x="107" y="166" on="1"/>
        <pt x="93" y="166" on="1"/>
      </contour>
    </TTGlyph>
    <TTGlyph name="exclamdown" xMin="81" yMin="-210" xMax="120" yMax="504">
      <component glyphName="exclam" x="0" y="540" scalex="1.0" scaley="-0.999877929688" flags="0x4"/>
    </TTGlyph>
    <TTGlyph name="f" xMin="35" yMin="0" xMax="281" yMax="750">
      <contour>
        <pt x="35" y="14" on="1"/>
        <pt x="96" y="14" on="1"/>
        <pt x="96" y="361" on="1"/>
        <pt x="35" y="361" on="1"/>
        <pt x="35" y="375" on="1"/>
        <pt x="96" y="375" on="1"/>
        <pt x="96" y="518" on="1"/>
        <pt x="96" y="573" on="0"/>
        <pt x="125" y="659" on="0"/>
        <pt x="176" y="717" on="0"/>
        <pt x="243" y="748" on="0"/>
        <pt x="281" y="750" on="1"/>
        <pt x="281" y="736" on="1"/>
        <pt x="247" y="736" on="0"/>
        <pt x="185" y="706" on="0"/>
        <pt x="138" y="650" on="0"/>
        <pt x="110" y="571" on="0"/>
        <pt x="110" y="522" on="1"/>
        <pt x="110" y="375" on="1"/>
        <pt x="240" y="375" on="1"/>
        <pt x="240" y="361" on="1"/>
        <pt x="110" y="361" on="1"/>
        <pt x="110" y="14" on="1"/>
        <pt x="209" y="14" on="1"/>
        <pt x="209" y="0" on="1"/>
        <pt x="35" y="0" on="1"/>
      </contour>
    </TTGlyph>
    <TTGlyph name="five" xMin="115" yMin="-8" xMax="460" yMax="650">
      <contour>
        <pt x="430" y="650" on="1"/>
        <pt x="430" y="568" on="1"/>
        <pt x="416" y="568" on="1"/>
        <pt x="416" y="636" on="1"/>
        <pt x="157" y="636" on="1"/>
        <pt x="157" y="372" on="1"/>
        <pt x="180" y="383" on="0"/>
        <pt x="229" y="395" on="0"/>
        <pt x="255" y="395" on="1"/>
        <pt x="297" y="395" on="0"/>
        <pt x="372" y="364" on="0"/>
        <pt x="427" y="310" on="0"/>
        <pt x="460" y="237" on="0"/>
        <pt x="460" y="195" on="1"/>
        <pt x="460" y="153" on="0"/>
        <pt x="427" y="79" on="0"/>
        <pt x="372" y="24" on="0"/>
        <pt x="297" y="-8" on="0"/>
        <pt x="255" y="-8" on="1"/>
        <pt x="214" y="-8" on="0"/>
        <pt x="143" y="22" on="0"/>
        <pt x="115" y="48" on="1"/>
        <pt x="126" y="58" on="1"/>
        <pt x="150" y="33" on="0"/>
        <pt x="215" y="6" on="0"/>
        <pt x="253" y="6" on="1"/>
        <pt x="293" y="6" on="0"/>
        <pt x="363" y="36" on="0"/>
        <pt x="415" y="88" on="0"/>
        <pt x="446" y="157" on="0"/>
        <pt x="446" y="195" on="1"/>
        <pt x="446" y="234" on="0"/>
        <pt x="415" y="301" on="0"/>
        <pt x="363" y="352" on="0"/>
        <pt x="293" y="381" on="0"/>
        <pt x="253" y="381" on="1"/>
        <pt x="218" y="381" on="0"/>
        <pt x="160" y="358" on="0"/>
        <pt x="143" y="341" on="1"/>
        <pt x="143" y="650" on="1"/>
      </contour>
    </TTGlyph>
    <TTGlyph name="four" xMin="37" yMin="0" xMax="500" yMax="658">
      <contour>
        <pt x="312" y="14" on="1"/>
        <pt x="389" y="14" on="1"/>
        <pt x="389" y="183" on="1"/>
        <pt x="37" y="183" on="1"/>
        <pt x="403" y="658" on="1"/>
        <pt x="403" y="197" on="1"/>
        <pt x="500" y="197" on="1"/>
        <pt x="500" y="183" on="1"/>
        <pt x="403" y="183" on="1"/>
        <pt x="403" y="14" on="1"/>
        <pt x="486" y="14" on="1"/>
        <pt x="486" y="0" on="1"/>
        <pt x="312" y="0" on="1"/>
      </contour>
      <contour>
        <pt x="389" y="617" on="1"/>
        <pt x="67" y="197" on="1"/>
        <pt x="389" y="197" on="1"/>
      </contour>
    </TTGlyph>
    <TTGlyph name="g" xMin="35" yMin="-250" xMax="498" yMax="383">
      <contour>
        <pt x="414" y="375" on="1"/>
        <pt x="498" y="375" on="1"/>
        <pt x="498" y="361" on="1"/>
        <pt x="424" y="361" on="1"/>
        <pt x="424" y="-18" on="1"/>
        <pt x="424" y="-74" on="0"/>
        <pt x="395" y="-159" on="0"/>
        <pt x="344" y="-217" on="0"/>
        <pt x="277" y="-249" on="0"/>
        <pt x="239" y="-250" on="1"/>
        <pt x="198" y="-248" on="0"/>
        <pt x="114" y="-223" on="0"/>
        <pt x="88" y="-190" on="1"/>
        <pt x="101" y="-183" on="1"/>
        <pt x="125" y="-213" on="0"/>
        <pt x="203" y="-236" on="0"/>
        <pt x="239" y="-236" on="1"/>
        <pt x="273" y="-236" on="0"/>
        <pt x="336" y="-206" on="0"/>
        <pt x="382" y="-150" on="0"/>
        <pt x="410" y="-71" on="0"/>
        <pt x="410" y="-22" on="1"/>
        <pt x="410" y="54" on="1"/>
        <pt x="410" y="70" on="0"/>
        <pt x="411" y="101" on="0"/>
        <pt x="411" y="117" on="1"/>
        <pt x="400" y="90" on="0"/>
        <pt x="364" y="45" on="0"/>
        <pt x="317" y="12" on="0"/>
        <pt x="260" y="-6" on="0"/>
        <pt x="229" y="-6" on="1"/>
        <pt x="188" y="-6" on="0"/>
        <pt x="118" y="24" on="0"/>
        <pt x="65" y="77" on="0"/>
        <pt x="35" y="147" on="0"/>
        <pt x="35" y="188" on="1"/>
        <pt x="35" y="228" on="0"/>
        <pt x="65" y="300" on="0"/>
        <pt x="118" y="352" on="0"/>
        <pt x="188" y="383" on="0"/>
        <pt x="229" y="383" on="1"/>
        <pt x="291" y="383" on="0"/>
        <pt x="388" y="314" on="0"/>
        <pt x="410" y="260" on="1"/>
        <pt x="410" y="289" on="0"/>
        <pt x="412" y="346" on="0"/>
      </contour>
      <contour>
        <pt x="49" y="188" on="1"/>
        <pt x="49" y="150" on="0"/>
        <pt x="77" y="85" on="0"/>
        <pt x="126" y="36" on="0"/>
        <pt x="191" y="8" on="0"/>
        <pt x="229" y="8" on="1"/>
        <pt x="266" y="8" on="0"/>
        <pt x="332" y="36" on="0"/>
        <pt x="382" y="85" on="0"/>
        <pt x="410" y="150" on="0"/>
        <pt x="410" y="188" on="1"/>
        <pt x="410" y="225" on="0"/>
        <pt x="382" y="291" on="0"/>
        <pt x="332" y="341" on="0"/>
        <pt x="266" y="369" on="0"/>
        <pt x="229" y="369" on="1"/>
        <pt x="191" y="369" on="0"/>
        <pt x="126" y="341" on="0"/>
        <pt x="77" y="291" on="0"/>
        <pt x="49" y="225" on="0"/>
      </contour>
    </TTGlyph>
    <TTGlyph name="germandbls" xMin="35" yMin="-8" xMax="507" yMax="658">
      <contour>
        <pt x="35" y="14" on="1"/>
        <pt x="118" y="14" on="1"/>
        <pt x="118" y="370" on="1"/>
        <pt x="53" y="370" on="1"/>
        <pt x="53" y="384" on="1"/>
        <pt x="118" y="384" on="1"/>
        <pt x="118" y="426" on="1"/>
        <pt x="118" y="481" on="0"/>
        <pt x="147" y="567" on="0"/>
        <pt x="198" y="625" on="0"/>
        <pt x="265" y="656" on="0"/>
        <pt x="303" y="658" on="1"/>
        <pt x="332" y="657" on="0"/>
        <pt x="383" y="634" on="0"/>
        <pt x="421" y="595" on="0"/>
        <pt x="443" y="543" on="0"/>
        <pt x="443" y="514" on="1"/>
        <pt x="443" y="470" on="0"/>
        <pt x="392" y="403" on="0"/>
        <pt x="351" y="389" on="1"/>
        <pt x="384" y="381" on="0"/>
        <pt x="441" y="345" on="0"/>
        <pt x="483" y="294" on="0"/>
        <pt x="507" y="231" on="0"/>
        <pt x="507" y="195" on="1"/>
        <pt x="507" y="153" on="0"/>
        <pt x="474" y="79" on="0"/>
        <pt x="419" y="24" on="0"/>
        <pt x="344" y="-8" on="0"/>
        <pt x="302" y="-8" on="1"/>
        <pt x="273" y="-8" on="0"/>
        <pt x="219" y="8" on="0"/>
        <pt x="196" y="22" on="1"/>
        <pt x="202" y="33" on="1"/>
        <pt x="246" y="5" on="0"/>
        <pt x="300" y="5" on="1"/>
        <pt x="340" y="5" on="0"/>
        <pt x="410" y="36" on="0"/>
        <pt x="462" y="88" on="0"/>
        <pt x="493" y="157" on="0"/>
        <pt x="493" y="195" on="1"/>
        <pt x="493" y="233" on="0"/>
        <pt x="463" y="300" on="0"/>
        <pt x="411" y="351" on="0"/>
        <pt x="342" y="381" on="0"/>
        <pt x="303" y="381" on="1"/>
        <pt x="303" y="388" on="1"/>
        <pt x="303" y="396" on="1"/>
        <pt x="329" y="396" on="0"/>
        <pt x="375" y="413" on="0"/>
        <pt x="409" y="444" on="0"/>
        <pt x="429" y="486" on="0"/>
        <pt x="429" y="511" on="1"/>
        <pt x="429" y="537" on="0"/>
        <pt x="410" y="585" on="0"/>
        <pt x="377" y="622" on="0"/>
        <pt x="330" y="644" on="0"/>
        <pt x="303" y="644" on="1"/>
        <pt x="269" y="644" on="0"/>
        <pt x="207" y="614" on="0"/>
        <pt x="160" y="558" on="0"/>
        <pt x="132" y="479" on="0"/>
        <pt x="132" y="430" on="1"/>
        <pt x="132" y="0" on="1"/>
        <pt x="35" y="0" on="1"/>
      </contour>
    </TTGlyph>
    <TTGlyph name="grave" xMin="-14" yMin="479" xMax="92" yMax="612">
      <contour>
        <pt x="2" y="612" on="1"/>
        <pt x="25" y="579" on="0"/>
        <pt x="69" y="512" on="0"/>
        <pt x="92" y="479" on="1"/>
        <pt x="76" y="479" on="1"/>
        <pt x="53" y="512" on="0"/>
        <pt x="9" y="579" on="0"/>
        <pt x="-14" y="612" on="1"/>
      </contour>
    </TTGlyph>
    <TTGlyph name="greater" xMin="115" yMin="-15" xMax="553" yMax="491">
      <contour>
        <pt x="115" y="-15" on="1"/>
        <pt x="115" y="1" on="1"/>
        <pt x="218" y="61" on="0"/>
        <pt x="424" y="178" on="0"/>
        <pt x="527" y="238" on="1"/>
        <pt x="424" y="298" on="0"/>
        <pt x="218" y="415" on="0"/>
        <pt x="115" y="475" on="1"/>
        <pt x="115" y="491" on="1"/>
        <pt x="225" y="428" on="0"/>
        <pt x="443" y="301" on="0"/>
        <pt x="553" y="238" on="1"/>
        <pt x="443" y="175" on="0"/>
        <pt x="225" y="48" on="0"/>
      </contour>
    </TTGlyph>
    <TTGlyph name="guillemotleft" xMin="117" yMin="77" xMax="459" yMax="400">
      <contour>
        <pt x="459" y="77" on="1"/>
        <pt x="288" y="239" on="1"/>
        <pt x="331" y="280" on="0"/>
        <pt x="416" y="359" on="0"/>
        <pt x="459" y="400" on="1"/>
        <pt x="459" y="383" on="1"/>
        <pt x="424" y="347" on="0"/>
        <pt x="352" y="275" on="0"/>
        <pt x="317" y="239" on="1"/>
        <pt x="352" y="202" on="0"/>
        <pt x="424" y="130" on="0"/>
        <pt x="459" y="93" on="1"/>
      </contour>
      <contour>
        <pt x="288" y="77" on="1"/>
        <pt x="117" y="239" on="1"/>
        <pt x="160" y="280" on="0"/>
        <pt x="245" y="359" on="0"/>
        <pt x="288" y="400" on="1"/>
        <pt x="288" y="383" on="1"/>
        <pt x="253" y="347" on="0"/>
        <pt x="181" y="275" on="0"/>
        <pt x="146" y="239" on="1"/>
        <pt x="181" y="202" on="0"/>
        <pt x="253" y="130" on="0"/>
        <pt x="288" y="93" on="1"/>
      </contour>
    </TTGlyph>
    <TTGlyph name="guillemotright" xMin="117" yMin="77" xMax="459" yMax="400">
      <component glyphName="guillemotleft" x="576" y="0" scalex="-0.999877929688" scaley="1.0" flags="0x4"/>
    </TTGlyph>
    <TTGlyph name="guilsinglleft" xMin="117" yMin="77" xMax="288" yMax="400">
      <contour>
        <pt x="288" y="77" on="1"/>
        <pt x="117" y="239" on="1"/>
        <pt x="160" y="280" on="0"/>
        <pt x="245" y="359" on="0"/>
        <pt x="288" y="400" on="1"/>
        <pt x="288" y="383" on="1"/>
        <pt x="253" y="347" on="0"/>
        <pt x="181" y="275" on="0"/>
        <pt x="146" y="239" on="1"/>
        <pt x="181" y="202" on="0"/>
        <pt x="253" y="130" on="0"/>
        <pt x="288" y="93" on="1"/>
      </contour>
    </TTGlyph>
    <TTGlyph name="guilsinglright" xMin="117" yMin="77" xMax="288" yMax="400">
      <component glyphName="guilsinglleft" x="405" y="0" scalex="-0.999877929688" scaley="1.0" flags="0x4"/>
    </TTGlyph>
    <TTGlyph name="h" xMin="35" yMin="0" xMax="487" yMax="750">
      <contour>
        <pt x="313" y="14" on="1"/>
        <pt x="392" y="14" on="1"/>
        <pt x="392" y="277" on="1"/>
        <pt x="390" y="313" on="0"/>
        <pt x="341" y="366" on="0"/>
        <pt x="297" y="368" on="1"/>
        <pt x="263" y="368" on="0"/>
        <pt x="202" y="346" on="0"/>
        <pt x="155" y="307" on="0"/>
        <pt x="128" y="252" on="0"/>
        <pt x="128" y="220" on="1"/>
        <pt x="128" y="14" on="1"/>
        <pt x="209" y="14" on="1"/>
        <pt x="209" y="0" on="1"/>
        <pt x="35" y="0" on="1"/>
        <pt x="35" y="14" on="1"/>
        <pt x="114" y="14" on="1"/>
        <pt x="114" y="736" on="1"/>
        <pt x="41" y="736" on="1"/>
        <pt x="41" y="750" on="1"/>
        <pt x="128" y="750" on="1"/>
        <pt x="128" y="322" on="1"/>
        <pt x="125" y="277" on="1"/>
        <pt x="145" y="324" on="0"/>
        <pt x="233" y="382" on="0"/>
        <pt x="290" y="382" on="1"/>
        <pt x="343" y="382" on="0"/>
        <pt x="404" y="320" on="0"/>
        <pt x="406" y="270" on="1"/>
        <pt x="406" y="14" on="1"/>
        <pt x="487" y="14" on="1"/>
        <pt x="487" y="0" on="1"/>
        <pt x="313" y="0" on="1"/>
      </contour>
    </TTGlyph>
    <TTGlyph name="hyphen" xMin="53" yMin="184" xMax="237" yMax="198">
      <contour>
        <pt x="53" y="184" on="1"/>
        <pt x="53" y="198" on="1"/>
        <pt x="237" y="198" on="1"/>
        <pt x="237" y="184" on="1"/>
      </contour>
    </TTGlyph>
    <TTGlyph name="i" xMin="35" yMin="0" xMax="209" yMax="520">
      <contour>
        <pt x="35" y="14" on="1"/>
        <pt x="117" y="14" on="1"/>
        <pt x="117" y="361" on="1"/>
        <pt x="35" y="361" on="1"/>
        <pt x="35" y="375" on="1"/>
        <pt x="131" y="375" on="1"/>
        <pt x="131" y="14" on="1"/>
        <pt x="209" y="14" on="1"/>
        <pt x="209" y="0" on="1"/>
        <pt x="35" y="0" on="1"/>
      </contour>
      <contour>
        <pt x="104" y="500" on="1"/>
        <pt x="104" y="508" on="0"/>
        <pt x="116" y="520" on="0"/>
        <pt x="124" y="520" on="1"/>
        <pt x="132" y="520" on="0"/>
        <pt x="144" y="508" on="0"/>
        <pt x="144" y="500" on="1"/>
        <pt x="144" y="492" on="0"/>
        <pt x="132" y="480" on="0"/>
        <pt x="124" y="480" on="1"/>
        <pt x="116" y="480" on="0"/>
        <pt x="104" y="492" on="0"/>
      </contour>
    </TTGlyph>
    <TTGlyph name="iacute" xMin="35" yMin="0" xMax="224" yMax="612">
      <component glyphName="dotlessi" x="0" y="0" flags="0x204"/>
      <component glyphName="acute" x="18" y="0" flags="0x4"/>
    </TTGlyph>
    <TTGlyph name="icircumflex" xMin="6" yMin="0" xMax="246" yMax="660">
      <component glyphName="dotlessi" x="0" y="0" flags="0x204"/>
      <component glyphName="asciicircum" x="-106" y="0" flags="0x4"/>
    </TTGlyph>
    <TTGlyph name="idieresis" xMin="23" yMin="0" xMax="228" yMax="520">
      <component glyphName="dotlessi" x="0" y="0" flags="0x204"/>
      <component glyphName="dieresis" x="-59" y="0" flags="0x4"/>
    </TTGlyph>
    <TTGlyph name="igrave" xMin="24" yMin="0" xMax="209" yMax="612">
      <component glyphName="dotlessi" x="0" y="0" flags="0x204"/>
      <component glyphName="grave" x="38" y="0" flags="0x4"/>
    </TTGlyph>
    <TTGlyph name="j" xMin="35" yMin="-180" xMax="144" yMax="520">
      <contour>
        <pt x="35" y="375" on="1"/>
        <pt x="131" y="375" on="1"/>
        <pt x="131" y="-7" on="1"/>
        <pt x="131" y="-64" on="0"/>
        <pt x="100" y="-151" on="0"/>
        <pt x="74" y="-180" on="1"/>
        <pt x="62" y="-171" on="1"/>
        <pt x="87" y="-143" on="0"/>
        <pt x="117" y="-62" on="0"/>
        <pt x="117" y="-11" on="1"/>
        <pt x="117" y="361" on="1"/>
        <pt x="35" y="361" on="1"/>
      </contour>
      <contour>
        <pt x="104" y="500" on="1"/>
        <pt x="104" y="508" on="0"/>
        <pt x="116" y="520" on="0"/>
        <pt x="124" y="520" on="1"/>
        <pt x="132" y="520" on="0"/>
        <pt x="144" y="508" on="0"/>
        <pt x="144" y="500" on="1"/>
        <pt x="144" y="492" on="0"/>
        <pt x="132" y="480" on="0"/>
        <pt x="124" y="480" on="1"/>
        <pt x="116" y="480" on="0"/>
        <pt x="104" y="492" on="0"/>
      </contour>
    </TTGlyph>
    <TTGlyph name="k" xMin="34" yMin="0" xMax="452" yMax="750">
      <contour>
        <pt x="278" y="14" on="1"/>
        <pt x="351" y="14" on="1"/>
        <pt x="312" y="67" on="0"/>
        <pt x="233" y="171" on="0"/>
        <pt x="195" y="225" on="1"/>
        <pt x="121" y="155" on="1"/>
        <pt x="121" y="14" on="1"/>
        <pt x="209" y="14" on="1"/>
        <pt x="209" y="0" on="1"/>
        <pt x="35" y="0" on="1"/>
        <pt x="35" y="14" on="1"/>
        <pt x="107" y="14" on="1"/>
        <pt x="107" y="736" on="1"/>
        <pt x="34" y="736" on="1"/>
        <pt x="34" y="750" on="1"/>
        <pt x="121" y="750" on="1"/>
        <pt x="121" y="176" on="1"/>
        <pt x="319" y="361" on="1"/>
        <pt x="243" y="361" on="1"/>
        <pt x="243" y="375" on="1"/>
        <pt x="417" y="375" on="1"/>
        <pt x="417" y="361" on="1"/>
        <pt x="338" y="361" on="1"/>
        <pt x="320" y="343" on="0"/>
        <pt x="288" y="313" on="0"/>
        <pt x="258" y="283" on="0"/>
        <pt x="226" y="253" on="0"/>
        <pt x="207" y="235" on="1"/>
        <pt x="247" y="179" on="0"/>
        <pt x="328" y="69" on="0"/>
        <pt x="369" y="14" on="1"/>
        <pt x="452" y="14" on="1"/>
        <pt x="452" y="0" on="1"/>
        <pt x="278" y="0" on="1"/>
      </contour>
    </TTGlyph>
    <TTGlyph name="l" xMin="34" yMin="0" xMax="209" yMax="750">
      <contour>
        <pt x="35" y="14" on="1"/>
        <pt x="107" y="14" on="1"/>
        <pt x="107" y="736" on="1"/>
        <pt x="34" y="736" on="1"/>
        <pt x="34" y="750" on="1"/>
        <pt x="121" y="750" on="1"/>
        <pt x="121" y="14" on="1"/>
        <pt x="209" y="14" on="1"/>
        <pt x="209" y="0" on="1"/>
        <pt x="35" y="0" on="1"/>
      </contour>
    </TTGlyph>
    <TTGlyph name="less" xMin="115" yMin="-15" xMax="553" yMax="491">
      <contour>
        <pt x="553" y="1" on="1"/>
        <pt x="553" y="-15" on="1"/>
        <pt x="443" y="48" on="0"/>
        <pt x="225" y="175" on="0"/>
        <pt x="115" y="238" on="1"/>
        <pt x="225" y="301" on="0"/>
        <pt x="443" y="428" on="0"/>
        <pt x="553" y="491" on="1"/>
        <pt x="553" y="475" on="1"/>
        <pt x="450" y="415" on="0"/>
        <pt x="244" y="298" on="0"/>
        <pt x="141" y="238" on="1"/>
        <pt x="244" y="178" on="0"/>
        <pt x="450" y="61" on="0"/>
      </contour>
    </TTGlyph>
    <TTGlyph name="logicalnot" xMin="100" yMin="148" xMax="460" yMax="241">
      <contour>
        <pt x="446" y="148" on="1"/>
        <pt x="446" y="227" on="1"/>
        <pt x="100" y="227" on="1"/>
        <pt x="100" y="241" on="1"/>
        <pt x="460" y="241" on="1"/>
        <pt x="460" y="148" on="1"/>
      </contour>
    </TTGlyph>
    <TTGlyph name="m" xMin="35" yMin="0" xMax="765" yMax="382">
      <contour>
        <pt x="591" y="14" on="1"/>
        <pt x="670" y="14" on="1"/>
        <pt x="670" y="277" on="1"/>
        <pt x="668" y="313" on="0"/>
        <pt x="619" y="366" on="0"/>
        <pt x="575" y="368" on="1"/>
        <pt x="542" y="368" on="0"/>
        <pt x="482" y="347" on="0"/>
        <pt x="436" y="309" on="0"/>
        <pt x="407" y="257" on="0"/>
        <pt x="406" y="226" on="1"/>
        <pt x="406" y="14" on="1"/>
        <pt x="487" y="14" on="1"/>
        <pt x="487" y="0" on="1"/>
        <pt x="313" y="0" on="1"/>
        <pt x="313" y="14" on="1"/>
        <pt x="392" y="14" on="1"/>
        <pt x="392" y="277" on="1"/>
        <pt x="390" y="313" on="0"/>
        <pt x="341" y="366" on="0"/>
        <pt x="297" y="368" on="1"/>
        <pt x="263" y="368" on="0"/>
        <pt x="202" y="346" on="0"/>
        <pt x="155" y="307" on="0"/>
        <pt x="128" y="252" on="0"/>
        <pt x="128" y="220" on="1"/>
        <pt x="128" y="14" on="1"/>
        <pt x="209" y="14" on="1"/>
        <pt x="209" y="0" on="1"/>
        <pt x="35" y="0" on="1"/>
        <pt x="35" y="14" on="1"/>
        <pt x="114" y="14" on="1"/>
        <pt x="114" y="361" on="1"/>
        <pt x="39" y="361" on="1"/>
        <pt x="39" y="375" on="1"/>
        <pt x="122" y="375" on="1"/>
        <pt x="124" y="322" on="1"/>
        <pt x="124" y="309" on="0"/>
        <pt x="125" y="290" on="0"/>
        <pt x="125" y="277" on="1"/>
        <pt x="145" y="324" on="0"/>
        <pt x="233" y="382" on="0"/>
        <pt x="290" y="382" on="1"/>
        <pt x="339" y="382" on="0"/>
        <pt x="400" y="327" on="0"/>
        <pt x="405" y="282" on="1"/>
        <pt x="426" y="327" on="0"/>
        <pt x="513" y="382" on="0"/>
        <pt x="568" y="382" on="1"/>
        <pt x="621" y="382" on="0"/>
        <pt x="682" y="320" on="0"/>
        <pt x="684" y="270" on="1"/>
        <pt x="684" y="14" on="1"/>
        <pt x="765" y="14" on="1"/>
        <pt x="765" y="0" on="1"/>
        <pt x="591" y="0" on="1"/>
      </contour>
    </TTGlyph>
    <TTGlyph name="macron" xMin="85" yMin="492" xMax="315" yMax="506">
      <contour>
        <pt x="85" y="492" on="1"/>
        <pt x="85" y="506" on="1"/>
        <pt x="315" y="506" on="1"/>
        <pt x="315" y="492" on="1"/>
      </contour>
    </TTGlyph>
    <TTGlyph name="mu" xMin="38" yMin="-201" xMax="486" yMax="375">
      <contour>
        <pt x="316" y="375" on="1"/>
        <pt x="409" y="375" on="1"/>
        <pt x="409" y="14" on="1"/>
        <pt x="486" y="14" on="1"/>
        <pt x="486" y="0" on="1"/>
        <pt x="403" y="0" on="1"/>
        <pt x="400" y="53" on="1"/>
        <pt x="398" y="98" on="1"/>
        <pt x="378" y="50" on="0"/>
        <pt x="289" y="-7" on="0"/>
        <pt x="233" y="-7" on="1"/>
        <pt x="197" y="-7" on="0"/>
        <pt x="145" y="23" on="0"/>
        <pt x="131" y="49" on="1"/>
        <pt x="131" y="-201" on="1"/>
        <pt x="117" y="-201" on="1"/>
        <pt x="117" y="361" on="1"/>
        <pt x="38" y="361" on="1"/>
        <pt x="38" y="375" on="1"/>
        <pt x="131" y="375" on="1"/>
        <pt x="131" y="98" on="1"/>
        <pt x="133" y="62" on="0"/>
        <pt x="182" y="9" on="0"/>
        <pt x="226" y="7" on="1"/>
        <pt x="260" y="7" on="0"/>
        <pt x="321" y="29" on="0"/>
        <pt x="367" y="68" on="0"/>
        <pt x="395" y="123" on="0"/>
        <pt x="395" y="155" on="1"/>
        <pt x="395" y="361" on="1"/>
        <pt x="316" y="361" on="1"/>
      </contour>
    </TTGlyph>
    <TTGlyph name="multiply" xMin="130" yMin="0" xMax="395" yMax="265">
      <contour>
        <pt x="385" y="0" on="1"/>
        <pt x="262" y="123" on="1"/>
        <pt x="231" y="92" on="0"/>
        <pt x="171" y="31" on="0"/>
        <pt x="140" y="0" on="1"/>
        <pt x="130" y="10" on="1"/>
        <pt x="161" y="41" on="0"/>
        <pt x="221" y="102" on="0"/>
        <pt x="252" y="133" on="1"/>
        <pt x="131" y="254" on="1"/>
        <pt x="141" y="264" on="1"/>
        <pt x="262" y="143" on="1"/>
        <pt x="293" y="174" on="0"/>
        <pt x="354" y="234" on="0"/>
        <pt x="385" y="265" on="1"/>
        <pt x="395" y="255" on="1"/>
        <pt x="364" y="224" on="0"/>
        <pt x="303" y="164" on="0"/>
        <pt x="272" y="133" on="1"/>
        <pt x="395" y="10" on="1"/>
      </contour>
    </TTGlyph>
    <TTGlyph name="n" xMin="35" yMin="0" xMax="487" yMax="382">
      <contour>
        <pt x="313" y="14" on="1"/>
        <pt x="392" y="14" on="1"/>
        <pt x="392" y="277" on="1"/>
        <pt x="390" y="313" on="0"/>
        <pt x="341" y="366" on="0"/>
        <pt x="297" y="368" on="1"/>
        <pt x="263" y="368" on="0"/>
        <pt x="202" y="346" on="0"/>
        <pt x="155" y="307" on="0"/>
        <pt x="128" y="252" on="0"/>
        <pt x="128" y="220" on="1"/>
        <pt x="128" y="14" on="1"/>
        <pt x="209" y="14" on="1"/>
        <pt x="209" y="0" on="1"/>
        <pt x="35" y="0" on="1"/>
        <pt x="35" y="14" on="1"/>
        <pt x="114" y="14" on="1"/>
        <pt x="114" y="361" on="1"/>
        <pt x="39" y="361" on="1"/>
        <pt x="39" y="375" on="1"/>
        <pt x="122" y="375" on="1"/>
        <pt x="124" y="322" on="1"/>
        <pt x="124" y="309" on="0"/>
        <pt x="125" y="290" on="0"/>
        <pt x="125" y="277" on="1"/>
        <pt x="145" y="324" on="0"/>
        <pt x="233" y="382" on="0"/>
        <pt x="290" y="382" on="1"/>
        <pt x="343" y="382" on="0"/>
        <pt x="404" y="320" on="0"/>
        <pt x="406" y="270" on="1"/>
        <pt x="406" y="14" on="1"/>
        <pt x="487" y="14" on="1"/>
        <pt x="487" y="0" on="1"/>
        <pt x="313" y="0" on="1"/>
      </contour>
    </TTGlyph>
    <TTGlyph name="nine" xMin="55" yMin="-8" xMax="463" yMax="633">
      <contour>
        <pt x="450" y="432" on="1"/>
        <pt x="450" y="471" on="0"/>
        <pt x="420" y="539" on="0"/>
        <pt x="369" y="590" on="0"/>
        <pt x="299" y="619" on="0"/>
        <pt x="260" y="619" on="1"/>
        <pt x="221" y="619" on="0"/>
        <pt x="151" y="590" on="0"/>
        <pt x="99" y="539" on="0"/>
        <pt x="69" y="471" on="0"/>
        <pt x="69" y="432" on="1"/>
        <pt x="69" y="393" on="0"/>
        <pt x="99" y="324" on="0"/>
        <pt x="151" y="273" on="0"/>
        <pt x="221" y="244" on="0"/>
        <pt x="260" y="244" on="1"/>
        <pt x="299" y="244" on="0"/>
        <pt x="369" y="273" on="0"/>
        <pt x="420" y="324" on="0"/>
        <pt x="450" y="393" on="0"/>
      </contour>
      <contour>
        <pt x="463" y="432" on="1"/>
        <pt x="463" y="359" on="0"/>
        <pt x="401" y="234" on="0"/>
        <pt x="305" y="126" on="0"/>
        <pt x="187" y="33" on="0"/>
        <pt x="131" y="-8" on="1"/>
        <pt x="129" y="-5" on="0"/>
        <pt x="123" y="2" on="0"/>
        <pt x="121" y="5" on="1"/>
        <pt x="188" y="49" on="0"/>
        <pt x="290" y="135" on="0"/>
        <pt x="363" y="214" on="0"/>
        <pt x="410" y="283" on="0"/>
        <pt x="422" y="311" on="1"/>
        <pt x="394" y="274" on="0"/>
        <pt x="310" y="230" on="0"/>
        <pt x="259" y="230" on="1"/>
        <pt x="217" y="230" on="0"/>
        <pt x="142" y="262" on="0"/>
        <pt x="87" y="317" on="0"/>
        <pt x="55" y="390" on="0"/>
        <pt x="55" y="432" on="1"/>
        <pt x="55" y="474" on="0"/>
        <pt x="87" y="547" on="0"/>
        <pt x="142" y="601" on="0"/>
        <pt x="217" y="633" on="0"/>
        <pt x="259" y="633" on="1"/>
        <pt x="301" y="633" on="0"/>
        <pt x="376" y="601" on="0"/>
        <pt x="431" y="547" on="0"/>
        <pt x="463" y="474" on="0"/>
      </contour>
    </TTGlyph>
    <TTGlyph name="ntilde" xMin="35" yMin="0" xMax="487" yMax="531">
      <component glyphName="n" x="0" y="0" flags="0x204"/>
      <component glyphName="asciitilde" x="-1" y="-10" flags="0x4"/>
    </TTGlyph>
    <TTGlyph name="numbersign" xMin="29" yMin="0" xMax="504" yMax="643">
      <contour>
        <pt x="182" y="407" on="1"/>
        <pt x="177" y="365" on="0"/>
        <pt x="167" y="281" on="0"/>
        <pt x="162" y="239" on="1"/>
        <pt x="332" y="239" on="1"/>
        <pt x="337" y="281" on="0"/>
        <pt x="347" y="365" on="0"/>
        <pt x="352" y="407" on="1"/>
      </contour>
      <contour>
        <pt x="304" y="0" on="1"/>
        <pt x="311" y="57" on="0"/>
        <pt x="323" y="168" on="0"/>
        <pt x="330" y="225" on="1"/>
        <pt x="160" y="225" on="1"/>
        <pt x="153" y="168" on="0"/>
        <pt x="141" y="57" on="0"/>
        <pt x="134" y="0" on="1"/>
        <pt x="120" y="0" on="1"/>
        <pt x="127" y="57" on="0"/>
        <pt x="139" y="168" on="0"/>
        <pt x="146" y="225" on="1"/>
        <pt x="29" y="225" on="1"/>
        <pt x="29" y="229" on="0"/>
        <pt x="30" y="235" on="0"/>
        <pt x="30" y="239" on="1"/>
        <pt x="148" y="239" on="1"/>
        <pt x="153" y="281" on="0"/>
        <pt x="163" y="365" on="0"/>
        <pt x="168" y="407" on="1"/>
        <pt x="52" y="407" on="1"/>
        <pt x="52" y="411" on="0"/>
        <pt x="53" y="417" on="0"/>
        <pt x="53" y="421" on="1"/>
        <pt x="170" y="421" on="1"/>
        <pt x="197" y="643" on="1"/>
        <pt x="211" y="643" on="1"/>
        <pt x="184" y="421" on="1"/>
        <pt x="354" y="421" on="1"/>
        <pt x="381" y="643" on="1"/>
        <pt x="395" y="643" on="1"/>
        <pt x="368" y="421" on="1"/>
        <pt x="504" y="421" on="1"/>
        <pt x="504" y="417" on="0"/>
        <pt x="503" y="411" on="0"/>
        <pt x="503" y="407" on="1"/>
        <pt x="366" y="407" on="1"/>
        <pt x="361" y="365" on="0"/>
        <pt x="351" y="281" on="0"/>
        <pt x="346" y="239" on="1"/>
        <pt x="481" y="239" on="1"/>
        <pt x="481" y="235" on="0"/>
        <pt x="480" y="229" on="0"/>
        <pt x="480" y="225" on="1"/>
        <pt x="344" y="225" on="1"/>
        <pt x="337" y="168" on="0"/>
        <pt x="325" y="57" on="0"/>
        <pt x="318" y="0" on="1"/>
      </contour>
    </TTGlyph>
    <TTGlyph name="o" xMin="36" yMin="-6" xMax="426" yMax="384">
      <contour>
        <pt x="36" y="188" on="1"/>
        <pt x="36" y="228" on="0"/>
        <pt x="66" y="300" on="0"/>
        <pt x="119" y="353" on="0"/>
        <pt x="189" y="384" on="0"/>
        <pt x="230" y="384" on="1"/>
        <pt x="270" y="384" on="0"/>
        <pt x="342" y="353" on="0"/>
        <pt x="395" y="300" on="0"/>
        <pt x="426" y="228" on="0"/>
        <pt x="426" y="188" on="1"/>
        <pt x="426" y="147" on="0"/>
        <pt x="395" y="77" on="0"/>
        <pt x="342" y="24" on="0"/>
        <pt x="270" y="-6" on="0"/>
        <pt x="230" y="-6" on="1"/>
        <pt x="189" y="-6" on="0"/>
        <pt x="119" y="24" on="0"/>
        <pt x="66" y="77" on="0"/>
        <pt x="36" y="147" on="0"/>
      </contour>
      <contour>
        <pt x="50" y="188" on="1"/>
        <pt x="50" y="150" on="0"/>
        <pt x="78" y="85" on="0"/>
        <pt x="127" y="36" on="0"/>
        <pt x="192" y="8" on="0"/>
        <pt x="230" y="8" on="1"/>
        <pt x="267" y="8" on="0"/>
        <pt x="333" y="36" on="0"/>
        <pt x="383" y="85" on="0"/>
        <pt x="411" y="150" on="0"/>
        <pt x="411" y="188" on="1"/>
        <pt x="411" y="225" on="0"/>
        <pt x="383" y="291" on="0"/>
        <pt x="333" y="341" on="0"/>
        <pt x="267" y="369" on="0"/>
        <pt x="230" y="369" on="1"/>
        <pt x="192" y="369" on="0"/>
        <pt x="127" y="341" on="0"/>
        <pt x="78" y="291" on="0"/>
        <pt x="50" y="225" on="0"/>
      </contour>
    </TTGlyph>
    <TTGlyph name="oacute" xMin="36" yMin="-6" xMax="426" yMax="612">
      <component glyphName="o" x="0" y="0" flags="0x204"/>
      <component glyphName="acute" x="131" y="0" flags="0x4"/>
    </TTGlyph>
    <TTGlyph name="ocircumflex" xMin="36" yMin="-6" xMax="426" yMax="660">
      <component glyphName="o" x="0" y="0" flags="0x204"/>
      <component glyphName="asciicircum" x="3" y="0" flags="0x4"/>
    </TTGlyph>
    <TTGlyph name="odieresis" xMin="36" yMin="-6" xMax="426" yMax="520">
      <component glyphName="o" x="0" y="0" flags="0x204"/>
      <component glyphName="dieresis" x="50" y="0" flags="0x4"/>
    </TTGlyph>
    <TTGlyph name="ograve" xMin="36" yMin="-6" xMax="426" yMax="612">
      <component glyphName="o" x="0" y="0" flags="0x204"/>
      <component glyphName="grave" x="147" y="0" flags="0x4"/>
    </TTGlyph>
    <TTGlyph name="one" xMin="34" yMin="0" xMax="241" yMax="650">
      <contour>
        <pt x="67" y="14" on="1"/>
        <pt x="147" y="14" on="1"/>
        <pt x="147" y="636" on="1"/>
        <pt x="34" y="636" on="1"/>
        <pt x="34" y="650" on="1"/>
        <pt x="161" y="650" on="1"/>
        <pt x="161" y="14" on="1"/>
        <pt x="241" y="14" on="1"/>
        <pt x="241" y="0" on="1"/>
        <pt x="67" y="0" on="1"/>
      </contour>
    </TTGlyph>
    <TTGlyph name="onehalf" xMin="121" yMin="-19" xMax="870" yMax="735">
      <contour>
        <pt x="145" y="244" on="1"/>
        <pt x="201" y="244" on="1"/>
        <pt x="201" y="685" on="1"/>
        <pt x="121" y="685" on="1"/>
        <pt x="121" y="695" on="1"/>
        <pt x="211" y="695" on="1"/>
        <pt x="211" y="244" on="1"/>
        <pt x="268" y="244" on="1"/>
        <pt x="268" y="234" on="1"/>
        <pt x="145" y="234" on="1"/>
      </contour>
      <contour>
        <pt x="616" y="10" on="1"/>
        <pt x="860" y="10" on="1"/>
        <pt x="860" y="90" on="1"/>
        <pt x="870" y="90" on="1"/>
        <pt x="870" y="0" on="1"/>
        <pt x="590" y="0" on="1"/>
        <pt x="636" y="44" on="0"/>
        <pt x="722" y="129" on="0"/>
        <pt x="788" y="211" on="0"/>
        <pt x="828" y="286" on="0"/>
        <pt x="828" y="319" on="1"/>
        <pt x="828" y="359" on="0"/>
        <pt x="805" y="411" on="0"/>
        <pt x="771" y="442" on="0"/>
        <pt x="732" y="455" on="0"/>
        <pt x="714" y="455" on="1"/>
        <pt x="679" y="455" on="0"/>
        <pt x="634" y="430" on="0"/>
        <pt x="608" y="393" on="0"/>
        <pt x="598" y="350" on="0"/>
        <pt x="598" y="331" on="1"/>
        <pt x="598" y="281" on="0"/>
        <pt x="627" y="251" on="1"/>
        <pt x="620" y="245" on="1"/>
        <pt x="605" y="262" on="0"/>
        <pt x="588" y="302" on="0"/>
        <pt x="588" y="331" on="1"/>
        <pt x="588" y="360" on="0"/>
        <pt x="605" y="408" on="0"/>
        <pt x="636" y="444" on="0"/>
        <pt x="684" y="465" on="0"/>
        <pt x="714" y="465" on="1"/>
        <pt x="742" y="465" on="0"/>
        <pt x="787" y="444" on="0"/>
        <pt x="820" y="408" on="0"/>
        <pt x="838" y="358" on="0"/>
        <pt x="838" y="328" on="1"/>
        <pt x="838" y="287" on="0"/>
        <pt x="796" y="206" on="0"/>
        <pt x="731" y="126" on="0"/>
        <pt x="653" y="48" on="0"/>
      </contour>
      <contour>
        <pt x="295" y="-19" on="1"/>
        <pt x="365" y="171" on="0"/>
        <pt x="503" y="545" on="0"/>
        <pt x="573" y="735" on="1"/>
        <pt x="587" y="735" on="1"/>
        <pt x="517" y="545" on="0"/>
        <pt x="379" y="171" on="0"/>
        <pt x="309" y="-19" on="1"/>
      </contour>
    </TTGlyph>
    <TTGlyph name="onequarter" xMin="138" yMin="-19" xMax="845" yMax="735">
      <contour>
        <pt x="295" y="-19" on="1"/>
        <pt x="365" y="171" on="0"/>
        <pt x="503" y="545" on="0"/>
        <pt x="573" y="735" on="1"/>
        <pt x="587" y="735" on="1"/>
        <pt x="517" y="545" on="0"/>
        <pt x="379" y="171" on="0"/>
        <pt x="309" y="-19" on="1"/>
      </contour>
      <contour>
        <pt x="706" y="10" on="1"/>
        <pt x="763" y="10" on="1"/>
        <pt x="763" y="136" on="1"/>
        <pt x="501" y="136" on="1"/>
        <pt x="773" y="490" on="1"/>
        <pt x="773" y="147" on="1"/>
        <pt x="845" y="147" on="1"/>
        <pt x="845" y="136" on="1"/>
        <pt x="773" y="136" on="1"/>
        <pt x="773" y="10" on="1"/>
        <pt x="835" y="10" on="1"/>
        <pt x="835" y="0" on="1"/>
        <pt x="706" y="0" on="1"/>
      </contour>
      <contour>
        <pt x="763" y="459" on="1"/>
        <pt x="524" y="147" on="1"/>
        <pt x="763" y="147" on="1"/>
      </contour>
      <contour>
        <pt x="161" y="244" on="1"/>
        <pt x="218" y="244" on="1"/>
        <pt x="218" y="685" on="1"/>
        <pt x="138" y="685" on="1"/>
        <pt x="138" y="695" on="1"/>
        <pt x="228" y="695" on="1"/>
        <pt x="228" y="244" on="1"/>
        <pt x="285" y="244" on="1"/>
        <pt x="285" y="234" on="1"/>
        <pt x="161" y="234" on="1"/>
      </contour>
    </TTGlyph>
    <TTGlyph name="onesuperior" xMin="70" yMin="401" xMax="164" yMax="700">
      <contour>
        <pt x="85" y="407" on="1"/>
        <pt x="121" y="407" on="1"/>
        <pt x="121" y="694" on="1"/>
        <pt x="70" y="694" on="1"/>
        <pt x="70" y="700" on="1"/>
        <pt x="128" y="700" on="1"/>
        <pt x="128" y="407" on="1"/>
        <pt x="164" y="407" on="1"/>
        <pt x="164" y="401" on="1"/>
        <pt x="85" y="401" on="1"/>
      </contour>
    </TTGlyph>
    <TTGlyph name="ordfeminine" xMin="83" yMin="302" xMax="417" yMax="582">
      <contour>
        <pt x="83" y="442" on="1"/>
        <pt x="83" y="470" on="0"/>
        <pt x="105" y="522" on="0"/>
        <pt x="143" y="560" on="0"/>
        <pt x="194" y="582" on="0"/>
        <pt x="223" y="582" on="1"/>
        <pt x="268" y="582" on="0"/>
        <pt x="338" y="532" on="0"/>
        <pt x="354" y="494" on="1"/>
        <pt x="354" y="514" on="0"/>
        <pt x="355" y="556" on="0"/>
        <pt x="357" y="576" on="1"/>
        <pt x="364" y="576" on="1"/>
        <pt x="364" y="316" on="1"/>
        <pt x="417" y="316" on="1"/>
        <pt x="417" y="306" on="1"/>
        <pt x="354" y="306" on="1"/>
        <pt x="354" y="345" on="1"/>
        <pt x="354" y="356" on="0"/>
        <pt x="354" y="379" on="0"/>
        <pt x="354" y="390" on="1"/>
        <pt x="347" y="371" on="0"/>
        <pt x="321" y="338" on="0"/>
        <pt x="287" y="315" on="0"/>
        <pt x="246" y="302" on="0"/>
        <pt x="223" y="302" on="1"/>
        <pt x="194" y="302" on="0"/>
        <pt x="143" y="323" on="0"/>
        <pt x="105" y="362" on="0"/>
        <pt x="83" y="412" on="0"/>
      </contour>
      <contour>
        <pt x="93" y="442" on="1"/>
        <pt x="93" y="414" on="0"/>
        <pt x="114" y="367" on="0"/>
        <pt x="149" y="332" on="0"/>
        <pt x="196" y="312" on="0"/>
        <pt x="223" y="312" on="1"/>
        <pt x="250" y="312" on="0"/>
        <pt x="297" y="332" on="0"/>
        <pt x="334" y="367" on="0"/>
        <pt x="354" y="414" on="0"/>
        <pt x="354" y="442" on="1"/>
        <pt x="354" y="468" on="0"/>
        <pt x="334" y="516" on="0"/>
        <pt x="297" y="552" on="0"/>
        <pt x="250" y="572" on="0"/>
        <pt x="223" y="572" on="1"/>
        <pt x="196" y="572" on="0"/>
        <pt x="149" y="552" on="0"/>
        <pt x="114" y="516" on="0"/>
        <pt x="93" y="468" on="0"/>
      </contour>
    </TTGlyph>
    <TTGlyph name="ordmasculine" xMin="91" yMin="302" xMax="372" yMax="583">
      <contour>
        <pt x="91" y="442" on="1"/>
        <pt x="91" y="470" on="0"/>
        <pt x="113" y="522" on="0"/>
        <pt x="151" y="561" on="0"/>
        <pt x="201" y="583" on="0"/>
        <pt x="231" y="583" on="1"/>
        <pt x="260" y="583" on="0"/>
        <pt x="312" y="561" on="0"/>
        <pt x="350" y="522" on="0"/>
        <pt x="372" y="470" on="0"/>
        <pt x="372" y="442" on="1"/>
        <pt x="372" y="412" on="0"/>
        <pt x="350" y="362" on="0"/>
        <pt x="312" y="323" on="0"/>
        <pt x="260" y="302" on="0"/>
        <pt x="231" y="302" on="1"/>
        <pt x="201" y="302" on="0"/>
        <pt x="151" y="323" on="0"/>
        <pt x="113" y="362" on="0"/>
        <pt x="91" y="412" on="0"/>
      </contour>
      <contour>
        <pt x="101" y="442" on="1"/>
        <pt x="101" y="414" on="0"/>
        <pt x="121" y="367" on="0"/>
        <pt x="157" y="332" on="0"/>
        <pt x="203" y="312" on="0"/>
        <pt x="231" y="312" on="1"/>
        <pt x="258" y="312" on="0"/>
        <pt x="305" y="332" on="0"/>
        <pt x="341" y="367" on="0"/>
        <pt x="361" y="414" on="0"/>
        <pt x="361" y="442" on="1"/>
        <pt x="361" y="468" on="0"/>
        <pt x="341" y="516" on="0"/>
        <pt x="305" y="552" on="0"/>
        <pt x="258" y="572" on="0"/>
        <pt x="231" y="572" on="1"/>
        <pt x="203" y="572" on="0"/>
        <pt x="157" y="552" on="0"/>
        <pt x="121" y="516" on="0"/>
        <pt x="101" y="468" on="0"/>
      </contour>
    </TTGlyph>
    <TTGlyph name="oslash" xMin="35" yMin="-8" xMax="424" yMax="383">
      <contour>
        <pt x="49" y="188" on="1"/>
        <pt x="49" y="150" on="0"/>
        <pt x="78" y="83" on="0"/>
        <pt x="103" y="58" on="1"/>
        <pt x="161" y="127" on="0"/>
        <pt x="276" y="266" on="0"/>
        <pt x="334" y="335" on="1"/>
        <pt x="312" y="351" on="0"/>
        <pt x="258" y="369" on="0"/>
        <pt x="229" y="369" on="1"/>
        <pt x="191" y="369" on="0"/>
        <pt x="126" y="341" on="0"/>
        <pt x="77" y="291" on="0"/>
        <pt x="49" y="225" on="0"/>
      </contour>
      <contour>
        <pt x="229" y="8" on="1"/>
        <pt x="266" y="8" on="0"/>
        <pt x="332" y="36" on="0"/>
        <pt x="382" y="85" on="0"/>
        <pt x="410" y="150" on="0"/>
        <pt x="410" y="188" on="1"/>
        <pt x="410" y="230" on="0"/>
        <pt x="374" y="302" on="0"/>
        <pt x="344" y="327" on="1"/>
        <pt x="286" y="258" on="0"/>
        <pt x="170" y="119" on="0"/>
        <pt x="112" y="50" on="1"/>
        <pt x="162" y="8" on="0"/>
      </contour>
      <contour>
        <pt x="35" y="188" on="1"/>
        <pt x="35" y="228" on="0"/>
        <pt x="65" y="300" on="0"/>
        <pt x="118" y="352" on="0"/>
        <pt x="188" y="383" on="0"/>
        <pt x="229" y="383" on="1"/>
        <pt x="261" y="383" on="0"/>
        <pt x="320" y="363" on="0"/>
        <pt x="344" y="346" on="1"/>
        <pt x="352" y="355" on="0"/>
        <pt x="367" y="374" on="0"/>
        <pt x="375" y="383" on="1"/>
        <pt x="377" y="381" on="0"/>
        <pt x="382" y="377" on="0"/>
        <pt x="384" y="375" on="1"/>
        <pt x="376" y="366" on="0"/>
        <pt x="361" y="347" on="0"/>
        <pt x="353" y="338" on="1"/>
        <pt x="385" y="312" on="0"/>
        <pt x="424" y="233" on="0"/>
        <pt x="424" y="188" on="1"/>
        <pt x="424" y="147" on="0"/>
        <pt x="393" y="77" on="0"/>
        <pt x="341" y="24" on="0"/>
        <pt x="269" y="-6" on="0"/>
        <pt x="229" y="-6" on="1"/>
        <pt x="193" y="-6" on="0"/>
        <pt x="129" y="18" on="0"/>
        <pt x="103" y="39" on="1"/>
        <pt x="93" y="27" on="0"/>
        <pt x="74" y="4" on="0"/>
        <pt x="64" y="-8" on="1"/>
        <pt x="62" y="-6" on="0"/>
        <pt x="57" y="-2" on="0"/>
        <pt x="55" y="0" on="1"/>
        <pt x="65" y="12" on="0"/>
        <pt x="84" y="35" on="0"/>
        <pt x="94" y="47" on="1"/>
        <pt x="66" y="73" on="0"/>
        <pt x="35" y="146" on="0"/>
      </contour>
    </TTGlyph>
    <TTGlyph name="otilde" xMin="36" yMin="-6" xMax="426" yMax="541">
      <component glyphName="o" x="0" y="0" flags="0x204"/>
      <component glyphName="asciitilde" x="-33" y="0" flags="0x4"/>
    </TTGlyph>
    <TTGlyph name="p" xMin="35" yMin="-250" xMax="497" yMax="381">
      <contour>
        <pt x="42" y="-236" on="1"/>
        <pt x="108" y="-236" on="1"/>
        <pt x="108" y="361" on="1"/>
        <pt x="35" y="361" on="1"/>
        <pt x="35" y="375" on="1"/>
        <pt x="118" y="375" on="1"/>
        <pt x="118" y="346" on="0"/>
        <pt x="121" y="286" on="0"/>
        <pt x="121" y="257" on="1"/>
        <pt x="142" y="312" on="0"/>
        <pt x="240" y="381" on="0"/>
        <pt x="303" y="381" on="1"/>
        <pt x="343" y="381" on="0"/>
        <pt x="414" y="351" on="0"/>
        <pt x="467" y="298" on="0"/>
        <pt x="497" y="227" on="0"/>
        <pt x="497" y="187" on="1"/>
        <pt x="497" y="146" on="0"/>
        <pt x="467" y="75" on="0"/>
        <pt x="414" y="23" on="0"/>
        <pt x="343" y="-8" on="0"/>
        <pt x="303" y="-8" on="1"/>
        <pt x="272" y="-8" on="0"/>
        <pt x="215" y="10" on="0"/>
        <pt x="168" y="43" on="0"/>
        <pt x="132" y="88" on="0"/>
        <pt x="122" y="115" on="1"/>
        <pt x="122" y="101" on="0"/>
        <pt x="123" y="75" on="0"/>
        <pt x="123" y="61" on="1"/>
        <pt x="123" y="-236" on="1"/>
        <pt x="216" y="-236" on="1"/>
        <pt x="216" y="-250" on="1"/>
        <pt x="42" y="-250" on="1"/>
      </contour>
      <contour>
        <pt x="483" y="187" on="1"/>
        <pt x="483" y="224" on="0"/>
        <pt x="455" y="290" on="0"/>
        <pt x="406" y="339" on="0"/>
        <pt x="340" y="367" on="0"/>
        <pt x="303" y="367" on="1"/>
        <pt x="265" y="367" on="0"/>
        <pt x="200" y="339" on="0"/>
        <pt x="150" y="290" on="0"/>
        <pt x="122" y="224" on="0"/>
        <pt x="122" y="187" on="1"/>
        <pt x="122" y="149" on="0"/>
        <pt x="150" y="84" on="0"/>
        <pt x="200" y="34" on="0"/>
        <pt x="265" y="6" on="0"/>
        <pt x="303" y="6" on="1"/>
        <pt x="340" y="6" on="0"/>
        <pt x="406" y="34" on="0"/>
        <pt x="455" y="84" on="0"/>
        <pt x="483" y="149" on="0"/>
      </contour>
    </TTGlyph>
    <TTGlyph name="paragraph" xMin="38" yMin="0" xMax="486" yMax="750">
      <contour>
        <pt x="215" y="0" on="1"/>
        <pt x="201" y="0" on="1"/>
        <pt x="201" y="423" on="1"/>
        <pt x="167" y="423" on="0"/>
        <pt x="107" y="448" on="0"/>
        <pt x="63" y="492" on="0"/>
        <pt x="38" y="552" on="0"/>
        <pt x="38" y="586" on="1"/>
        <pt x="38" y="620" on="0"/>
        <pt x="63" y="680" on="0"/>
        <pt x="107" y="724" on="0"/>
        <pt x="167" y="750" on="0"/>
        <pt x="201" y="750" on="1"/>
        <pt x="486" y="750" on="1"/>
        <pt x="486" y="736" on="1"/>
        <pt x="378" y="736" on="1"/>
        <pt x="378" y="14" on="1"/>
        <pt x="486" y="14" on="1"/>
        <pt x="486" y="0" on="1"/>
        <pt x="364" y="0" on="1"/>
        <pt x="364" y="736" on="1"/>
        <pt x="215" y="736" on="1"/>
      </contour>
    </TTGlyph>
    <TTGlyph name="parenleft" xMin="147" yMin="-163" xMax="315" yMax="747">
      <contour>
        <pt x="147" y="292" on="1"/>
        <pt x="147" y="367" on="0"/>
        <pt x="175" y="503" on="0"/>
        <pt x="221" y="619" on="0"/>
        <pt x="280" y="714" on="0"/>
        <pt x="312" y="747" on="1"/>
        <pt x="313" y="741" on="0"/>
        <pt x="314" y="730" on="0"/>
        <pt x="315" y="724" on="1"/>
        <pt x="286" y="691" on="0"/>
        <pt x="231" y="601" on="0"/>
        <pt x="187" y="491" on="0"/>
        <pt x="161" y="363" on="0"/>
        <pt x="161" y="292" on="1"/>
        <pt x="161" y="221" on="0"/>
        <pt x="187" y="93" on="0"/>
        <pt x="231" y="-17" on="0"/>
        <pt x="286" y="-107" on="0"/>
        <pt x="315" y="-140" on="1"/>
        <pt x="314" y="-146" on="0"/>
        <pt x="313" y="-157" on="0"/>
        <pt x="312" y="-163" on="1"/>
        <pt x="280" y="-130" on="0"/>
        <pt x="221" y="-35" on="0"/>
        <pt x="175" y="81" on="0"/>
        <pt x="147" y="217" on="0"/>
      </contour>
    </TTGlyph>
    <TTGlyph name="parenright" xMin="111" yMin="-163" xMax="279" yMax="747">
      <contour>
        <pt x="279" y="292" on="1"/>
        <pt x="279" y="217" on="0"/>
        <pt x="251" y="81" on="0"/>
        <pt x="205" y="-35" on="0"/>
        <pt x="145" y="-130" on="0"/>
        <pt x="114" y="-163" on="1"/>
        <pt x="113" y="-157" on="0"/>
        <pt x="112" y="-146" on="0"/>
        <pt x="111" y="-140" on="1"/>
        <pt x="140" y="-107" on="0"/>
        <pt x="195" y="-17" on="0"/>
        <pt x="239" y="93" on="0"/>
        <pt x="265" y="221" on="0"/>
        <pt x="265" y="292" on="1"/>
        <pt x="265" y="363" on="0"/>
        <pt x="239" y="491" on="0"/>
        <pt x="195" y="601" on="0"/>
        <pt x="140" y="691" on="0"/>
        <pt x="111" y="724" on="1"/>
        <pt x="112" y="730" on="0"/>
        <pt x="113" y="741" on="0"/>
        <pt x="114" y="747" on="1"/>
        <pt x="145" y="714" on="0"/>
        <pt x="205" y="619" on="0"/>
        <pt x="251" y="503" on="0"/>
        <pt x="279" y="367" on="0"/>
      </contour>
    </TTGlyph>
    <TTGlyph name="percent" xMin="108" yMin="0" xMax="632" yMax="500">
      <contour>
        <pt x="426" y="112" on="1"/>
        <pt x="426" y="92" on="0"/>
        <pt x="441" y="58" on="0"/>
        <pt x="467" y="33" on="0"/>
        <pt x="502" y="18" on="0"/>
        <pt x="522" y="18" on="1"/>
        <pt x="542" y="18" on="0"/>
        <pt x="577" y="33" on="0"/>
        <pt x="603" y="58" on="0"/>
        <pt x="618" y="92" on="0"/>
        <pt x="618" y="112" on="1"/>
        <pt x="618" y="131" on="0"/>
        <pt x="603" y="166" on="0"/>
        <pt x="577" y="192" on="0"/>
        <pt x="542" y="207" on="0"/>
        <pt x="522" y="207" on="1"/>
        <pt x="502" y="207" on="0"/>
        <pt x="467" y="192" on="0"/>
        <pt x="441" y="166" on="0"/>
        <pt x="426" y="131" on="0"/>
      </contour>
      <contour>
        <pt x="522" y="4" on="1"/>
        <pt x="499" y="4" on="0"/>
        <pt x="459" y="21" on="0"/>
        <pt x="429" y="50" on="0"/>
        <pt x="412" y="90" on="0"/>
        <pt x="412" y="113" on="1"/>
        <pt x="412" y="135" on="0"/>
        <pt x="429" y="175" on="0"/>
        <pt x="459" y="204" on="0"/>
        <pt x="499" y="221" on="0"/>
        <pt x="522" y="221" on="1"/>
        <pt x="544" y="221" on="0"/>
        <pt x="584" y="204" on="0"/>
        <pt x="614" y="175" on="0"/>
        <pt x="632" y="135" on="0"/>
        <pt x="632" y="113" on="1"/>
        <pt x="632" y="90" on="0"/>
        <pt x="614" y="50" on="0"/>
        <pt x="584" y="21" on="0"/>
        <pt x="544" y="4" on="0"/>
      </contour>
      <contour>
        <pt x="122" y="388" on="1"/>
        <pt x="122" y="368" on="0"/>
        <pt x="137" y="334" on="0"/>
        <pt x="163" y="309" on="0"/>
        <pt x="198" y="294" on="0"/>
        <pt x="218" y="294" on="1"/>
        <pt x="238" y="294" on="0"/>
        <pt x="273" y="309" on="0"/>
        <pt x="299" y="334" on="0"/>
        <pt x="314" y="368" on="0"/>
        <pt x="314" y="388" on="1"/>
        <pt x="314" y="407" on="0"/>
        <pt x="299" y="442" on="0"/>
        <pt x="273" y="468" on="0"/>
        <pt x="238" y="483" on="0"/>
        <pt x="218" y="483" on="1"/>
        <pt x="198" y="483" on="0"/>
        <pt x="163" y="468" on="0"/>
        <pt x="137" y="442" on="0"/>
        <pt x="122" y="407" on="0"/>
      </contour>
      <contour>
        <pt x="218" y="280" on="1"/>
        <pt x="195" y="280" on="0"/>
        <pt x="155" y="297" on="0"/>
        <pt x="125" y="326" on="0"/>
        <pt x="108" y="366" on="0"/>
        <pt x="108" y="389" on="1"/>
        <pt x="108" y="411" on="0"/>
        <pt x="125" y="451" on="0"/>
        <pt x="155" y="480" on="0"/>
        <pt x="195" y="497" on="0"/>
        <pt x="218" y="497" on="1"/>
        <pt x="240" y="497" on="0"/>
        <pt x="280" y="480" on="0"/>
        <pt x="310" y="451" on="0"/>
        <pt x="328" y="411" on="0"/>
        <pt x="328" y="389" on="1"/>
        <pt x="328" y="366" on="0"/>
        <pt x="310" y="326" on="0"/>
        <pt x="280" y="297" on="0"/>
        <pt x="240" y="280" on="0"/>
      </contour>
      <contour>
        <pt x="208" y="0" on="1"/>
        <pt x="283" y="126" on="0"/>
        <pt x="431" y="374" on="0"/>
        <pt x="506" y="500" on="1"/>
        <pt x="522" y="500" on="1"/>
        <pt x="447" y="374" on="0"/>
        <pt x="299" y="126" on="0"/>
        <pt x="224" y="0" on="1"/>
      </contour>
    </TTGlyph>
    <TTGlyph name="period" xMin="66" yMin="0" xMax="106" yMax="40">
      <contour>
        <pt x="66" y="20" on="1"/>
        <pt x="66" y="28" on="0"/>
        <pt x="78" y="40" on="0"/>
        <pt x="86" y="40" on="1"/>
        <pt x="94" y="40" on="0"/>
        <pt x="106" y="28" on="0"/>
        <pt x="106" y="20" on="1"/>
        <pt x="106" y="12" on="0"/>
        <pt x="94" y="0" on="0"/>
        <pt x="86" y="0" on="1"/>
        <pt x="78" y="0" on="0"/>
        <pt x="66" y="12" on="0"/>
      </contour>
    </TTGlyph>
    <TTGlyph name="periodcentered" xMin="66" yMin="260" xMax="106" yMax="300">
      <component glyphName="period" x="0" y="260" flags="0x204"/>
    </TTGlyph>
    <TTGlyph name="plus" xMin="86" yMin="51" xMax="446" yMax="411">
      <contour>
        <pt x="259" y="51" on="1"/>
        <pt x="259" y="225" on="1"/>
        <pt x="86" y="225" on="1"/>
        <pt x="86" y="239" on="1"/>
        <pt x="259" y="239" on="1"/>
        <pt x="259" y="411" on="1"/>
        <pt x="273" y="411" on="1"/>
        <pt x="273" y="239" on="1"/>
        <pt x="446" y="239" on="1"/>
        <pt x="446" y="225" on="1"/>
        <pt x="273" y="225" on="1"/>
        <pt x="273" y="51" on="1"/>
      </contour>
    </TTGlyph>
    <TTGlyph name="plusminus" xMin="86" yMin="136" xMax="446" yMax="571">
      <contour>
        <pt x="259" y="211" on="1"/>
        <pt x="259" y="385" on="1"/>
        <pt x="86" y="385" on="1"/>
        <pt x="86" y="399" on="1"/>
        <pt x="259" y="399" on="1"/>
        <pt x="259" y="571" on="1"/>
        <pt x="273" y="571" on="1"/>
        <pt x="273" y="399" on="1"/>
        <pt x="446" y="399" on="1"/>
        <pt x="446" y="385" on="1"/>
        <pt x="273" y="385" on="1"/>
        <pt x="273" y="211" on="1"/>
      </contour>
      <contour>
        <pt x="446" y="136" on="1"/>
        <pt x="86" y="136" on="1"/>
        <pt x="86" y="150" on="1"/>
        <pt x="446" y="150" on="1"/>
      </contour>
    </TTGlyph>
    <TTGlyph name="q" xMin="35" yMin="-250" xMax="497" yMax="381">
      <contour>
        <pt x="321" y="-236" on="1"/>
        <pt x="409" y="-236" on="1"/>
        <pt x="409" y="61" on="1"/>
        <pt x="409" y="75" on="0"/>
        <pt x="410" y="101" on="0"/>
        <pt x="410" y="115" on="1"/>
        <pt x="399" y="88" on="0"/>
        <pt x="364" y="43" on="0"/>
        <pt x="317" y="10" on="0"/>
        <pt x="260" y="-8" on="0"/>
        <pt x="229" y="-8" on="1"/>
        <pt x="188" y="-8" on="0"/>
        <pt x="118" y="23" on="0"/>
        <pt x="65" y="75" on="0"/>
        <pt x="35" y="146" on="0"/>
        <pt x="35" y="187" on="1"/>
        <pt x="35" y="227" on="0"/>
        <pt x="65" y="298" on="0"/>
        <pt x="118" y="351" on="0"/>
        <pt x="188" y="381" on="0"/>
        <pt x="229" y="381" on="1"/>
        <pt x="292" y="381" on="0"/>
        <pt x="390" y="312" on="0"/>
        <pt x="411" y="257" on="1"/>
        <pt x="411" y="286" on="0"/>
        <pt x="414" y="346" on="0"/>
        <pt x="414" y="375" on="1"/>
        <pt x="497" y="375" on="1"/>
        <pt x="497" y="361" on="1"/>
        <pt x="424" y="361" on="1"/>
        <pt x="424" y="-236" on="1"/>
        <pt x="495" y="-236" on="1"/>
        <pt x="495" y="-250" on="1"/>
        <pt x="321" y="-250" on="1"/>
      </contour>
      <contour>
        <pt x="49" y="187" on="1"/>
        <pt x="49" y="149" on="0"/>
        <pt x="77" y="84" on="0"/>
        <pt x="126" y="34" on="0"/>
        <pt x="191" y="6" on="0"/>
        <pt x="229" y="6" on="1"/>
        <pt x="266" y="6" on="0"/>
        <pt x="332" y="34" on="0"/>
        <pt x="382" y="84" on="0"/>
        <pt x="410" y="149" on="0"/>
        <pt x="410" y="187" on="1"/>
        <pt x="410" y="224" on="0"/>
        <pt x="382" y="290" on="0"/>
        <pt x="332" y="339" on="0"/>
        <pt x="266" y="367" on="0"/>
        <pt x="229" y="367" on="1"/>
        <pt x="191" y="367" on="0"/>
        <pt x="126" y="339" on="0"/>
        <pt x="77" y="290" on="0"/>
        <pt x="49" y="224" on="0"/>
      </contour>
    </TTGlyph>
    <TTGlyph name="question" xMin="31" yMin="25" xMax="412" yMax="732">
      <contour>
        <pt x="44" y="596" on="1"/>
        <pt x="41" y="597" on="0"/>
        <pt x="34" y="598" on="0"/>
        <pt x="31" y="599" on="1"/>
        <pt x="51" y="657" on="0"/>
        <pt x="151" y="732" on="0"/>
        <pt x="216" y="732" on="1"/>
        <pt x="257" y="732" on="0"/>
        <pt x="329" y="701" on="0"/>
        <pt x="382" y="648" on="0"/>
        <pt x="412" y="577" on="0"/>
        <pt x="412" y="537" on="1"/>
        <pt x="412" y="483" on="0"/>
        <pt x="359" y="402" on="0"/>
        <pt x="314" y="370" on="1"/>
        <pt x="294" y="356" on="0"/>
        <pt x="261" y="337" on="0"/>
        <pt x="236" y="313" on="0"/>
        <pt x="222" y="275" on="0"/>
        <pt x="222" y="242" on="1"/>
        <pt x="222" y="164" on="1"/>
        <pt x="208" y="164" on="1"/>
        <pt x="208" y="261" on="1"/>
        <pt x="208" y="292" on="0"/>
        <pt x="231" y="329" on="0"/>
        <pt x="268" y="358" on="0"/>
        <pt x="315" y="387" on="0"/>
        <pt x="339" y="408" on="1"/>
        <pt x="370" y="435" on="0"/>
        <pt x="398" y="500" on="0"/>
        <pt x="398" y="537" on="1"/>
        <pt x="398" y="576" on="0"/>
        <pt x="370" y="642" on="0"/>
        <pt x="321" y="691" on="0"/>
        <pt x="254" y="718" on="0"/>
        <pt x="216" y="718" on="1"/>
        <pt x="186" y="718" on="0"/>
        <pt x="132" y="700" on="0"/>
        <pt x="86" y="668" on="0"/>
        <pt x="53" y="623" on="0"/>
      </contour>
      <contour>
        <pt x="215" y="25" on="1"/>
        <pt x="208" y="25" on="0"/>
        <pt x="196" y="37" on="0"/>
        <pt x="196" y="45" on="1"/>
        <pt x="196" y="54" on="0"/>
        <pt x="208" y="65" on="0"/>
        <pt x="215" y="65" on="1"/>
        <pt x="223" y="65" on="0"/>
        <pt x="235" y="54" on="0"/>
        <pt x="235" y="45" on="1"/>
        <pt x="235" y="37" on="0"/>
        <pt x="223" y="25" on="0"/>
      </contour>
    </TTGlyph>
    <TTGlyph name="questiondown" xMin="37" yMin="-193" xMax="418" yMax="514">
      <component glyphName="question" x="449" y="539" scale="-0.999877929688" flags="0x4"/>
    </TTGlyph>
    <TTGlyph name="quotedbl" xMin="63" yMin="472" xMax="214" yMax="720">
      <contour>
        <pt x="196" y="472" on="1"/>
        <pt x="196" y="720" on="1"/>
        <pt x="214" y="720" on="1"/>
        <pt x="213" y="657" on="0"/>
        <pt x="211" y="535" on="0"/>
        <pt x="210" y="472" on="1"/>
      </contour>
      <contour>
        <pt x="63" y="472" on="1"/>
        <pt x="63" y="720" on="1"/>
        <pt x="81" y="720" on="1"/>
        <pt x="80" y="657" on="0"/>
        <pt x="78" y="535" on="0"/>
        <pt x="77" y="472" on="1"/>
      </contour>
    </TTGlyph>
    <TTGlyph name="quotedblbase" xMin="20" yMin="-47" xMax="184" yMax="92">
      <contour>
        <pt x="26" y="-47" on="1"/>
        <pt x="20" y="-29" on="1"/>
        <pt x="41" y="-9" on="0"/>
        <pt x="60" y="50" on="0"/>
        <pt x="53" y="85" on="1"/>
        <pt x="58" y="87" on="0"/>
        <pt x="67" y="90" on="0"/>
        <pt x="72" y="92" on="1"/>
        <pt x="80" y="52" on="0"/>
        <pt x="55" y="-21" on="0"/>
      </contour>
      <contour>
        <pt x="130" y="-47" on="1"/>
        <pt x="124" y="-29" on="1"/>
        <pt x="145" y="-9" on="0"/>
        <pt x="164" y="50" on="0"/>
        <pt x="157" y="85" on="1"/>
        <pt x="162" y="87" on="0"/>
        <pt x="171" y="90" on="0"/>
        <pt x="176" y="92" on="1"/>
        <pt x="184" y="52" on="0"/>
        <pt x="159" y="-21" on="0"/>
      </contour>
    </TTGlyph>
    <TTGlyph name="quotedblleft" xMin="23" yMin="572" xMax="187" yMax="711">
      <contour>
        <pt x="187" y="590" on="1"/>
        <pt x="181" y="572" on="1"/>
        <pt x="152" y="598" on="0"/>
        <pt x="127" y="671" on="0"/>
        <pt x="135" y="711" on="1"/>
        <pt x="140" y="709" on="0"/>
        <pt x="149" y="706" on="0"/>
        <pt x="154" y="704" on="1"/>
        <pt x="147" y="669" on="0"/>
        <pt x="166" y="610" on="0"/>
      </contour>
      <contour>
        <pt x="83" y="590" on="1"/>
        <pt x="77" y="572" on="1"/>
        <pt x="48" y="598" on="0"/>
        <pt x="23" y="671" on="0"/>
        <pt x="31" y="711" on="1"/>
        <pt x="36" y="709" on="0"/>
        <pt x="45" y="706" on="0"/>
        <pt x="50" y="704" on="1"/>
        <pt x="43" y="669" on="0"/>
        <pt x="62" y="610" on="0"/>
      </contour>
    </TTGlyph>
    <TTGlyph name="quotedblright" xMin="44" yMin="572" xMax="208" yMax="711">
      <contour>
        <pt x="50" y="572" on="1"/>
        <pt x="44" y="590" on="1"/>
        <pt x="65" y="610" on="0"/>
        <pt x="84" y="669" on="0"/>
        <pt x="77" y="704" on="1"/>
        <pt x="82" y="706" on="0"/>
        <pt x="91" y="709" on="0"/>
        <pt x="96" y="711" on="1"/>
        <pt x="104" y="671" on="0"/>
        <pt x="79" y="598" on="0"/>
      </contour>
      <contour>
        <pt x="154" y="572" on="1"/>
        <pt x="148" y="590" on="1"/>
        <pt x="169" y="610" on="0"/>
        <pt x="188" y="669" on="0"/>
        <pt x="181" y="704" on="1"/>
        <pt x="186" y="706" on="0"/>
        <pt x="195" y="709" on="0"/>
        <pt x="200" y="711" on="1"/>
        <pt x="208" y="671" on="0"/>
        <pt x="183" y="598" on="0"/>
      </contour>
    </TTGlyph>
    <TTGlyph name="quoteleft" xMin="32" yMin="572" xMax="92" yMax="711">
      <contour>
        <pt x="92" y="590" on="1"/>
        <pt x="86" y="572" on="1"/>
        <pt x="57" y="598" on="0"/>
        <pt x="32" y="671" on="0"/>
        <pt x="40" y="711" on="1"/>
        <pt x="45" y="709" on="0"/>
        <pt x="54" y="706" on="0"/>
        <pt x="59" y="704" on="1"/>
        <pt x="52" y="669" on="0"/>
        <pt x="71" y="610" on="0"/>
      </contour>
    </TTGlyph>
    <TTGlyph name="quoteright" xMin="59" yMin="572" xMax="119" yMax="711">
      <contour>
        <pt x="65" y="572" on="1"/>
        <pt x="59" y="590" on="1"/>
        <pt x="80" y="610" on="0"/>
        <pt x="99" y="669" on="0"/>
        <pt x="92" y="704" on="1"/>
        <pt x="97" y="706" on="0"/>
        <pt x="106" y="709" on="0"/>
        <pt x="111" y="711" on="1"/>
        <pt x="119" y="671" on="0"/>
        <pt x="94" y="598" on="0"/>
      </contour>
    </TTGlyph>
    <TTGlyph name="quotesinglbase" xMin="20" yMin="-47" xMax="80" yMax="92">
      <contour>
        <pt x="26" y="-47" on="1"/>
        <pt x="20" y="-29" on="1"/>
        <pt x="41" y="-9" on="0"/>
        <pt x="60" y="50" on="0"/>
        <pt x="53" y="85" on="1"/>
        <pt x="58" y="87" on="0"/>
        <pt x="67" y="90" on="0"/>
        <pt x="72" y="92" on="1"/>
        <pt x="80" y="52" on="0"/>
        <pt x="55" y="-21" on="0"/>
      </contour>
    </TTGlyph>
    <TTGlyph name="quotesingle" xMin="67" yMin="472" xMax="85" yMax="720">
      <contour>
        <pt x="67" y="472" on="1"/>
        <pt x="67" y="720" on="1"/>
        <pt x="85" y="720" on="1"/>
        <pt x="84" y="657" on="0"/>
        <pt x="82" y="535" on="0"/>
        <pt x="81" y="472" on="1"/>
      </contour>
    </TTGlyph>
    <TTGlyph name="r" xMin="35" yMin="0" xMax="291" yMax="382">
      <contour>
        <pt x="35" y="14" on="1"/>
        <pt x="114" y="14" on="1"/>
        <pt x="114" y="361" on="1"/>
        <pt x="39" y="361" on="1"/>
        <pt x="39" y="375" on="1"/>
        <pt x="122" y="375" on="1"/>
        <pt x="124" y="322" on="1"/>
        <pt x="124" y="309" on="0"/>
        <pt x="125" y="290" on="0"/>
        <pt x="125" y="277" on="1"/>
        <pt x="146" y="325" on="0"/>
        <pt x="234" y="380" on="0"/>
        <pt x="291" y="382" on="1"/>
        <pt x="291" y="368" on="1"/>
        <pt x="258" y="367" on="0"/>
        <pt x="199" y="344" on="0"/>
        <pt x="154" y="305" on="0"/>
        <pt x="128" y="251" on="0"/>
        <pt x="128" y="220" on="1"/>
        <pt x="128" y="14" on="1"/>
        <pt x="209" y="14" on="1"/>
        <pt x="209" y="0" on="1"/>
        <pt x="35" y="0" on="1"/>
      </contour>
    </TTGlyph>
    <TTGlyph name="registered" xMin="145" yMin="118" xMax="655" yMax="627">
      <contour>
        <pt x="399" y="132" on="1"/>
        <pt x="449" y="132" on="0"/>
        <pt x="537" y="168" on="0"/>
        <pt x="603" y="233" on="0"/>
        <pt x="641" y="320" on="0"/>
        <pt x="641" y="371" on="1"/>
        <pt x="641" y="423" on="0"/>
        <pt x="603" y="512" on="0"/>
        <pt x="537" y="577" on="0"/>
        <pt x="449" y="613" on="0"/>
        <pt x="399" y="613" on="1"/>
        <pt x="350" y="613" on="0"/>
        <pt x="263" y="577" on="0"/>
        <pt x="197" y="512" on="0"/>
        <pt x="159" y="423" on="0"/>
        <pt x="159" y="371" on="1"/>
        <pt x="159" y="320" on="0"/>
        <pt x="197" y="233" on="0"/>
        <pt x="263" y="168" on="0"/>
        <pt x="350" y="132" on="0"/>
      </contour>
      <contour>
        <pt x="400" y="118" on="1"/>
        <pt x="346" y="118" on="0"/>
        <pt x="253" y="156" on="0"/>
        <pt x="184" y="224" on="0"/>
        <pt x="145" y="317" on="0"/>
        <pt x="145" y="372" on="1"/>
        <pt x="145" y="427" on="0"/>
        <pt x="184" y="521" on="0"/>
        <pt x="253" y="589" on="0"/>
        <pt x="346" y="627" on="0"/>
        <pt x="400" y="627" on="1"/>
        <pt x="454" y="627" on="0"/>
        <pt x="547" y="589" on="0"/>
        <pt x="616" y="521" on="0"/>
        <pt x="655" y="427" on="0"/>
        <pt x="655" y="372" on="1"/>
        <pt x="655" y="317" on="0"/>
        <pt x="616" y="224" on="0"/>
        <pt x="547" y="156" on="0"/>
        <pt x="454" y="118" on="0"/>
      </contour>
      <contour>
        <pt x="311" y="217" on="1"/>
        <pt x="344" y="217" on="1"/>
        <pt x="344" y="534" on="1"/>
        <pt x="311" y="534" on="1"/>
        <pt x="311" y="541" on="1"/>
        <pt x="410" y="541" on="1"/>
        <pt x="423" y="541" on="0"/>
        <pt x="456" y="532" on="0"/>
        <pt x="485" y="511" on="0"/>
        <pt x="504" y="479" on="0"/>
        <pt x="504" y="457" on="1"/>
        <pt x="504" y="424" on="0"/>
        <pt x="468" y="381" on="0"/>
        <pt x="433" y="374" on="1"/>
        <pt x="506" y="217" on="1"/>
        <pt x="546" y="217" on="1"/>
        <pt x="546" y="210" on="1"/>
        <pt x="503" y="210" on="1"/>
        <pt x="426" y="373" on="1"/>
        <pt x="421" y="372" on="0"/>
        <pt x="409" y="371" on="0"/>
        <pt x="403" y="371" on="1"/>
        <pt x="351" y="371" on="1"/>
        <pt x="351" y="217" on="1"/>
        <pt x="393" y="217" on="1"/>
        <pt x="393" y="210" on="1"/>
        <pt x="311" y="210" on="1"/>
      </contour>
      <contour>
        <pt x="351" y="378" on="1"/>
        <pt x="405" y="378" on="1"/>
        <pt x="432" y="378" on="0"/>
        <pt x="468" y="393" on="0"/>
        <pt x="489" y="416" on="0"/>
        <pt x="498" y="444" on="0"/>
        <pt x="498" y="457" on="1"/>
        <pt x="498" y="488" on="0"/>
        <pt x="445" y="534" on="0"/>
        <pt x="405" y="534" on="1"/>
        <pt x="351" y="534" on="1"/>
      </contour>
    </TTGlyph>
    <TTGlyph name="ring" xMin="137" yMin="477" xMax="263" yMax="603">
      <contour>
        <pt x="151" y="540" on="1"/>
        <pt x="151" y="520" on="0"/>
        <pt x="180" y="491" on="0"/>
        <pt x="200" y="491" on="1"/>
        <pt x="220" y="491" on="0"/>
        <pt x="249" y="520" on="0"/>
        <pt x="249" y="540" on="1"/>
        <pt x="249" y="560" on="0"/>
        <pt x="220" y="589" on="0"/>
        <pt x="200" y="589" on="1"/>
        <pt x="180" y="589" on="0"/>
        <pt x="151" y="560" on="0"/>
      </contour>
      <contour>
        <pt x="137" y="540" on="1"/>
        <pt x="137" y="567" on="0"/>
        <pt x="173" y="603" on="0"/>
        <pt x="200" y="603" on="1"/>
        <pt x="227" y="603" on="0"/>
        <pt x="263" y="567" on="0"/>
        <pt x="263" y="540" on="1"/>
        <pt x="263" y="513" on="0"/>
        <pt x="227" y="477" on="0"/>
        <pt x="200" y="477" on="1"/>
        <pt x="173" y="477" on="0"/>
        <pt x="137" y="513" on="0"/>
      </contour>
    </TTGlyph>
    <TTGlyph name="s" xMin="55" yMin="-8" xMax="284" yMax="379">
      <contour>
        <pt x="69" y="91" on="1"/>
        <pt x="69" y="32" on="1"/>
        <pt x="92" y="15" on="0"/>
        <pt x="147" y="6" on="0"/>
        <pt x="172" y="6" on="1"/>
        <pt x="187" y="6" on="0"/>
        <pt x="221" y="18" on="0"/>
        <pt x="250" y="41" on="0"/>
        <pt x="270" y="75" on="0"/>
        <pt x="270" y="98" on="1"/>
        <pt x="270" y="129" on="0"/>
        <pt x="240" y="163" on="0"/>
        <pt x="196" y="182" on="0"/>
        <pt x="143" y="196" on="0"/>
        <pt x="99" y="215" on="0"/>
        <pt x="69" y="249" on="0"/>
        <pt x="69" y="280" on="1"/>
        <pt x="69" y="304" on="0"/>
        <pt x="86" y="340" on="0"/>
        <pt x="115" y="366" on="0"/>
        <pt x="151" y="379" on="0"/>
        <pt x="170" y="379" on="1"/>
        <pt x="170" y="379" on="0"/>
        <pt x="194" y="379" on="0"/>
        <pt x="225" y="373" on="0"/>
        <pt x="258" y="361" on="0"/>
        <pt x="269" y="349" on="1"/>
        <pt x="269" y="284" on="1"/>
        <pt x="255" y="284" on="1"/>
        <pt x="255" y="343" on="1"/>
        <pt x="246" y="352" on="0"/>
        <pt x="218" y="361" on="0"/>
        <pt x="191" y="365" on="0"/>
        <pt x="170" y="365" on="0"/>
        <pt x="168" y="365" on="1"/>
        <pt x="155" y="365" on="0"/>
        <pt x="126" y="357" on="0"/>
        <pt x="100" y="338" on="0"/>
        <pt x="83" y="307" on="0"/>
        <pt x="83" y="285" on="1"/>
        <pt x="82" y="256" on="0"/>
        <pt x="112" y="225" on="0"/>
        <pt x="157" y="206" on="0"/>
        <pt x="209" y="193" on="0"/>
        <pt x="254" y="171" on="0"/>
        <pt x="284" y="134" on="0"/>
        <pt x="284" y="101" on="1"/>
        <pt x="284" y="82" on="0"/>
        <pt x="270" y="43" on="0"/>
        <pt x="241" y="12" on="0"/>
        <pt x="198" y="-8" on="0"/>
        <pt x="168" y="-8" on="1"/>
        <pt x="163" y="-8" on="0"/>
        <pt x="136" y="-6" on="0"/>
        <pt x="102" y="0" on="0"/>
        <pt x="67" y="14" on="0"/>
        <pt x="55" y="26" on="1"/>
        <pt x="55" y="91" on="1"/>
      </contour>
    </TTGlyph>
    <TTGlyph name="section" xMin="145" yMin="-10" xMax="368" yMax="730">
      <contour>
        <pt x="173" y="311" on="1"/>
        <pt x="187" y="286" on="0"/>
        <pt x="234" y="262" on="0"/>
        <pt x="261" y="262" on="1"/>
        <pt x="281" y="262" on="0"/>
        <pt x="316" y="278" on="0"/>
        <pt x="341" y="305" on="0"/>
        <pt x="355" y="340" on="0"/>
        <pt x="355" y="358" on="1"/>
        <pt x="355" y="382" on="0"/>
        <pt x="336" y="420" on="0"/>
        <pt x="306" y="445" on="0"/>
        <pt x="269" y="459" on="0"/>
        <pt x="250" y="459" on="1"/>
        <pt x="228" y="459" on="0"/>
        <pt x="194" y="442" on="0"/>
        <pt x="171" y="414" on="0"/>
        <pt x="159" y="380" on="0"/>
        <pt x="159" y="363" on="1"/>
        <pt x="159" y="336" on="0"/>
      </contour>
      <contour>
        <pt x="248" y="154" on="1"/>
        <pt x="161" y="304" on="1"/>
        <pt x="145" y="330" on="0"/>
        <pt x="145" y="362" on="1"/>
        <pt x="145" y="382" on="0"/>
        <pt x="160" y="422" on="0"/>
        <pt x="188" y="453" on="0"/>
        <pt x="228" y="472" on="0"/>
        <pt x="252" y="472" on="1"/>
        <pt x="285" y="472" on="0"/>
        <pt x="313" y="456" on="1"/>
        <pt x="296" y="483" on="0"/>
        <pt x="262" y="542" on="0"/>
        <pt x="235" y="596" on="0"/>
        <pt x="218" y="641" on="0"/>
        <pt x="218" y="653" on="1"/>
        <pt x="218" y="668" on="0"/>
        <pt x="233" y="691" on="0"/>
        <pt x="257" y="709" on="0"/>
        <pt x="285" y="723" on="0"/>
        <pt x="298" y="730" on="1"/>
        <pt x="300" y="727" on="0"/>
        <pt x="303" y="721" on="0"/>
        <pt x="305" y="718" on="1"/>
        <pt x="294" y="711" on="0"/>
        <pt x="269" y="698" on="0"/>
        <pt x="247" y="684" on="0"/>
        <pt x="232" y="665" on="0"/>
        <pt x="232" y="652" on="1"/>
        <pt x="232" y="637" on="0"/>
        <pt x="249" y="595" on="0"/>
        <pt x="266" y="566" on="1"/>
        <pt x="353" y="415" on="1"/>
        <pt x="368" y="388" on="0"/>
        <pt x="368" y="359" on="1"/>
        <pt x="368" y="338" on="0"/>
        <pt x="352" y="298" on="0"/>
        <pt x="323" y="266" on="0"/>
        <pt x="283" y="247" on="0"/>
        <pt x="259" y="247" on="1"/>
        <pt x="228" y="247" on="0"/>
        <pt x="200" y="264" on="1"/>
        <pt x="264" y="154" on="1"/>
        <pt x="281" y="124" on="0"/>
        <pt x="295" y="82" on="0"/>
        <pt x="295" y="68" on="1"/>
        <pt x="295" y="51" on="0"/>
        <pt x="280" y="27" on="0"/>
        <pt x="257" y="9" on="0"/>
        <pt x="229" y="-4" on="0"/>
        <pt x="216" y="-10" on="1"/>
        <pt x="214" y="-7" on="0"/>
        <pt x="211" y="-1" on="0"/>
        <pt x="209" y="2" on="1"/>
        <pt x="220" y="9" on="0"/>
        <pt x="245" y="22" on="0"/>
        <pt x="267" y="36" on="0"/>
        <pt x="282" y="55" on="0"/>
        <pt x="282" y="68" on="1"/>
        <pt x="282" y="83" on="0"/>
        <pt x="265" y="125" on="0"/>
      </contour>
    </TTGlyph>
    <TTGlyph name="semicolon" xMin="12" yMin="-120" xMax="128" yMax="290">
      <contour>
        <pt x="88" y="270" on="1"/>
        <pt x="88" y="278" on="0"/>
        <pt x="100" y="290" on="0"/>
        <pt x="108" y="290" on="1"/>
        <pt x="116" y="290" on="0"/>
        <pt x="128" y="278" on="0"/>
        <pt x="128" y="270" on="1"/>
        <pt x="128" y="262" on="0"/>
        <pt x="116" y="250" on="0"/>
        <pt x="108" y="250" on="1"/>
        <pt x="100" y="250" on="0"/>
        <pt x="88" y="262" on="0"/>
      </contour>
      <contour>
        <pt x="112" y="86" on="1"/>
        <pt x="90" y="34" on="0"/>
        <pt x="48" y="-68" on="0"/>
        <pt x="26" y="-120" on="1"/>
        <pt x="12" y="-120" on="1"/>
        <pt x="32" y="-68" on="0"/>
        <pt x="69" y="34" on="0"/>
        <pt x="89" y="86" on="1"/>
      </contour>
    </TTGlyph>
    <TTGlyph name="seven" xMin="14" yMin="0" xMax="415" yMax="650">
      <contour>
        <pt x="415" y="650" on="1"/>
        <pt x="123" y="0" on="1"/>
        <pt x="105" y="0" on="1"/>
        <pt x="392" y="636" on="1"/>
        <pt x="28" y="636" on="1"/>
        <pt x="28" y="568" on="1"/>
        <pt x="14" y="568" on="1"/>
        <pt x="14" y="650" on="1"/>
      </contour>
    </TTGlyph>
    <TTGlyph name="six" xMin="50" yMin="-8" xMax="458" yMax="633">
      <contour>
        <pt x="63" y="193" on="1"/>
        <pt x="63" y="154" on="0"/>
        <pt x="93" y="86" on="0"/>
        <pt x="144" y="35" on="0"/>
        <pt x="214" y="6" on="0"/>
        <pt x="253" y="6" on="1"/>
        <pt x="292" y="6" on="0"/>
        <pt x="362" y="35" on="0"/>
        <pt x="414" y="86" on="0"/>
        <pt x="444" y="154" on="0"/>
        <pt x="444" y="193" on="1"/>
        <pt x="444" y="232" on="0"/>
        <pt x="414" y="300" on="0"/>
        <pt x="362" y="351" on="0"/>
        <pt x="292" y="381" on="0"/>
        <pt x="253" y="381" on="1"/>
        <pt x="214" y="381" on="0"/>
        <pt x="144" y="351" on="0"/>
        <pt x="93" y="300" on="0"/>
        <pt x="63" y="232" on="0"/>
      </contour>
      <contour>
        <pt x="50" y="193" on="1"/>
        <pt x="50" y="266" on="0"/>
        <pt x="112" y="391" on="0"/>
        <pt x="208" y="499" on="0"/>
        <pt x="326" y="592" on="0"/>
        <pt x="382" y="633" on="1"/>
        <pt x="384" y="630" on="0"/>
        <pt x="390" y="623" on="0"/>
        <pt x="392" y="620" on="1"/>
        <pt x="325" y="576" on="0"/>
        <pt x="223" y="490" on="0"/>
        <pt x="150" y="411" on="0"/>
        <pt x="103" y="342" on="0"/>
        <pt x="91" y="314" on="1"/>
        <pt x="119" y="351" on="0"/>
        <pt x="203" y="395" on="0"/>
        <pt x="254" y="395" on="1"/>
        <pt x="296" y="395" on="0"/>
        <pt x="371" y="363" on="0"/>
        <pt x="426" y="308" on="0"/>
        <pt x="458" y="235" on="0"/>
        <pt x="458" y="193" on="1"/>
        <pt x="458" y="151" on="0"/>
        <pt x="426" y="78" on="0"/>
        <pt x="371" y="24" on="0"/>
        <pt x="296" y="-8" on="0"/>
        <pt x="254" y="-8" on="1"/>
        <pt x="212" y="-8" on="0"/>
        <pt x="137" y="24" on="0"/>
        <pt x="82" y="78" on="0"/>
        <pt x="50" y="151" on="0"/>
      </contour>
    </TTGlyph>
    <TTGlyph name="slash" xMin="17" yMin="-19" xMax="309" yMax="736">
      <contour>
        <pt x="17" y="-19" on="1"/>
        <pt x="87" y="171" on="0"/>
        <pt x="225" y="546" on="0"/>
        <pt x="295" y="736" on="1"/>
        <pt x="309" y="736" on="1"/>
        <pt x="239" y="546" on="0"/>
        <pt x="101" y="171" on="0"/>
        <pt x="31" y="-19" on="1"/>
      </contour>
    </TTGlyph>
    <TTGlyph name="sterling" xMin="26" yMin="0" xMax="486" yMax="634">
      <contour>
        <pt x="486" y="0" on="1"/>
        <pt x="26" y="0" on="1"/>
        <pt x="26" y="14" on="1"/>
        <pt x="70" y="14" on="1"/>
        <pt x="88" y="14" on="0"/>
        <pt x="109" y="29" on="0"/>
        <pt x="119" y="63" on="0"/>
        <pt x="122" y="121" on="0"/>
        <pt x="122" y="164" on="1"/>
        <pt x="122" y="311" on="1"/>
        <pt x="57" y="311" on="1"/>
        <pt x="57" y="325" on="1"/>
        <pt x="122" y="325" on="1"/>
        <pt x="122" y="500" on="1"/>
        <pt x="122" y="570" on="0"/>
        <pt x="209" y="634" on="0"/>
        <pt x="281" y="634" on="1"/>
        <pt x="348" y="634" on="0"/>
        <pt x="417" y="585" on="0"/>
        <pt x="437" y="545" on="1"/>
        <pt x="427" y="539" on="1"/>
        <pt x="414" y="563" on="0"/>
        <pt x="388" y="594" on="0"/>
        <pt x="354" y="612" on="0"/>
        <pt x="311" y="620" on="0"/>
        <pt x="281" y="620" on="1"/>
        <pt x="239" y="620" on="0"/>
        <pt x="183" y="601" on="0"/>
        <pt x="150" y="569" on="0"/>
        <pt x="136" y="527" on="0"/>
        <pt x="136" y="504" on="1"/>
        <pt x="136" y="325" on="1"/>
        <pt x="265" y="325" on="1"/>
        <pt x="265" y="311" on="1"/>
        <pt x="136" y="311" on="1"/>
        <pt x="136" y="109" on="1"/>
        <pt x="136" y="80" on="0"/>
        <pt x="127" y="28" on="0"/>
        <pt x="113" y="14" on="1"/>
        <pt x="472" y="14" on="1"/>
        <pt x="472" y="123" on="1"/>
        <pt x="486" y="123" on="1"/>
      </contour>
    </TTGlyph>
    <TTGlyph name="t" xMin="35" yMin="0" xMax="265" yMax="619">
      <contour>
        <pt x="124" y="619" on="1"/>
        <pt x="138" y="619" on="1"/>
        <pt x="138" y="375" on="1"/>
        <pt x="265" y="375" on="1"/>
        <pt x="265" y="361" on="1"/>
        <pt x="138" y="361" on="1"/>
        <pt x="138" y="14" on="1"/>
        <pt x="225" y="14" on="1"/>
        <pt x="225" y="0" on="1"/>
        <pt x="124" y="0" on="1"/>
        <pt x="124" y="361" on="1"/>
        <pt x="35" y="361" on="1"/>
        <pt x="35" y="375" on="1"/>
        <pt x="124" y="375" on="1"/>
      </contour>
    </TTGlyph>
    <TTGlyph name="thorn" xMin="16" yMin="-250" xMax="482" yMax="750">
      <contour>
        <pt x="16" y="-236" on="1"/>
        <pt x="93" y="-236" on="1"/>
        <pt x="93" y="736" on="1"/>
        <pt x="16" y="736" on="1"/>
        <pt x="16" y="750" on="1"/>
        <pt x="190" y="750" on="1"/>
        <pt x="190" y="736" on="1"/>
        <pt x="107" y="736" on="1"/>
        <pt x="107" y="321" on="1"/>
        <pt x="107" y="305" on="0"/>
        <pt x="106" y="273" on="0"/>
        <pt x="106" y="257" on="1"/>
        <pt x="127" y="312" on="0"/>
        <pt x="225" y="381" on="0"/>
        <pt x="288" y="381" on="1"/>
        <pt x="328" y="381" on="0"/>
        <pt x="399" y="351" on="0"/>
        <pt x="452" y="298" on="0"/>
        <pt x="482" y="227" on="0"/>
        <pt x="482" y="187" on="1"/>
        <pt x="482" y="146" on="0"/>
        <pt x="452" y="75" on="0"/>
        <pt x="399" y="23" on="0"/>
        <pt x="328" y="-8" on="0"/>
        <pt x="288" y="-8" on="1"/>
        <pt x="257" y="-8" on="0"/>
        <pt x="200" y="10" on="0"/>
        <pt x="153" y="43" on="0"/>
        <pt x="117" y="88" on="0"/>
        <pt x="107" y="115" on="1"/>
        <pt x="107" y="101" on="0"/>
        <pt x="108" y="75" on="0"/>
        <pt x="108" y="61" on="1"/>
        <pt x="108" y="-236" on="1"/>
        <pt x="190" y="-236" on="1"/>
        <pt x="190" y="-250" on="1"/>
        <pt x="16" y="-250" on="1"/>
      </contour>
      <contour>
        <pt x="468" y="187" on="1"/>
        <pt x="468" y="224" on="0"/>
        <pt x="440" y="290" on="0"/>
        <pt x="391" y="339" on="0"/>
        <pt x="325" y="367" on="0"/>
        <pt x="288" y="367" on="1"/>
        <pt x="250" y="367" on="0"/>
        <pt x="185" y="339" on="0"/>
        <pt x="135" y="290" on="0"/>
        <pt x="107" y="224" on="0"/>
        <pt x="107" y="187" on="1"/>
        <pt x="107" y="149" on="0"/>
        <pt x="135" y="84" on="0"/>
        <pt x="185" y="34" on="0"/>
        <pt x="250" y="6" on="0"/>
        <pt x="288" y="6" on="1"/>
        <pt x="325" y="6" on="0"/>
        <pt x="391" y="34" on="0"/>
        <pt x="440" y="84" on="0"/>
        <pt x="468" y="149" on="0"/>
      </contour>
    </TTGlyph>
    <TTGlyph name="three" xMin="93" yMin="-8" xMax="446" yMax="650">
      <contour>
        <pt x="178" y="361" on="1"/>
        <pt x="390" y="636" on="1"/>
        <pt x="117" y="636" on="1"/>
        <pt x="117" y="568" on="1"/>
        <pt x="103" y="568" on="1"/>
        <pt x="103" y="650" on="1"/>
        <pt x="422" y="650" on="1"/>
        <pt x="223" y="398" on="1"/>
        <pt x="268" y="400" on="0"/>
        <pt x="349" y="371" on="0"/>
        <pt x="410" y="317" on="0"/>
        <pt x="446" y="240" on="0"/>
        <pt x="446" y="195" on="1"/>
        <pt x="446" y="153" on="0"/>
        <pt x="414" y="79" on="0"/>
        <pt x="358" y="24" on="0"/>
        <pt x="284" y="-8" on="0"/>
        <pt x="242" y="-8" on="1"/>
        <pt x="197" y="-8" on="0"/>
        <pt x="121" y="28" on="0"/>
        <pt x="93" y="58" on="1"/>
        <pt x="103" y="71" on="1"/>
        <pt x="127" y="42" on="0"/>
        <pt x="197" y="6" on="0"/>
        <pt x="239" y="6" on="1"/>
        <pt x="278" y="6" on="0"/>
        <pt x="349" y="36" on="0"/>
        <pt x="401" y="88" on="0"/>
        <pt x="432" y="157" on="0"/>
        <pt x="432" y="195" on="1"/>
        <pt x="432" y="234" on="0"/>
        <pt x="401" y="303" on="0"/>
        <pt x="349" y="354" on="0"/>
        <pt x="278" y="384" on="0"/>
        <pt x="239" y="384" on="1"/>
        <pt x="223" y="384" on="0"/>
        <pt x="192" y="372" on="0"/>
      </contour>
    </TTGlyph>
    <TTGlyph name="threequarters" xMin="154" yMin="-19" xMax="1045" yMax="736">
      <contour>
        <pt x="219" y="485" on="1"/>
        <pt x="382" y="697" on="1"/>
        <pt x="172" y="697" on="1"/>
        <pt x="172" y="645" on="1"/>
        <pt x="161" y="645" on="1"/>
        <pt x="161" y="708" on="1"/>
        <pt x="407" y="708" on="1"/>
        <pt x="254" y="513" on="1"/>
        <pt x="288" y="515" on="0"/>
        <pt x="351" y="492" on="0"/>
        <pt x="398" y="451" on="0"/>
        <pt x="426" y="391" on="0"/>
        <pt x="426" y="357" on="1"/>
        <pt x="426" y="324" on="0"/>
        <pt x="401" y="267" on="0"/>
        <pt x="358" y="225" on="0"/>
        <pt x="301" y="200" on="0"/>
        <pt x="268" y="200" on="1"/>
        <pt x="234" y="200" on="0"/>
        <pt x="175" y="228" on="0"/>
        <pt x="154" y="251" on="1"/>
        <pt x="161" y="261" on="1"/>
        <pt x="180" y="238" on="0"/>
        <pt x="234" y="211" on="0"/>
        <pt x="266" y="211" on="1"/>
        <pt x="296" y="211" on="0"/>
        <pt x="351" y="234" on="0"/>
        <pt x="391" y="274" on="0"/>
        <pt x="415" y="327" on="0"/>
        <pt x="415" y="357" on="1"/>
        <pt x="415" y="387" on="0"/>
        <pt x="391" y="440" on="0"/>
        <pt x="351" y="479" on="0"/>
        <pt x="296" y="502" on="0"/>
        <pt x="266" y="502" on="1"/>
        <pt x="254" y="502" on="0"/>
        <pt x="230" y="493" on="0"/>
      </contour>
      <contour>
        <pt x="460" y="-19" on="1"/>
        <pt x="530" y="171" on="0"/>
        <pt x="668" y="546" on="0"/>
        <pt x="738" y="736" on="1"/>
        <pt x="752" y="736" on="1"/>
        <pt x="682" y="546" on="0"/>
        <pt x="544" y="171" on="0"/>
        <pt x="474" y="-19" on="1"/>
      </contour>
      <contour>
        <pt x="904" y="10" on="1"/>
        <pt x="962" y="10" on="1"/>
        <pt x="962" y="136" on="1"/>
        <pt x="700" y="136" on="1"/>
        <pt x="972" y="490" on="1"/>
        <pt x="972" y="147" on="1"/>
        <pt x="1045" y="147" on="1"/>
        <pt x="1045" y="136" on="1"/>
        <pt x="972" y="136" on="1"/>
        <pt x="972" y="10" on="1"/>
        <pt x="1034" y="10" on="1"/>
        <pt x="1034" y="0" on="1"/>
        <pt x="904" y="0" on="1"/>
      </contour>
      <contour>
        <pt x="962" y="459" on="1"/>
        <pt x="722" y="147" on="1"/>
        <pt x="962" y="147" on="1"/>
      </contour>
    </TTGlyph>
    <TTGlyph name="threesuperior" xMin="96" yMin="376" xMax="270" yMax="700">
      <contour>
        <pt x="138" y="558" on="1"/>
        <pt x="242" y="693" on="1"/>
        <pt x="108" y="693" on="1"/>
        <pt x="108" y="660" on="1"/>
        <pt x="101" y="660" on="1"/>
        <pt x="101" y="700" on="1"/>
        <pt x="258" y="700" on="1"/>
        <pt x="160" y="576" on="1"/>
        <pt x="182" y="577" on="0"/>
        <pt x="222" y="563" on="0"/>
        <pt x="252" y="536" on="0"/>
        <pt x="270" y="498" on="0"/>
        <pt x="270" y="476" on="1"/>
        <pt x="270" y="455" on="0"/>
        <pt x="254" y="419" on="0"/>
        <pt x="226" y="392" on="0"/>
        <pt x="190" y="376" on="0"/>
        <pt x="169" y="376" on="1"/>
        <pt x="147" y="376" on="0"/>
        <pt x="110" y="394" on="0"/>
        <pt x="96" y="409" on="1"/>
        <pt x="101" y="415" on="1"/>
        <pt x="113" y="401" on="0"/>
        <pt x="147" y="383" on="0"/>
        <pt x="168" y="383" on="1"/>
        <pt x="187" y="383" on="0"/>
        <pt x="222" y="398" on="0"/>
        <pt x="248" y="423" on="0"/>
        <pt x="263" y="457" on="0"/>
        <pt x="263" y="476" on="1"/>
        <pt x="263" y="495" on="0"/>
        <pt x="248" y="529" on="0"/>
        <pt x="222" y="554" on="0"/>
        <pt x="187" y="569" on="0"/>
        <pt x="168" y="569" on="1"/>
        <pt x="160" y="569" on="0"/>
        <pt x="145" y="563" on="0"/>
      </contour>
    </TTGlyph>
    <TTGlyph name="two" xMin="50" yMin="0" xMax="449" yMax="658">
      <contour>
        <pt x="89" y="14" on="1"/>
        <pt x="435" y="14" on="1"/>
        <pt x="435" y="127" on="1"/>
        <pt x="449" y="127" on="1"/>
        <pt x="449" y="0" on="1"/>
        <pt x="53" y="0" on="1"/>
        <pt x="117" y="62" on="0"/>
        <pt x="239" y="183" on="0"/>
        <pt x="332" y="298" on="0"/>
        <pt x="389" y="405" on="0"/>
        <pt x="389" y="452" on="1"/>
        <pt x="389" y="508" on="0"/>
        <pt x="357" y="582" on="0"/>
        <pt x="309" y="626" on="0"/>
        <pt x="253" y="644" on="0"/>
        <pt x="228" y="644" on="1"/>
        <pt x="178" y="644" on="0"/>
        <pt x="115" y="609" on="0"/>
        <pt x="78" y="556" on="0"/>
        <pt x="64" y="495" on="0"/>
        <pt x="64" y="469" on="1"/>
        <pt x="64" y="398" on="0"/>
        <pt x="104" y="355" on="1"/>
        <pt x="95" y="347" on="1"/>
        <pt x="74" y="371" on="0"/>
        <pt x="50" y="428" on="0"/>
        <pt x="50" y="469" on="1"/>
        <pt x="50" y="509" on="0"/>
        <pt x="73" y="578" on="0"/>
        <pt x="118" y="629" on="0"/>
        <pt x="185" y="658" on="0"/>
        <pt x="228" y="658" on="1"/>
        <pt x="267" y="658" on="0"/>
        <pt x="331" y="629" on="0"/>
        <pt x="378" y="577" on="0"/>
        <pt x="403" y="506" on="0"/>
        <pt x="403" y="464" on="1"/>
        <pt x="403" y="406" on="0"/>
        <pt x="344" y="291" on="0"/>
        <pt x="252" y="179" on="0"/>
        <pt x="141" y="68" on="0"/>
      </contour>
    </TTGlyph>
    <TTGlyph name="twosuperior" xMin="101" yMin="375" xMax="298" yMax="700">
      <contour>
        <pt x="120" y="382" on="1"/>
        <pt x="292" y="382" on="1"/>
        <pt x="292" y="438" on="1"/>
        <pt x="298" y="438" on="1"/>
        <pt x="298" y="375" on="1"/>
        <pt x="102" y="375" on="1"/>
        <pt x="134" y="406" on="0"/>
        <pt x="194" y="465" on="0"/>
        <pt x="240" y="522" on="0"/>
        <pt x="269" y="575" on="0"/>
        <pt x="269" y="598" on="1"/>
        <pt x="269" y="626" on="0"/>
        <pt x="253" y="662" on="0"/>
        <pt x="229" y="684" on="0"/>
        <pt x="201" y="693" on="0"/>
        <pt x="189" y="693" on="1"/>
        <pt x="164" y="693" on="0"/>
        <pt x="133" y="676" on="0"/>
        <pt x="115" y="650" on="0"/>
        <pt x="108" y="619" on="0"/>
        <pt x="108" y="607" on="1"/>
        <pt x="108" y="572" on="0"/>
        <pt x="128" y="550" on="1"/>
        <pt x="123" y="546" on="1"/>
        <pt x="113" y="558" on="0"/>
        <pt x="101" y="586" on="0"/>
        <pt x="101" y="607" on="1"/>
        <pt x="101" y="626" on="0"/>
        <pt x="112" y="660" on="0"/>
        <pt x="134" y="686" on="0"/>
        <pt x="168" y="700" on="0"/>
        <pt x="189" y="700" on="1"/>
        <pt x="208" y="700" on="0"/>
        <pt x="240" y="686" on="0"/>
        <pt x="263" y="660" on="0"/>
        <pt x="276" y="625" on="0"/>
        <pt x="276" y="604" on="1"/>
        <pt x="276" y="576" on="0"/>
        <pt x="246" y="519" on="0"/>
        <pt x="201" y="463" on="0"/>
        <pt x="146" y="409" on="0"/>
      </contour>
    </TTGlyph>
    <TTGlyph name="u" xMin="35" yMin="-7" xMax="483" yMax="375">
      <contour>
        <pt x="35" y="375" on="1"/>
        <pt x="128" y="375" on="1"/>
        <pt x="128" y="98" on="1"/>
        <pt x="130" y="62" on="0"/>
        <pt x="179" y="9" on="0"/>
        <pt x="223" y="7" on="1"/>
        <pt x="257" y="7" on="0"/>
        <pt x="318" y="29" on="0"/>
        <pt x="364" y="68" on="0"/>
        <pt x="392" y="123" on="0"/>
        <pt x="392" y="155" on="1"/>
        <pt x="392" y="361" on="1"/>
        <pt x="313" y="361" on="1"/>
        <pt x="313" y="375" on="1"/>
        <pt x="406" y="375" on="1"/>
        <pt x="406" y="14" on="1"/>
        <pt x="483" y="14" on="1"/>
        <pt x="483" y="0" on="1"/>
        <pt x="400" y="0" on="1"/>
        <pt x="397" y="53" on="1"/>
        <pt x="395" y="98" on="1"/>
        <pt x="375" y="50" on="0"/>
        <pt x="286" y="-7" on="0"/>
        <pt x="230" y="-7" on="1"/>
        <pt x="177" y="-7" on="0"/>
        <pt x="116" y="55" on="0"/>
        <pt x="114" y="105" on="1"/>
        <pt x="114" y="361" on="1"/>
        <pt x="35" y="361" on="1"/>
      </contour>
    </TTGlyph>
    <TTGlyph name="uacute" xMin="35" yMin="-7" xMax="483" yMax="612">
      <component glyphName="u" x="0" y="0" flags="0x204"/>
      <component glyphName="acute" x="131" y="0" flags="0x4"/>
    </TTGlyph>
    <TTGlyph name="ucircumflex" xMin="35" yMin="-7" xMax="483" yMax="660">
      <component glyphName="u" x="0" y="0" flags="0x204"/>
      <component glyphName="asciicircum" x="34" y="0" flags="0x4"/>
    </TTGlyph>
    <TTGlyph name="udieresis" xMin="35" yMin="-7" xMax="483" yMax="520">
      <component glyphName="u" x="0" y="0" flags="0x204"/>
      <component glyphName="dieresis" x="75" y="0" flags="0x4"/>
    </TTGlyph>
    <TTGlyph name="ugrave" xMin="35" yMin="-7" xMax="483" yMax="612">
      <component glyphName="u" x="0" y="0" flags="0x204"/>
      <component glyphName="grave" x="166" y="0" flags="0x4"/>
    </TTGlyph>
    <TTGlyph name="underscore" xMin="100" yMin="0" xMax="500" yMax="14">
      <contour>
        <pt x="500" y="0" on="1"/>
        <pt x="100" y="0" on="1"/>
        <pt x="100" y="14" on="1"/>
        <pt x="500" y="14" on="1"/>
      </contour>
    </TTGlyph>
    <TTGlyph name="uni00AD" xMin="53" yMin="184" xMax="237" yMax="198">
      <contour>
        <pt x="53" y="184" on="1"/>
        <pt x="53" y="198" on="1"/>
        <pt x="237" y="198" on="1"/>
        <pt x="237" y="184" on="1"/>
      </contour>
    </TTGlyph>
    <TTGlyph name="v" xMin="35" yMin="-23" xMax="555" yMax="375">
      <contour>
        <pt x="35" y="375" on="1"/>
        <pt x="196" y="375" on="1"/>
        <pt x="196" y="361" on="1"/>
        <pt x="122" y="361" on="1"/>
        <pt x="166" y="273" on="0"/>
        <pt x="253" y="96" on="0"/>
        <pt x="298" y="8" on="1"/>
        <pt x="339" y="90" on="0"/>
        <pt x="429" y="270" on="0"/>
        <pt x="474" y="361" on="1"/>
        <pt x="416" y="361" on="1"/>
        <pt x="416" y="375" on="1"/>
        <pt x="555" y="375" on="1"/>
        <pt x="555" y="361" on="1"/>
        <pt x="489" y="361" on="1"/>
        <pt x="441" y="264" on="0"/>
        <pt x="346" y="74" on="0"/>
        <pt x="298" y="-23" on="1"/>
        <pt x="250" y="74" on="0"/>
        <pt x="155" y="264" on="0"/>
        <pt x="107" y="361" on="1"/>
        <pt x="35" y="361" on="1"/>
      </contour>
    </TTGlyph>
</ttFont>
